<?xml version="1.0" standalone="no"?>
<!DOCTYPE svg PUBLIC "-//W3C//DTD SVG 1.1//EN" "http://www.w3.org/Graphics/SVG/1.1/DTD/svg11.dtd" >
<svg>
<metadata>
Created by FontForge 20120731 at Wed Sep 21 18:58:42 2016
 By www
Copyright 2000, 2002 Adobe Systems Incorporated.  All Rights Reserved. U.S. Patent Des. 337,604.Minion is either a registered trademark or a trademark of Adobe Systems Incorporated in the United States and/or other countries.
</metadata>
<defs>
<font id="MinionPro-Disp" horiz-adv-x="400" >
  <font-face 
    font-family="Minion Pro"
    font-weight="400"
    font-stretch="normal"
    units-per-em="1000"
    panose-1="2 4 5 3 6 2 1 2 2 3"
    ascent="727"
    descent="-273"
    x-height="427"
    cap-height="648"
    bbox="-264 -331 1592 917"
    underline-thickness="50"
    underline-position="-50"
    stemh="20"
    stemv="72"
    unicode-range="U+0020-FB06"
  />
<missing-glyph horiz-adv-x="500" 
d="M0 0v700h500v-700h-500zM250 395l170 255h-340zM280 350l170 -255v510zM80 50h340l-170 255zM50 605v-510l170 255z" />
    <glyph glyph-name="f_i" unicode="fi" horiz-adv-x="498" 
d="M483 0h-203v12c56 5 64 12 64 83v250c0 47 -2 54 -49 54h-130v-304c0 -70 7 -78 67 -83v-12h-209v12c62 6 70 13 70 83v304h-71l-2 7l25 21h48v33c0 37 5 67 10 86c8 25 25 78 79 121c41 34 81 51 118 54c54 -2 85 -30 97 -47c8 -13 8 -25 5 -33c-4 -7 -12 -16 -19 -20
c-10 -6 -17 -6 -24 3c-22 28 -53 59 -102 59c-28 0 -44 -12 -58 -31c-22 -27 -34 -93 -34 -171v-54h68c75 0 136 2 183 11v-343c0 -71 7 -78 67 -83v-12z" />
    <glyph glyph-name="f_l" unicode="fl" horiz-adv-x="494" 
d="M483 0h-202v12c55 5 63 12 63 83v543c-18 30 -50 47 -85 47c-30 0 -51 -14 -65 -34c-16 -21 -29 -66 -29 -149v-75h112c4 -7 1 -22 -8 -28h-104v-305c0 -69 7 -77 65 -82v-12h-203v12c58 6 66 12 66 82v305h-68l-2 7l25 21h45v26c0 51 4 76 10 98c7 24 24 73 78 118
c39 31 72 46 111 52c26 0 58 -10 79 -24c13 4 25 12 37 20l8 -4v-618c0 -71 9 -77 67 -83v-12z" />
    <glyph glyph-name="f_f" unicode="ff" horiz-adv-x="523" 
d="M94 427v12c0 37 5 70 10 87c8 26 27 77 86 122c39 30 73 46 117 51c52 -2 87 -23 107 -47c43 44 87 65 127 69c27 -1 56 -15 72 -34c10 -12 10 -24 5 -33c-3 -6 -9 -13 -17 -19c-9 -6 -17 -4 -24 3c-23 23 -55 39 -86 39c-24 0 -41 -11 -51 -28c-14 -21 -22 -75 -22 -176
l1 -46h114c4 -7 3 -21 -5 -28h-110v-304c0 -70 8 -76 76 -83v-12h-211v12c54 7 63 14 63 83v304h-180v-304c0 -69 8 -76 65 -83v-12h-198v12c52 7 61 14 61 83v304h-68l-1 7l24 21h45zM346 427v21c0 46 4 79 9 96c4 18 10 36 24 60c-24 34 -60 60 -106 60
c-37 0 -59 -17 -72 -34c-16 -22 -35 -71 -35 -175v-28h180z" />
    <glyph glyph-name="f_f_i" unicode="ffi" horiz-adv-x="748" 
d="M737 0h-204v12c56 5 65 14 65 82v252c0 46 -2 53 -49 53h-131v-304c0 -70 9 -78 67 -83v-12h-203v12c56 6 64 13 64 82v305h-180v-305c0 -69 8 -75 65 -82v-12h-198v12c52 7 61 13 61 83v304h-68l-1 7l24 21h45v25c0 32 4 58 10 79c8 26 28 77 87 122c38 29 72 44 120 49
c54 -2 90 -25 105 -48c46 42 98 66 137 67c55 -1 85 -29 98 -46c9 -13 9 -24 6 -32c-4 -8 -12 -17 -21 -23c-10 -7 -18 -7 -29 7c-17 21 -47 56 -97 56c-26 0 -44 -11 -58 -30c-21 -27 -34 -93 -34 -170v-56h68c76 0 133 2 184 11v-344c0 -68 8 -76 67 -82v-12zM346 427v39
c0 34 5 65 10 83c4 16 9 35 23 57c-23 34 -60 60 -107 60c-38 0 -60 -16 -72 -33c-15 -22 -34 -72 -34 -168v-38h180z" />
    <glyph glyph-name="f_f_l" unicode="ffl" horiz-adv-x="748" 
d="M737 0h-202v12c54 5 63 12 63 81v545c-18 30 -51 47 -87 47c-28 0 -50 -14 -64 -33c-16 -21 -29 -80 -29 -169v-56h113c4 -7 2 -22 -8 -28h-104l-1 -304c0 -71 8 -78 66 -83v-12h-203v12c56 6 65 12 65 82v305h-180v-305c0 -69 8 -75 64 -82v-12h-197v12
c52 7 61 13 61 83v304h-68l-1 7l24 21h45v21c0 32 5 60 10 80c8 25 27 74 85 120c37 29 72 46 119 51c52 -2 90 -24 107 -47c39 38 84 63 130 69c34 -1 59 -10 80 -24c13 4 24 12 36 21l9 -5v-620c0 -69 8 -76 67 -81v-12zM346 427v21c0 53 4 83 10 103c3 11 9 31 22 54
c-22 34 -59 58 -107 58c-37 0 -60 -17 -72 -34c-14 -21 -33 -71 -33 -172v-30h180z" />
    <glyph glyph-name="f_b" unicode="fb" horiz-adv-x="762" 
d="M416 391l89 39c13 6 27 9 37 9c104 0 190 -89 190 -204c0 -142 -115 -247 -245 -247c-37 0 -91 8 -143 33v621c-19 21 -51 43 -94 43c-32 0 -48 -18 -61 -34c-15 -21 -24 -78 -24 -165v-59h111c5 -11 4 -22 -9 -28h-102v-290c0 -79 7 -90 83 -97v-12h-216v12
c53 7 61 19 61 83v304h-68l-3 10l26 18h45v35c0 34 4 64 11 86c6 24 23 78 77 121c38 31 68 47 107 52c25 -1 53 -11 66 -23c16 6 40 15 57 23l5 -5v-325zM416 375v-264c0 -15 1 -26 5 -37c8 -25 40 -61 92 -62c91 -1 137 78 137 197c0 112 -63 185 -157 185
c-32 0 -61 -9 -77 -19z" />
    <glyph glyph-name="f_f_b" unicode="ffb" horiz-adv-x="1013" 
d="M667 717v-325c30 13 59 26 89 38c13 6 27 9 37 9c104 0 190 -89 190 -205c0 -141 -115 -246 -245 -246c-37 0 -91 8 -143 33v620c-15 24 -53 47 -93 47c-30 0 -48 -15 -59 -30c-18 -24 -27 -75 -27 -175v-56h111c5 -9 0 -22 -9 -28h-102v-304c0 -71 8 -76 70 -83v-12
h-202v12c51 7 60 13 60 83v304h-179v-304c0 -70 8 -76 64 -83v-12h-197v12c53 7 61 13 61 82v305h-68l-1 6l24 22h45v15c0 31 5 59 11 84c8 28 27 79 90 127c34 26 68 42 112 47c52 -2 86 -24 104 -46c46 46 92 67 130 67c23 0 50 -11 65 -24c18 6 41 17 57 24zM344 427v22
c0 60 5 106 34 163c-20 32 -58 57 -103 57c-36 0 -60 -18 -74 -38c-16 -22 -36 -73 -36 -173v-31h179zM667 375v-264c0 -14 1 -25 5 -36c8 -25 40 -62 92 -63c92 -1 137 79 137 197c0 112 -64 185 -157 185c-31 0 -61 -9 -77 -19z" />
    <glyph glyph-name="f_f_h" unicode="ffh" horiz-adv-x="1017" 
d="M1000 0h-198v12c57 5 65 13 65 80v173c0 84 -31 127 -101 127c-33 0 -73 -19 -99 -51v-249c0 -65 7 -74 62 -80v-12h-194v12c53 6 60 15 60 80v549c-18 24 -53 47 -92 47c-31 0 -49 -15 -60 -32c-18 -23 -27 -73 -27 -173v-56h110c6 -11 5 -22 -8 -28h-102v-306
c0 -66 8 -75 69 -81v-12h-201v12c52 6 60 15 60 81v306h-179v-305c0 -67 8 -76 64 -82v-12h-197v12c52 6 61 15 61 81v306h-68l-1 6l24 22h45v15c0 31 5 59 11 84c8 28 31 81 89 126c35 26 69 43 114 48c52 -2 85 -24 103 -46c46 46 92 67 130 67c24 0 52 -11 65 -24
c20 5 40 15 58 24l4 -4v-354c34 35 82 75 136 76c81 2 136 -46 136 -171v-177c0 -66 8 -73 61 -79v-12zM344 427v23c0 61 5 106 34 162c-20 32 -57 57 -103 57c-36 0 -58 -19 -71 -38c-18 -23 -39 -73 -39 -173v-31h179z" />
    <glyph glyph-name="f_f_k" unicode="ffk" horiz-adv-x="979" 
d="M996 0l-121 -3c-43 44 -109 130 -157 195c-14 19 -22 26 -33 26c-6 0 -12 -1 -18 -2v-122c0 -69 7 -76 67 -82v-12h-204v12c58 6 65 13 65 82v547c-18 25 -53 47 -92 47c-31 0 -49 -15 -60 -31c-18 -24 -27 -74 -27 -174v-56h111c5 -9 2 -24 -7 -28h-104v-307
c0 -68 8 -73 69 -80v-12h-201v12c51 7 60 13 60 80v307h-179v-305c0 -69 7 -75 64 -82v-12h-197v12c53 7 61 13 61 81v306h-68l-2 6l25 22h45v14c0 31 5 61 12 86c8 27 27 78 88 125c35 26 69 43 114 48c51 -2 86 -24 104 -46c45 46 92 67 129 67c23 0 49 -10 64 -22
c15 2 38 12 58 22l5 -5v-485c32 8 50 21 65 36c22 21 52 58 74 92c28 40 18 47 -32 53v12l188 9v-12c-62 -9 -83 -22 -119 -60c-27 -27 -48 -51 -89 -100c24 -36 114 -151 154 -191c44 -44 56 -53 88 -58v-12zM344 427v23c0 61 5 106 34 162c-20 32 -58 57 -106 57
c-36 0 -57 -19 -71 -38c-16 -23 -36 -73 -36 -173v-31h179z" />
    <glyph glyph-name="f_f_t" unicode="fft" horiz-adv-x="799" 
d="M793 36l-74 -38c-13 -7 -23 -10 -30 -10c-63 0 -94 40 -94 116v295h-179v-307c0 -69 8 -73 66 -80v-12h-198v12c52 7 60 12 60 80v307h-179v-307c0 -68 8 -73 65 -80v-12h-198v12c53 7 61 12 61 80v307h-68l-3 7l26 21h45v17c0 29 5 61 9 78c8 31 29 83 91 131
c34 26 70 42 114 47c52 -2 85 -23 105 -48c46 48 92 69 131 69c31 0 58 -15 72 -31c10 -12 11 -23 6 -34c-4 -7 -11 -16 -21 -21c-8 -5 -13 -3 -20 5c-22 23 -52 42 -86 42c-24 0 -40 -12 -52 -30c-14 -20 -26 -73 -26 -185v-40h179v70l63 64l9 -2v-132h111
c7 -11 4 -22 -6 -28h-105v-266c0 -83 34 -99 59 -99c26 0 46 8 61 15zM344 427v27c0 57 4 102 33 157c-22 32 -60 57 -104 57c-36 0 -59 -20 -73 -37c-16 -20 -35 -72 -35 -174v-30h179z" />
    <glyph glyph-name="f_h" unicode="fh" horiz-adv-x="766" 
d="M749 0h-198v12c57 5 65 15 65 82v171c0 84 -31 127 -101 127c-33 0 -73 -18 -99 -51v-248c0 -64 7 -75 62 -81v-12h-195v12c54 6 61 15 61 81v547c-18 25 -52 47 -93 47c-31 0 -49 -19 -62 -36c-15 -21 -24 -77 -24 -165v-59h110c7 -11 2 -22 -8 -28h-102v-292
c0 -83 7 -88 62 -95v-12h-195v12c53 7 61 12 61 81v306h-68l-2 5l25 23h45v28c0 34 4 68 11 93c6 25 23 78 77 121c38 31 68 47 104 52c31 -1 56 -11 70 -24c21 6 39 15 56 24l5 -4v-354c34 36 82 75 136 76c82 2 136 -46 136 -171v-175c0 -67 8 -75 61 -81v-12z" />
    <glyph glyph-name="f_j" unicode="fj" horiz-adv-x="484" 
d="M166 427h68c75 0 136 2 183 11v-345c0 -54 -4 -100 -20 -148c-36 -104 -93 -176 -115 -201c-9 -10 -18 -14 -24 -14c-11 0 -29 15 -29 35c0 8 5 14 16 17c40 10 62 22 74 41c10 17 16 41 19 86c4 49 7 113 7 201v235c0 47 -2 54 -49 54h-130v-306c0 -69 7 -76 67 -81v-12
h-209v12c62 6 70 12 70 81v306h-71l-2 7l25 21h48v33c0 37 5 67 10 86c8 25 25 78 79 121c41 34 81 51 118 54c55 -2 85 -30 97 -47c8 -13 8 -25 5 -33c-4 -7 -12 -16 -19 -20c-10 -6 -17 -6 -24 3c-22 28 -53 59 -102 59c-28 0 -44 -12 -58 -31c-22 -27 -34 -93 -34 -171
v-54z" />
    <glyph glyph-name="f_f_j" unicode="ffj" horiz-adv-x="736" 
d="M417 427h68c75 0 133 2 183 11l1 -345c0 -54 -4 -100 -20 -148c-35 -104 -92 -176 -115 -201c-9 -10 -17 -14 -24 -14c-10 0 -28 15 -28 35c0 8 5 14 16 17c40 10 62 22 73 41c11 17 16 41 20 86c4 49 7 113 7 200l-1 237c0 46 -2 53 -50 53h-130v-304
c0 -70 9 -78 67 -83v-12h-203v12c56 6 64 12 64 82v305h-179v-305c0 -69 8 -75 65 -82v-12h-198v12c52 7 61 13 61 83v304h-68l-1 7l24 21h45v25c0 32 4 58 10 79c8 26 28 77 87 122c38 29 72 44 119 49c54 -2 90 -25 105 -48c46 42 98 66 137 67c55 -1 85 -29 98 -46
c9 -13 9 -24 6 -32c-4 -7 -13 -17 -21 -23c-10 -6 -18 -6 -29 7c-17 21 -47 56 -97 56c-26 0 -44 -11 -58 -30c-21 -27 -34 -93 -34 -170v-56zM345 427v39c0 34 5 65 10 83c4 16 9 35 23 57c-23 34 -60 60 -106 60c-38 0 -60 -16 -72 -33c-15 -22 -34 -72 -34 -168v-38h179z
" />
    <glyph glyph-name="f_k" unicode="fk" horiz-adv-x="728" 
d="M745 0l-121 -3c-44 45 -109 128 -157 195c-14 19 -22 26 -33 26c-6 0 -12 -1 -18 -2v-122c0 -69 7 -76 66 -82v-12h-203v12c58 6 65 13 65 82v549c-18 24 -50 42 -89 42c-34 0 -53 -18 -66 -36c-14 -21 -24 -76 -24 -163v-59h110c6 -7 5 -22 -4 -28h-106v-291
c0 -83 7 -89 62 -96v-12h-195v12c53 7 61 13 61 83v304h-68v5l23 23h45v28c0 34 4 68 11 93c6 24 23 78 77 121c38 31 68 47 104 52c29 -1 53 -10 68 -22c14 2 38 11 58 22l5 -6v-484c32 7 50 21 65 36c22 21 52 59 76 93c29 41 24 46 -34 52v12l188 9v-12
c-65 -12 -80 -23 -119 -61c-27 -27 -47 -50 -91 -98c26 -37 116 -151 156 -192c44 -44 57 -54 88 -58v-12z" />
    <glyph glyph-name="f_t" unicode="ft" horiz-adv-x="543" 
d="M542 36l-74 -38c-13 -7 -23 -10 -30 -10c-63 0 -94 40 -94 116v295h-179v-305c0 -69 7 -77 68 -82v-12h-206v12c58 6 66 13 66 82v305h-68l-3 7l23 21h48v36c0 38 4 67 9 85c7 23 25 77 79 120c38 31 70 48 110 53c33 -1 59 -16 73 -32c10 -12 11 -23 5 -34
c-3 -7 -10 -15 -20 -21c-8 -5 -13 -3 -21 5c-21 23 -52 39 -85 39c-24 0 -41 -12 -53 -29c-13 -19 -25 -74 -25 -192v-30h179v70l61 65l11 -3v-132h111c6 -9 3 -22 -6 -28h-105v-266c0 -83 34 -99 59 -99c26 0 46 8 61 15z" />
    <glyph glyph-name="T_h" unicode="Th" horiz-adv-x="1005" 
d="M988 0h-198v12c57 5 65 14 65 82v171c0 84 -31 127 -101 127c-34 0 -73 -18 -99 -50v-248c0 -66 7 -76 62 -82v-12h-197v12c56 6 63 15 63 82v528c-63 5 -115 5 -179 5h-65v-516c0 -84 8 -94 91 -99v-12h-258v12c80 5 89 15 89 99v516h-59c-98 0 -120 -7 -135 -36
c-10 -21 -19 -45 -30 -89h-14c6 56 10 121 12 171h10c12 -23 28 -25 53 -25h375c98 0 110 8 110 33v17c18 4 45 13 72 23v-358c34 36 82 75 136 76c81 2 136 -46 136 -170v-175c0 -69 8 -77 61 -82v-12z" />
    <glyph glyph-name="T_h.commaaccent" unicode="&#x162;h" horiz-adv-x="1005" 
d="M988 0h-198v12c57 5 65 14 65 82v171c0 84 -31 127 -101 127c-34 0 -73 -18 -99 -50v-248c0 -66 7 -76 62 -82v-12h-197v12c56 6 63 15 63 82v528c-63 5 -115 5 -179 5h-65v-516c0 -84 8 -94 91 -99v-12h-258v12c80 5 89 15 89 99v516h-59c-98 0 -120 -7 -135 -36
c-10 -21 -19 -45 -30 -89h-14c6 56 10 121 12 171h10c12 -23 28 -25 53 -25h375c98 0 110 8 110 33v17c18 4 45 13 72 23v-358c34 36 82 75 136 76c81 2 136 -46 136 -170v-175c0 -69 8 -77 61 -82v-12zM297 -34h1c23 0 54 -20 54 -60c0 -49 -44 -74 -83 -85l-5 14
c31 12 49 30 49 51c0 20 -17 31 -38 34c-6 1 -11 7 -11 17c0 18 15 29 33 29z" />
    <glyph glyph-name="T_h.caron" unicode="&#x164;h" horiz-adv-x="1005" 
d="M988 0h-198v12c57 5 65 14 65 82v171c0 84 -31 127 -101 127c-34 0 -73 -18 -99 -50v-248c0 -66 7 -76 62 -82v-12h-197v12c56 6 63 15 63 82v528c-63 5 -115 5 -179 5h-65v-516c0 -84 8 -94 91 -99v-12h-258v12c80 5 89 15 89 99v516h-59c-98 0 -120 -7 -135 -36
c-10 -21 -19 -45 -30 -89h-14c6 56 10 121 12 171h10c12 -23 28 -25 53 -25h375c98 0 110 8 110 33v17c18 4 45 13 72 23v-358c34 36 82 75 136 76c81 2 136 -46 136 -170v-175c0 -69 8 -77 61 -82v-12zM413 796l7 -9c-38 -27 -75 -64 -111 -102h-13c-36 38 -76 74 -113 102
l8 9c37 -15 75 -32 110 -55c36 23 75 40 112 55z" />
    <glyph glyph-name=".notdef" horiz-adv-x="500" 
d="M0 0v700h500v-700h-500zM250 395l170 255h-340zM280 350l170 -255v510zM80 50h340l-170 255zM50 605v-510l170 255z" />
    <glyph glyph-name="space" unicode=" " horiz-adv-x="180" 
 />
    <glyph glyph-name="exclam" unicode="!" horiz-adv-x="263" 
d="M130 662h1c31 0 47 -7 47 -28c0 -16 -3 -38 -7 -79c-13 -116 -21 -235 -31 -360c-5 -6 -15 -6 -19 0c-9 125 -19 244 -31 360c-4 41 -7 63 -7 79c0 21 17 28 47 28zM131 -12h-1c-25 0 -44 19 -44 48c0 25 19 47 45 47c27 0 46 -22 46 -47c0 -29 -19 -48 -46 -48z" />
    <glyph glyph-name="quotedbl" unicode="&#x22;" horiz-adv-x="255" 
d="M96 709l5 -4c-1 -18 -20 -158 -24 -189l-14 -9c-8 89 -20 166 -24 175zM212 709l4 -4c-1 -20 -18 -160 -23 -189l-13 -9c-11 89 -20 166 -24 175z" />
    <glyph glyph-name="numbersign" unicode="#" horiz-adv-x="457" 
d="M419 445l-8 -48h-87l-29 -130h85l-7 -48h-87l-34 -164h-23l33 164h-106l-34 -164h-24l35 164h-95l8 48h98l26 130h-92l7 48h95l30 147h24l-31 -147h106l30 147h24l-29 -147h85zM300 397h-106l-26 -130h104z" />
    <glyph glyph-name="dollar" unicode="$" horiz-adv-x="457" 
d="M246 361l35 -15c63 -26 127 -74 127 -159c0 -89 -60 -155 -162 -167v-85h-24v83c-57 0 -110 13 -150 41c-5 21 -16 76 -24 124l13 4c18 -60 62 -138 161 -149v250l-44 21c-56 26 -110 72 -110 143c0 76 51 144 154 156v77h24v-75c35 0 64 -6 87 -14c13 -4 22 -6 32 -8
c5 -33 10 -68 19 -118l-13 -3c-17 50 -40 112 -125 123v-229zM222 372v219c-66 -5 -95 -60 -95 -107c0 -51 32 -87 95 -112zM246 278v-239c64 7 96 55 96 112c0 45 -11 88 -84 122z" />
    <glyph glyph-name="percent" unicode="%" horiz-adv-x="659" 
d="M539 640l-395 -664l-18 15l392 665zM176 635h1c89 0 127 -100 127 -170s-37 -169 -128 -169c-90 0 -128 99 -128 168c0 71 38 171 128 171zM177 619h-1c-57 0 -66 -104 -66 -154c0 -47 9 -153 67 -153c59 0 66 107 66 152c0 50 -7 155 -66 155zM490 327h1
c88 0 127 -99 127 -169s-38 -169 -128 -169c-91 0 -130 99 -130 168c0 71 39 170 130 170zM490 312h-1c-58 0 -67 -103 -67 -154c0 -47 10 -153 69 -153c58 0 65 108 65 152c0 50 -8 155 -66 155z" />
    <glyph glyph-name="ampersand" unicode="&#x26;" horiz-adv-x="689" 
d="M694 423v-12c-69 -11 -81 -33 -113 -79c-32 -45 -58 -85 -91 -138c38 -39 136 -146 163 -205l-5 -6c-51 6 -101 28 -114 41c-12 15 -58 64 -93 104c-72 -98 -131 -140 -199 -140c-122 0 -188 92 -188 175c0 96 74 138 153 192c-53 49 -77 93 -77 147c0 88 76 158 155 158
c80 0 143 -57 143 -134c0 -44 -24 -73 -43 -87c-18 -15 -43 -33 -88 -62c33 -30 113 -100 179 -169c27 43 45 78 64 121c23 54 21 70 -53 82v12h207zM277 640h-1c-40 0 -81 -41 -81 -110c0 -56 33 -94 88 -141c49 34 76 74 76 136s-30 115 -82 115zM268 49h1
c66 0 126 49 158 95c-59 65 -126 130 -205 198c-69 -47 -91 -99 -91 -147c0 -102 75 -146 137 -146z" />
    <glyph glyph-name="quoteright" unicode="&#x2019;" horiz-adv-x="188" 
d="M73 709h1c33 0 75 -33 75 -82c0 -59 -53 -95 -104 -109l-5 11c38 18 64 39 64 78c0 34 -25 51 -54 57c-5 1 -9 5 -9 15c0 20 19 30 32 30z" />
    <glyph glyph-name="parenleft" unicode="(" horiz-adv-x="304" 
d="M269 -160l-10 -11c-143 103 -205 260 -205 440v1c0 179 62 336 205 440l10 -12c-103 -90 -155 -257 -155 -429s52 -340 155 -429z" />
    <glyph glyph-name="parenright" unicode=")" horiz-adv-x="304" 
d="M250 269v-1c0 -178 -62 -336 -205 -438l-10 10c104 90 155 257 155 429s-51 340 -155 430l10 11c143 -103 205 -261 205 -441z" />
    <glyph glyph-name="asterisk" unicode="*" horiz-adv-x="358" 
d="M322 515l-122 -26l34 -127l-11 -6l-66 120l-112 -68l-7 10l92 88l-93 96l7 9l111 -70l57 121l10 -3l-23 -128l123 -4v-12z" />
    <glyph glyph-name="plus" unicode="+" horiz-adv-x="516" 
d="M476 214h-195v-214h-44v214h-195v37h195v193h44v-193h195v-37z" />
    <glyph glyph-name="comma" unicode="," horiz-adv-x="197" 
d="M81 112h1c30 0 75 -34 75 -93c0 -65 -58 -101 -111 -118l-5 13c42 17 68 44 68 82c0 34 -26 56 -59 63c-3 0 -8 5 -8 18c0 21 20 35 39 35z" />
    <glyph glyph-name="hyphen" unicode="-" horiz-adv-x="330" 
d="M275 242l-14 -41h-206l14 41h206z" />
    <glyph glyph-name="period" unicode="." horiz-adv-x="197" 
d="M98 -12h-1c-25 0 -43 18 -43 46c0 24 18 45 44 45c25 0 44 -21 44 -45c0 -28 -19 -46 -44 -46z" />
    <glyph glyph-name="slash" unicode="/" horiz-adv-x="311" 
d="M273 662l-208 -706h-33l207 706h34z" />
    <glyph glyph-name="zero" unicode="0" horiz-adv-x="457" 
d="M227 635h1c145 0 196 -179 196 -323c0 -146 -51 -324 -197 -324c-145 0 -196 179 -196 323c0 146 52 324 196 324zM227 615h-1c-91 0 -114 -162 -114 -303c0 -142 24 -304 116 -304s115 162 115 303c0 142 -23 304 -116 304z" />
    <glyph glyph-name="one" unicode="1" horiz-adv-x="457" 
d="M368 0h-261v12c88 8 93 19 93 92v404c0 55 -4 60 -56 63l-36 2v10c58 10 118 30 167 52v-531c0 -75 5 -84 93 -92v-12z" />
    <glyph glyph-name="two" unicode="2" horiz-adv-x="457" 
d="M407 127l13 -6c-12 -31 -22 -76 -32 -121h-362v12c56 59 111 118 158 175c59 73 123 162 123 249s-43 141 -122 141c-72 0 -108 -53 -133 -90l-12 10l54 81c29 32 74 57 129 57c84 0 161 -59 161 -163c0 -86 -38 -142 -133 -246l-145 -160h203c52 0 67 3 98 61z" />
    <glyph glyph-name="three" unicode="3" horiz-adv-x="457" 
d="M270 381v-3c83 -17 135 -81 135 -152c0 -165 -187 -238 -255 -238c-41 0 -79 20 -89 30c-13 12 -18 21 -18 32c0 12 13 26 21 31c6 5 13 5 19 0c24 -24 65 -52 119 -52c75 0 125 50 125 160c0 100 -71 139 -127 139c-22 0 -45 -6 -58 -10l-4 15c93 31 152 68 152 147
c0 68 -45 103 -96 103c-57 0 -93 -36 -118 -74l-10 9l40 65c27 30 71 52 119 52h1c85 0 140 -55 140 -129c0 -28 -10 -50 -28 -70c-15 -16 -44 -39 -68 -55z" />
    <glyph glyph-name="four" unicode="4" horiz-adv-x="457" 
d="M435 182h-91v-85c0 -68 4 -77 80 -85v-12h-238v12c79 8 84 17 84 86v84h-251v20c94 140 202 296 303 433h22v-416h91v-37zM270 219v306h-2c-67 -91 -135 -192 -203 -306h205z" />
    <glyph glyph-name="five" unicode="5" horiz-adv-x="457" 
d="M132 557l-28 -206c42 18 98 39 123 39c122 0 184 -85 184 -166c0 -60 -26 -114 -84 -164c-52 -45 -117 -72 -170 -72c-45 0 -83 20 -94 31c-13 12 -18 20 -18 30c0 11 10 26 20 33c7 5 12 4 20 -3c23 -21 59 -51 120 -51c90 0 131 71 131 154c0 92 -52 160 -155 160
c-43 0 -81 -11 -104 -21l37 302h276l5 -8l-25 -58h-238z" />
    <glyph glyph-name="six" unicode="6" horiz-adv-x="457" 
d="M126 330l65 33c23 11 42 18 62 18c104 0 175 -81 175 -176c0 -116 -78 -217 -194 -217c-112 0 -200 92 -200 248c0 219 147 333 249 371c39 15 83 26 123 33l5 -17c-32 -6 -70 -19 -104 -36c-61 -29 -154 -99 -181 -257zM217 334h-1c-38 0 -70 -11 -95 -26
c-4 -22 -5 -48 -5 -78c0 -120 50 -222 129 -222c83 0 104 91 104 160c0 83 -41 166 -132 166z" />
    <glyph glyph-name="seven" unicode="7" horiz-adv-x="457" 
d="M428 623l5 -9c-91 -207 -181 -414 -275 -616l-62 -10l-5 9c108 176 211 368 294 560h-226c-66 0 -72 -5 -97 -73h-14c8 46 12 96 16 139h364z" />
    <glyph glyph-name="eight" unicode="8" horiz-adv-x="457" 
d="M236 635h1c91 0 156 -64 156 -146c0 -28 -9 -58 -27 -80c-8 -9 -34 -31 -86 -66c73 -43 135 -90 135 -174c0 -117 -110 -181 -190 -181c-100 0 -183 60 -183 167c0 47 22 75 45 96c21 19 57 44 92 64c-65 37 -113 88 -113 158c0 83 69 162 170 162zM229 615h-1
c-60 0 -94 -55 -94 -111c0 -80 63 -115 130 -152c35 27 62 68 62 136c0 93 -52 127 -97 127zM235 8h1c61 0 106 48 106 132c0 80 -72 122 -148 165c-45 -31 -79 -83 -79 -144c0 -100 56 -153 120 -153z" />
    <glyph glyph-name="nine" unicode="9" horiz-adv-x="457" 
d="M231 635h1c117 0 187 -114 187 -249c0 -176 -97 -310 -225 -367c-52 -23 -109 -33 -136 -33l-2 15c141 28 242 137 276 299l-69 -38c-21 -12 -39 -16 -59 -16c-104 0 -171 77 -171 180c0 93 72 209 198 209zM217 615h-1c-79 0 -104 -93 -104 -153c0 -93 46 -170 133 -170
c34 0 74 14 90 28c1 23 3 46 3 71c0 87 -21 224 -121 224z" />
    <glyph glyph-name="colon" unicode=":" horiz-adv-x="197" 
d="M98 391h1c24 0 43 -19 43 -45c0 -25 -19 -45 -44 -45c-26 0 -44 20 -44 45c0 26 18 45 44 45zM99 -12h-1c-25 0 -43 18 -43 46c0 24 18 45 44 45c25 0 44 -21 44 -45c0 -28 -19 -46 -44 -46z" />
    <glyph glyph-name="semicolon" unicode=";" horiz-adv-x="197" 
d="M97 391h1c24 0 43 -19 43 -45c0 -25 -19 -45 -44 -45c-26 0 -44 20 -44 45c0 26 18 45 44 45zM81 112h1c30 0 75 -34 75 -93c0 -65 -58 -101 -111 -118l-4 13c41 17 67 44 67 82c0 34 -26 56 -59 63c-3 1 -8 5 -8 19c0 20 20 34 39 34z" />
    <glyph glyph-name="less" unicode="&#x3c;" horiz-adv-x="506" 
d="M458 0l-409 212v38l409 213v-43l-364 -188v-1l364 -188v-43z" />
    <glyph glyph-name="equal" unicode="=" horiz-adv-x="516" 
d="M475 298h-433v37h433v-37zM475 130h-433v37h433v-37z" />
    <glyph glyph-name="greater" unicode="&#x3e;" horiz-adv-x="506" 
d="M458 212l-409 -212v43l364 188v1l-364 188v43l409 -213v-38z" />
    <glyph glyph-name="question" unicode="?" horiz-adv-x="335" 
d="M187 203l-7 -12c-38 15 -111 70 -111 128c0 30 18 61 79 110c33 26 99 72 99 120c0 37 -24 59 -63 59c-58 0 -98 -51 -107 -51c-11 0 -37 17 -37 38c0 12 6 20 19 32c29 24 66 35 81 35h1c76 0 149 -80 149 -157c0 -32 -9 -57 -41 -87c-28 -26 -108 -76 -108 -125
c0 -42 18 -63 46 -90zM156 -12h-1c-26 0 -45 19 -45 48c0 26 19 47 46 47s46 -21 46 -47c0 -29 -19 -48 -46 -48z" />
    <glyph glyph-name="at" unicode="@" horiz-adv-x="718" 
d="M516 -27l7 -13c-69 -45 -128 -57 -191 -57c-151 0 -287 106 -287 304c0 229 180 366 366 366c166 0 266 -114 266 -255c0 -134 -99 -245 -226 -245c-51 0 -51 31 -44 67l14 68l-2 1c-32 -51 -122 -137 -165 -137c-23 0 -44 25 -44 81c0 58 21 132 77 188
c42 42 94 75 156 75c14 0 35 -5 47 -8c10 -2 20 -4 26 -4c-16 -65 -31 -145 -46 -225c-11 -57 -7 -75 18 -74c85 2 157 80 157 210c0 142 -99 231 -238 231c-187 0 -310 -143 -310 -334c0 -134 76 -277 262 -277c66 0 130 21 157 38zM400 387h-1c-27 0 -47 -13 -62 -31
c-31 -34 -59 -106 -59 -178c0 -42 10 -53 22 -53c20 0 75 43 127 125c11 38 22 94 28 127c-11 5 -35 10 -55 10z" />
    <glyph glyph-name="A" unicode="A" horiz-adv-x="654" 
d="M646 0h-234v12c56 8 71 16 58 58c-12 42 -35 104 -64 185h-205c-22 -62 -38 -112 -53 -158c-22 -67 -13 -78 63 -85v-12h-199v12c59 6 73 18 107 106l211 538l16 6c63 -180 127 -362 194 -546c32 -88 46 -98 106 -104v-12zM398 282l-88 258h-2c-34 -86 -67 -177 -97 -258
h187z" />
    <glyph glyph-name="B" unicode="B" horiz-adv-x="554" 
d="M334 349v-2c108 -15 188 -63 188 -160c0 -66 -35 -115 -91 -148c-48 -28 -113 -39 -191 -39h-208v12c80 6 88 14 88 101v424c0 86 -5 93 -79 99v12h237c75 0 121 -12 150 -34c34 -24 54 -65 54 -112c0 -96 -82 -137 -148 -153zM198 353h39c121 0 159 50 159 136
c0 70 -34 140 -131 140c-20 0 -39 -3 -52 -7c-12 -5 -15 -17 -15 -55v-214zM198 335v-215c0 -78 22 -99 81 -99c82 0 151 48 151 156c0 104 -61 158 -193 158h-39z" />
    <glyph glyph-name="C" unicode="C" horiz-adv-x="643" 
d="M608 160l12 -4c-12 -39 -36 -108 -55 -144c-26 -6 -105 -26 -172 -26c-249 0 -356 171 -356 332c0 208 154 344 377 344c80 0 147 -21 172 -25c8 -55 12 -95 18 -137l-13 -4c-25 105 -96 145 -200 145c-173 0 -260 -147 -260 -304c0 -190 100 -330 265 -330
c109 0 169 68 212 153z" />
    <glyph glyph-name="D" unicode="D" horiz-adv-x="707" 
d="M38 648h271c126 0 218 -27 276 -84c52 -50 84 -122 84 -215c0 -119 -46 -208 -119 -265c-74 -58 -179 -84 -295 -84h-225v12c82 6 90 15 90 101v422c0 90 -8 96 -82 102v11zM199 557v-438c0 -83 41 -96 101 -96c192 0 277 148 277 311c0 115 -41 210 -129 259
c-45 26 -103 36 -166 36c-31 0 -54 -3 -68 -8c-10 -5 -15 -14 -15 -64z" />
    <glyph glyph-name="E" unicode="E" horiz-adv-x="530" 
d="M501 150l14 -3c-6 -33 -24 -111 -34 -147h-456v12c87 7 95 15 95 101v416c0 95 -8 99 -80 107v12h421c0 -33 4 -97 7 -131l-14 -3c-9 40 -19 64 -32 81c-19 26 -46 32 -127 32h-67c-28 0 -30 -4 -30 -31v-249h99c92 0 97 13 108 76h12v-181h-12c-11 68 -18 80 -106 80
h-101v-207c0 -47 6 -67 22 -79c19 -15 53 -15 102 -15c93 0 112 11 134 38c17 23 33 59 45 91z" />
    <glyph glyph-name="F" unicode="F" horiz-adv-x="494" 
d="M464 512l-14 -2c-6 29 -13 51 -24 71c-18 36 -40 46 -133 46h-64c-28 0 -31 -4 -31 -31v-258h108c91 0 98 15 107 74h13v-179h-13c-10 63 -16 80 -107 80h-108v-198c0 -90 8 -97 90 -103v-12h-253v12c77 6 85 13 85 103v419c0 89 -7 96 -78 102v12h414
c0 -33 4 -97 8 -136z" />
    <glyph glyph-name="G" unicode="G" horiz-adv-x="686" 
d="M668 292v-12c-56 -7 -61 -16 -61 -75v-89c0 -36 1 -69 9 -95c-60 -13 -135 -35 -215 -35c-215 0 -363 132 -363 332c0 227 179 344 379 344c81 0 149 -21 180 -26c3 -34 8 -85 15 -145l-14 -4c-18 112 -95 153 -200 153c-156 0 -267 -123 -267 -309
c0 -147 81 -324 278 -324c37 0 68 7 89 16c20 10 31 25 31 65v107c0 71 -6 78 -96 85v12h235z" />
    <glyph glyph-name="H" unicode="H" horiz-adv-x="738" 
d="M701 648v-12c-76 -7 -83 -15 -83 -101v-422c0 -86 8 -94 85 -101v-12h-250v12c78 7 87 15 87 101v216h-342v-216c0 -86 8 -94 85 -101v-12h-244v12c73 7 81 15 81 101v422c0 86 -8 94 -81 101v12h236v-12c-69 -7 -77 -15 -77 -101v-179h342v179c0 86 -9 94 -80 101v12
h241z" />
    <glyph glyph-name="I" unicode="I" horiz-adv-x="318" 
d="M285 0h-251v12c78 6 86 15 86 101v422c0 86 -8 95 -86 101v12h251v-12c-79 -6 -87 -15 -87 -101v-422c0 -86 8 -95 87 -101v-12z" />
    <glyph glyph-name="J" unicode="J" horiz-adv-x="301" 
d="M283 648v-12c-74 -6 -82 -15 -82 -101v-395c0 -109 -14 -172 -80 -239c-34 -34 -70 -57 -87 -64l-7 12c51 29 76 74 86 126c9 48 10 110 10 200v360c0 86 -8 95 -83 101v12h243z" />
    <glyph glyph-name="K" unicode="K" horiz-adv-x="637" 
d="M639 0h-145c-86 98 -177 201 -255 292c-20 24 -29 30 -41 30v-201c0 -93 8 -103 84 -109v-12h-241v12c70 6 79 16 79 109v406c0 96 -9 103 -79 109v12h237v-12c-72 -6 -80 -13 -80 -109v-191c16 6 37 22 59 44c53 52 142 140 184 191c38 45 34 56 -18 63l-19 2v12h216
v-12c-70 -7 -86 -16 -157 -83c-38 -36 -113 -108 -188 -184c79 -95 193 -220 241 -273c61 -65 72 -77 123 -84v-12z" />
    <glyph glyph-name="L" unicode="L" horiz-adv-x="509" 
d="M485 151l14 -3c-7 -25 -25 -113 -35 -148h-430v12c78 6 86 15 86 103v421c0 89 -5 94 -80 100v12h237v-12c-71 -6 -79 -11 -79 -100v-413c0 -57 4 -78 21 -89c19 -11 51 -13 97 -13c65 0 98 6 120 32c18 22 35 53 49 98z" />
    <glyph glyph-name="M" unicode="M" horiz-adv-x="859" 
d="M831 0h-251v12c79 9 83 16 82 121l-4 422h-4l-244 -553h-10l-230 540h-2l-15 -285c-4 -74 -5 -129 -4 -177c1 -54 21 -61 86 -68v-12h-211v12c60 7 76 23 83 62c7 40 11 81 19 184l15 212c9 146 2 155 -88 166v12h145l237 -523l238 523h148v-12c-87 -10 -94 -17 -91 -117
l10 -386c3 -105 6 -112 91 -121v-12z" />
    <glyph glyph-name="N" unicode="N" horiz-adv-x="711" 
d="M685 648v-12c-55 -5 -74 -16 -78 -68c-2 -31 -4 -73 -4 -162v-418h-16l-437 541h-2v-273c0 -96 3 -144 6 -171c5 -57 24 -67 90 -73v-12h-211v12c58 5 79 16 84 73c2 27 6 75 6 171v230c0 77 -3 87 -21 109c-23 27 -34 36 -86 41v12h136l424 -514h2v273
c0 88 -2 131 -5 160c-5 52 -24 64 -93 69v12h205z" />
    <glyph glyph-name="O" unicode="O" horiz-adv-x="718" 
d="M364 662h1c168 0 316 -134 316 -329c0 -209 -147 -347 -328 -347c-180 0 -316 144 -316 330c0 178 122 346 327 346zM345 640h-1c-113 0 -214 -104 -214 -296c0 -195 99 -336 245 -336c116 0 213 103 213 295c0 215 -101 337 -243 337z" />
    <glyph glyph-name="P" unicode="P" horiz-adv-x="533" 
d="M43 648h233c68 0 126 -12 163 -40c39 -30 63 -76 63 -140c0 -130 -98 -190 -192 -202c-13 -2 -30 -2 -39 0l-73 20v-176c0 -84 8 -91 88 -98v-12h-248v12c74 7 82 15 82 100v425c0 87 -7 94 -77 100v11zM198 563v-259c13 -5 40 -10 69 -10c63 0 146 34 146 173
c0 112 -65 163 -151 163c-27 0 -47 -5 -53 -11c-8 -6 -11 -20 -11 -56z" />
    <glyph glyph-name="Q" unicode="Q" horiz-adv-x="716" 
d="M695 -141l-3 -10c-50 -3 -98 3 -126 12c-27 8 -104 43 -216 125c-62 2 -157 23 -226 97c-54 58 -87 143 -87 232c0 184 124 347 331 347c165 0 313 -134 313 -329c0 -174 -103 -292 -227 -333c62 -44 144 -97 241 -141zM344 8l68 22c7 -5 15 -10 22 -16
c77 26 154 123 154 282c0 219 -101 344 -243 344c-114 0 -215 -105 -215 -297c0 -177 80 -311 214 -335z" />
    <glyph glyph-name="R" unicode="R" horiz-adv-x="586" 
d="M605 4l-2 -11c-8 0 -17 0 -25 1c-86 4 -125 30 -166 89c-36 52 -72 115 -104 165c-19 31 -35 45 -85 45h-25v-180c0 -86 8 -95 84 -101v-12h-247v12c77 6 85 15 85 101v426c0 85 -8 90 -81 97v12h234c74 0 121 -9 158 -35c36 -25 61 -68 61 -127
c0 -85 -57 -138 -131 -170c18 -36 61 -104 91 -148c35 -51 62 -86 85 -113c29 -35 45 -45 68 -51zM198 311h43c50 0 82 6 109 27c37 30 55 72 55 132c0 110 -64 159 -141 159c-26 0 -48 -3 -55 -7c-8 -5 -11 -14 -11 -47v-264z" />
    <glyph glyph-name="S" unicode="S" horiz-adv-x="443" 
d="M386 512l-13 -3c-19 67 -55 133 -139 133c-76 0 -114 -54 -114 -118c0 -77 50 -112 129 -156c78 -43 166 -88 166 -199c0 -96 -84 -183 -213 -183c-41 0 -71 9 -93 15c-27 9 -42 15 -52 20c-7 16 -22 121 -24 150l13 5c14 -65 64 -167 171 -167c78 0 123 53 123 128
s-55 111 -128 154c-56 33 -162 84 -162 197c0 93 74 174 198 174c57 0 94 -14 121 -21c3 -36 9 -75 17 -129z" />
    <glyph glyph-name="T" unicode="T" horiz-adv-x="585" 
d="M565 505l-14 -2c-10 44 -20 69 -29 87c-15 27 -35 37 -122 37h-68v-516c0 -78 7 -94 95 -99v-12h-265v12c84 5 92 21 92 99v516h-53c-99 0 -121 -10 -135 -38c-10 -19 -19 -45 -29 -87h-14c6 56 10 120 12 171h10c12 -23 28 -25 54 -25h395c25 0 35 6 50 25h11
c0 -42 4 -112 10 -168z" />
    <glyph glyph-name="U" unicode="U" horiz-adv-x="702" 
d="M680 648v-12c-60 -7 -78 -19 -82 -67c-2 -25 -5 -70 -5 -159v-100c0 -112 -16 -195 -71 -255c-43 -46 -106 -67 -173 -67c-55 0 -111 14 -150 45c-62 48 -87 123 -87 233v261c0 98 -8 101 -80 109v12h239v-12c-73 -4 -81 -13 -81 -109v-236c0 -132 38 -262 190 -262
c166 0 188 160 188 299v83c0 88 -2 133 -7 164c-5 43 -19 54 -88 61v12h207z" />
    <glyph glyph-name="V" unicode="V" horiz-adv-x="661" 
d="M653 648v-12c-66 -8 -78 -18 -114 -107c-32 -76 -136 -334 -211 -544h-16c-67 187 -138 380 -203 551c-32 86 -43 95 -102 100v12h231v-12c-66 -8 -73 -17 -58 -62c24 -72 97 -269 169 -455h3c37 92 115 294 161 439c19 59 13 67 -66 78v12h206z" />
    <glyph glyph-name="W" unicode="W" horiz-adv-x="920" 
d="M916 648v-12c-68 -11 -77 -17 -108 -111c-25 -76 -82 -257 -164 -540h-16c-54 164 -138 397 -179 511h-2c-57 -179 -112 -346 -163 -511h-16c-53 183 -109 366 -165 546c-27 88 -39 96 -99 105v12h231v-12c-72 -10 -73 -20 -56 -81c38 -138 80 -278 125 -422h2
c52 165 111 340 161 506h15c57 -170 117 -340 179 -507h2c44 136 99 337 116 415c15 66 14 79 -73 89v12h210z" />
    <glyph glyph-name="X" unicode="X" horiz-adv-x="618" 
d="M625 0h-247v12c62 8 73 16 53 53c-29 51 -81 136 -140 235c-57 -90 -99 -162 -129 -221c-25 -48 -16 -56 55 -67v-12h-213v12c54 7 79 16 109 59c26 37 65 94 165 248c-54 89 -103 170 -145 238c-39 63 -44 70 -112 79v12h230v-12c-63 -7 -65 -17 -51 -41
c39 -69 79 -132 125 -206c56 87 81 132 105 177c30 52 21 59 -55 70v12h218v-12c-73 -9 -85 -18 -130 -78c-27 -38 -64 -93 -126 -190c55 -88 112 -184 163 -263c46 -73 56 -85 125 -93v-12z" />
    <glyph glyph-name="Y" unicode="Y" horiz-adv-x="585" 
d="M587 648v-12c-68 -9 -73 -20 -102 -64c-56 -87 -91 -150 -138 -240c-17 -32 -18 -44 -18 -72v-146c0 -87 8 -96 93 -102v-12h-260v12c81 6 89 15 89 102v145c0 20 -3 31 -19 62c-24 48 -61 119 -121 226c-43 77 -48 86 -106 89v12h223v-12c-66 -10 -67 -21 -52 -50
c46 -92 98 -187 140 -265c36 66 99 183 128 246c24 53 16 61 -58 69v12h201z" />
    <glyph glyph-name="Z" unicode="Z" horiz-adv-x="568" 
d="M547 165l13 -3c-6 -33 -24 -115 -34 -162h-496l-4 10c137 203 277 408 412 616h-182c-121 0 -134 -10 -151 -45c-10 -20 -17 -42 -28 -81l-12 1c4 47 10 134 11 172h12c11 -23 24 -25 51 -25h395l4 -9c-137 -202 -273 -403 -405 -611c25 -4 81 -6 159 -6
c146 0 179 8 206 42c17 23 33 57 49 101z" />
    <glyph glyph-name="bracketleft" unicode="[" horiz-adv-x="304" 
d="M270 -163h-156v866h156v-12c-105 -9 -107 -19 -107 -98v-647c0 -78 2 -87 107 -97v-12z" />
    <glyph glyph-name="backslash" unicode="\" horiz-adv-x="312" 
d="M274 -44h-34l-198 706h34z" />
    <glyph glyph-name="bracketright" unicode="]" horiz-adv-x="304" 
d="M191 -164h-156v12c104 11 107 21 107 100v645c0 79 -3 89 -107 98v12h156v-867z" />
    <glyph glyph-name="asciicircum" unicode="^" horiz-adv-x="488" 
d="M438 246h-45l-150 321l-152 -321h-41l179 377h30z" />
    <glyph glyph-name="underscore" unicode="_" horiz-adv-x="500" 
d="M500 -125h-500v50h500v-50z" />
    <glyph glyph-name="quoteleft" unicode="&#x2018;" horiz-adv-x="191" 
d="M145 715l6 -11c-40 -18 -66 -40 -66 -79c0 -34 27 -51 54 -57c5 0 11 -5 11 -15c0 -20 -21 -30 -33 -30h-1c-34 0 -77 32 -77 82c0 59 55 94 106 110z" />
    <glyph glyph-name="a" unicode="a" horiz-adv-x="407" 
d="M403 39l-74 -51c-17 0 -38 8 -49 20c-11 11 -17 27 -22 45c-35 -25 -89 -65 -111 -65c-70 0 -115 60 -115 114c0 47 24 74 75 92c55 19 124 44 150 64v25c0 80 -32 121 -84 121c-18 0 -33 -7 -43 -19c-12 -13 -21 -34 -30 -66c-4 -16 -11 -22 -24 -22
c-16 0 -38 17 -38 38c0 12 10 22 28 35c29 21 95 58 144 69c27 0 54 -9 74 -25c34 -30 44 -70 44 -124v-191c0 -41 17 -57 36 -57c13 0 24 4 33 11zM257 73v165c-19 -11 -66 -32 -88 -43c-37 -18 -59 -37 -59 -75c0 -53 39 -81 73 -81c22 0 54 13 74 34z" />
    <glyph glyph-name="b" unicode="b" horiz-adv-x="483" 
d="M139 393l86 37c13 6 26 9 36 9c104 0 190 -91 190 -207c0 -141 -112 -244 -241 -244c-37 0 -91 8 -143 34v577c0 65 -4 71 -65 78v9c50 5 103 22 137 35v-328zM139 376v-266c0 -14 1 -25 5 -36c8 -24 38 -62 90 -62c91 0 135 84 135 196c0 113 -64 185 -154 185
c-30 0 -59 -8 -76 -17z" />
    <glyph glyph-name="c" unicode="c" horiz-adv-x="394" 
d="M376 102l8 -11c-43 -57 -104 -103 -161 -103c-119 0 -191 99 -191 201c0 75 30 141 99 195c48 38 106 55 141 55h1c35 0 67 -13 83 -27c11 -10 15 -18 15 -28c0 -19 -18 -35 -27 -35c-6 0 -9 2 -20 12c-26 25 -59 39 -98 39c-66 0 -124 -47 -124 -161
c0 -145 99 -192 153 -192c44 0 76 10 121 55z" />
    <glyph glyph-name="d" unicode="d" horiz-adv-x="499" 
d="M490 35v-10c-23 -4 -91 -16 -143 -37v67l-59 -36c-42 -25 -65 -31 -79 -31c-76 0 -177 72 -177 208c0 134 115 243 247 243c17 0 43 -1 68 -10v172c0 64 -5 71 -73 76v9c47 6 109 22 145 35v-618c0 -51 4 -59 41 -64zM347 75v285c-23 38 -63 54 -102 54
c-53 0 -131 -46 -131 -191c0 -120 71 -183 139 -183c35 0 72 17 94 35z" />
    <glyph glyph-name="e" unicode="e" horiz-adv-x="396" 
d="M366 98l8 -10c-57 -80 -127 -100 -153 -100c-121 0 -189 98 -189 209c0 67 23 125 64 170c40 43 93 72 141 72h1c80 0 139 -72 139 -138c0 -16 -5 -21 -21 -25c-15 -3 -133 -12 -254 -16c-2 -156 83 -212 155 -212c34 0 71 14 109 50zM210 413h-1
c-44 0 -90 -45 -102 -125c58 0 114 0 173 2c13 0 19 6 19 17c1 52 -27 106 -89 106z" />
    <glyph glyph-name="f" unicode="f" horiz-adv-x="272" 
d="M50 427h45v36c0 35 3 66 10 88c6 21 24 75 80 121c34 28 64 44 104 49c30 -1 57 -15 70 -30c10 -11 11 -22 6 -33c-3 -7 -9 -14 -18 -20c-8 -6 -14 -4 -21 4c-23 23 -50 37 -84 37c-24 0 -40 -12 -52 -28c-15 -21 -24 -77 -23 -165v-59h115c3 -7 1 -22 -8 -28h-107v-292
c0 -83 6 -88 83 -95v-12h-223v12c60 7 68 12 68 81v306h-68l-1 6z" />
    <glyph glyph-name="g" unicode="g" horiz-adv-x="432" 
d="M432 427l4 -6c-9 -16 -27 -37 -43 -46l-58 2c22 -22 33 -57 33 -92c0 -111 -91 -162 -164 -162c-20 0 -36 2 -52 6c-11 -7 -28 -29 -28 -43c0 -23 21 -41 64 -41c30 0 67 1 102 1c54 0 132 -19 132 -115c0 -97 -106 -201 -237 -201c-106 0 -162 63 -165 119
c-1 22 8 38 21 51c19 20 63 58 91 81c-38 10 -66 36 -78 59c-8 13 -11 30 -10 40c40 13 76 36 90 55c-51 21 -92 72 -92 137c0 115 96 167 169 167h1c31 0 61 -10 90 -28c51 3 105 10 130 16zM200 421h-1c-41 0 -79 -43 -79 -128c0 -89 36 -150 94 -150c40 3 79 35 79 126
c0 87 -34 152 -93 152zM220 -18h-1c-42 0 -64 -5 -81 -21c-26 -22 -50 -51 -50 -86c0 -57 59 -104 131 -104c100 0 144 51 144 118c0 38 -17 67 -47 79c-24 10 -54 14 -96 14z" />
    <glyph glyph-name="h" unicode="h" horiz-adv-x="502" 
d="M484 0h-198v12c57 5 65 14 65 81v172c0 84 -30 127 -97 127c-36 0 -74 -19 -103 -50v-249c0 -67 7 -76 62 -81v-12h-197v12c56 5 63 13 63 81v507c0 66 -2 71 -64 77v9c45 7 104 23 136 35v-358c35 35 86 76 143 76c74 0 129 -46 129 -170v-176c0 -69 8 -76 61 -81v-12z
" />
    <glyph glyph-name="i" unicode="i" horiz-adv-x="246" 
d="M125 641h1c22 0 40 -18 40 -42c0 -23 -18 -42 -41 -42c-21 0 -40 19 -40 41c0 25 19 43 40 43zM234 0h-207v12c59 6 67 13 67 82v219c0 62 -5 67 -58 78v11c40 7 86 19 130 39v-347c0 -69 7 -76 68 -82v-12z" />
    <glyph glyph-name="j" unicode="j" horiz-adv-x="231" 
d="M121 641h1c22 0 40 -18 40 -42c0 -23 -18 -42 -41 -42c-22 0 -40 19 -40 42c0 24 18 42 40 42zM30 392v10c46 7 95 21 133 39v-348c0 -54 -4 -100 -20 -148c-35 -104 -96 -178 -122 -202c-9 -9 -18 -13 -24 -13c-11 0 -29 15 -29 35c0 8 5 14 16 17c40 10 66 22 81 46
c9 17 16 49 20 87c4 43 6 107 6 194v202c0 64 -5 71 -61 81z" />
    <glyph glyph-name="k" unicode="k" horiz-adv-x="461" 
d="M476 0l-121 -3c-33 38 -105 127 -156 195c-14 18 -21 26 -32 26c-4 0 -10 0 -16 -2v-122c0 -69 7 -77 67 -82v-12h-206v12c60 5 67 13 67 82v503c0 66 -5 75 -61 80v9c43 5 96 21 133 35v-490c29 6 46 18 63 36c21 22 50 58 74 93c28 39 20 46 -34 52v12l188 9v-12
c-68 -12 -78 -17 -119 -59c-27 -29 -48 -52 -89 -100c28 -38 117 -152 154 -191c45 -47 57 -56 88 -59v-12z" />
    <glyph glyph-name="l" unicode="l" horiz-adv-x="230" 
d="M218 0h-206v12c60 6 67 13 67 82v503c0 70 -4 74 -65 80v9c44 7 107 22 137 35v-627c0 -69 7 -76 67 -82v-12z" />
    <glyph glyph-name="m" unicode="m" horiz-adv-x="773" 
d="M754 0h-203v12c61 6 70 11 70 89v169c0 72 -20 119 -90 119c-32 0 -67 -16 -105 -46c3 -12 4 -24 4 -46v-204c0 -68 7 -75 61 -81v-12h-202v12c62 6 69 13 69 81v179c0 74 -22 118 -91 118c-36 0 -72 -22 -101 -46v-251c0 -68 7 -75 58 -81v-12h-203v12c62 5 73 13 73 81
v218c0 63 -5 69 -57 80v10c36 8 83 20 129 41v-78c20 14 40 29 67 45c30 19 54 30 81 30c46 0 88 -29 107 -80c28 21 59 40 83 54c24 15 47 26 71 26c74 0 118 -53 118 -146v-200c0 -73 6 -75 61 -81v-12z" />
    <glyph glyph-name="n" unicode="n" horiz-adv-x="515" 
d="M494 0h-200v12c61 6 70 13 70 93v168c0 65 -20 117 -91 117c-38 0 -80 -26 -107 -50v-246c0 -69 7 -76 63 -82v-12h-208v12c65 6 73 13 73 83v217c0 62 -5 66 -57 79v10c40 8 84 20 129 41v-81c20 15 45 33 70 49c29 18 49 29 77 29c78 0 123 -54 123 -146v-198
c0 -70 5 -77 58 -83v-12z" />
    <glyph glyph-name="o" unicode="o" horiz-adv-x="484" 
d="M243 439h1c122 0 208 -99 208 -218c0 -155 -111 -233 -209 -233c-132 0 -211 107 -211 217c0 160 124 234 211 234zM233 419h-1c-67 0 -114 -70 -114 -181c0 -132 51 -230 136 -230c63 0 112 48 112 194c0 114 -44 217 -133 217z" />
    <glyph glyph-name="p" unicode="p" horiz-adv-x="494" 
d="M156 371l89 51c23 13 38 17 47 17c109 0 170 -91 170 -182c0 -145 -114 -244 -242 -269c-25 1 -52 9 -64 17v-146c0 -90 8 -94 80 -101v-12h-222v12c59 7 70 11 70 82v478c0 65 -5 67 -62 78v10c37 7 89 23 134 43v-78zM156 349v-283c22 -24 61 -37 96 -37
c79 0 135 72 135 189c0 106 -60 172 -135 172c-33 0 -69 -21 -96 -41z" />
    <glyph glyph-name="q" unicode="q" horiz-adv-x="483" 
d="M491 -254h-223v12c71 6 76 14 76 92v181l-105 -43c-137 0 -205 110 -205 206c0 135 128 246 253 245c34 -1 60 -8 73 -14c11 -4 18 -5 23 -4c6 1 19 4 33 11l3 -3c-1 -21 -3 -40 -3 -105v-476c0 -78 5 -81 75 -90v-12zM344 51v316c-22 26 -67 41 -97 41
c-76 0 -132 -65 -132 -182s77 -191 160 -191c35 0 55 7 69 16z" />
    <glyph glyph-name="r" unicode="r" horiz-adv-x="342" 
d="M167 333h2c23 42 69 106 116 106c31 0 52 -25 52 -46c0 -16 -12 -31 -29 -41c-11 -5 -19 -4 -24 1c-15 15 -26 22 -43 22c-23 0 -48 -23 -74 -78v-203c0 -69 5 -76 80 -82v-12h-217v12c57 6 65 13 65 82v219c0 66 -5 71 -60 79v9c44 7 84 19 132 41v-109z" />
    <glyph glyph-name="s" unicode="s" horiz-adv-x="336" 
d="M295 323l-10 -3c-18 53 -55 98 -108 98c-40 0 -67 -30 -67 -71c0 -50 42 -76 83 -94c75 -32 119 -69 119 -131c0 -87 -79 -134 -155 -134c-50 0 -89 18 -105 29c-7 13 -16 80 -17 113l11 4c18 -65 67 -125 128 -125c39 0 72 26 72 74c0 46 -29 73 -81 97
c-54 26 -116 61 -116 133c0 69 58 126 144 126c39 0 65 -8 84 -16c7 -23 16 -78 18 -100z" />
    <glyph glyph-name="t" unicode="t" horiz-adv-x="282" 
d="M279 36l-73 -38c-13 -7 -23 -10 -30 -10c-63 0 -94 40 -94 116v295h-65l-2 7l25 21h42v80l62 62l10 -2v-140h110c8 -11 5 -22 -5 -28h-105v-266c0 -83 34 -99 60 -99c25 0 45 8 59 15z" />
    <glyph glyph-name="u" unicode="u" horiz-adv-x="500" 
d="M489 35v-12c-20 -2 -46 -9 -70 -16c-25 -6 -48 -14 -64 -19l-6 6v75c-21 -18 -45 -37 -73 -55c-29 -18 -52 -26 -75 -26c-66 0 -118 39 -118 139v213c0 49 -7 55 -34 61l-23 6v10c18 1 41 4 65 6c24 3 49 7 67 11c-2 -23 -3 -56 -3 -138v-140c0 -89 40 -115 85 -115
c34 0 78 16 109 50v248c0 49 -9 56 -42 62l-31 6v10c27 1 54 4 79 6c27 3 49 7 66 11v-338c0 -48 8 -55 44 -59z" />
    <glyph glyph-name="v" unicode="v" horiz-adv-x="431" 
d="M449 427v-12c-48 -7 -56 -16 -85 -81c-31 -71 -86 -201 -139 -346h-15c-43 120 -89 235 -136 352c-23 59 -25 66 -80 75v12h191v-12c-52 -8 -53 -18 -38 -60c27 -76 65 -177 97 -259c38 92 70 183 91 250c16 52 9 63 -50 69v12h164z" />
    <glyph glyph-name="w" unicode="w" horiz-adv-x="645" 
d="M657 427v-12c-49 -7 -55 -21 -74 -72c-26 -68 -76 -222 -120 -355h-16c-36 102 -79 203 -123 315c-40 -107 -78 -205 -116 -315h-16c-37 121 -77 241 -118 363c-17 52 -23 58 -69 64v12h195v-12c-63 -10 -66 -17 -52 -62c24 -80 51 -160 81 -245h2c35 97 73 202 112 314
h14c37 -104 78 -209 122 -320h2c24 80 50 163 70 245c12 51 5 57 -60 68v12h166z" />
    <glyph glyph-name="x" unicode="x" horiz-adv-x="442" 
d="M451 0h-202v12c44 5 55 13 37 41l-82 133c-24 -37 -46 -73 -69 -117c-21 -39 -16 -50 41 -57v-12h-176v12c61 8 71 17 111 71c29 37 55 79 81 121l-86 139c-35 57 -46 65 -96 72v12h191v-12c-50 -7 -50 -17 -32 -44l67 -106c24 35 43 67 64 105c19 34 10 39 -41 45v12
h170v-12c-58 -8 -69 -14 -105 -58c-19 -25 -47 -64 -77 -110l101 -159c37 -59 46 -67 103 -76v-12z" />
    <glyph glyph-name="y" unicode="y" horiz-adv-x="426" 
d="M445 427v-12c-51 -9 -57 -15 -85 -73c-26 -58 -55 -142 -126 -315c-64 -157 -88 -219 -102 -273c-5 -19 -17 -24 -28 -24c-23 0 -47 21 -47 42c0 14 11 23 26 34c31 20 50 47 78 101c20 40 29 62 35 78c5 15 2 24 -4 41c-39 117 -84 234 -112 307c-24 64 -30 73 -83 82
v12h190v-12c-47 -8 -53 -16 -37 -60l93 -256c27 68 73 202 90 255c13 41 7 53 -54 61v12h166z" />
    <glyph glyph-name="z" unicode="z" horiz-adv-x="387" 
d="M367 126l13 -7c-12 -34 -27 -78 -42 -119h-311l-5 9c84 131 162 257 243 397h-77c-86 0 -99 -17 -129 -73l-14 -27l-12 5c8 31 23 94 32 136h11c6 -15 17 -21 54 -20h222l5 -9c-79 -129 -157 -255 -239 -398h102c76 0 95 18 133 83z" />
    <glyph glyph-name="braceleft" unicode="{" horiz-adv-x="304" 
d="M269 -157v-12c-56 0 -135 13 -135 131c0 65 6 136 6 208c0 38 -3 87 -87 93v13c84 6 87 55 87 93c0 71 -6 140 -6 202c0 124 79 138 135 138v-13c-76 -10 -85 -56 -85 -102c0 -68 11 -138 12 -207c0 -55 -22 -103 -81 -116v-4c58 -13 81 -61 81 -116
c0 -66 -12 -134 -12 -200c0 -49 9 -97 85 -108z" />
    <glyph glyph-name="bar" unicode="|" horiz-adv-x="249" 
d="M149 -250h-49v1000h49v-1000z" />
    <glyph glyph-name="braceright" unicode="}" horiz-adv-x="304" 
d="M252 276v-13c-84 -6 -87 -56 -87 -97c0 -67 6 -136 6 -205c0 -109 -80 -130 -136 -130v12c71 11 86 54 86 102c0 67 -11 136 -11 205c0 55 19 102 81 118v4c-59 14 -81 62 -81 116c0 69 11 139 11 208c0 50 -15 90 -86 100v13c56 0 136 -13 136 -132
c0 -67 -6 -136 -6 -204c0 -40 2 -91 87 -97z" />
    <glyph glyph-name="asciitilde" unicode="~" horiz-adv-x="516" 
d="M443 269l30 -11c-13 -77 -51 -114 -111 -114c-37 0 -76 20 -113 45c-37 28 -64 43 -96 43c-42 0 -64 -29 -80 -95l-29 16c21 101 76 117 111 117s68 -14 110 -43c36 -25 71 -45 103 -45c43 0 62 29 75 87z" />
    <glyph glyph-name="exclamdown" unicode="&#xa1;" horiz-adv-x="263" 
d="M131 445h1c25 0 46 -20 46 -48c0 -26 -21 -47 -47 -47c-27 0 -46 21 -46 47c0 28 19 48 46 48zM132 -227h-1c-32 0 -47 7 -47 28c0 16 3 38 7 79c12 116 21 235 31 359c5 7 15 7 19 0c10 -124 19 -243 31 -359c4 -41 7 -63 7 -79c0 -21 -17 -28 -47 -28z" />
    <glyph glyph-name="cent" unicode="&#xa2;" horiz-adv-x="457" 
d="M403 216l8 -12c-37 -51 -94 -91 -143 -100v-93h-24v91c-111 3 -188 94 -188 196c0 77 38 139 90 181c30 25 70 42 98 48v80h24v-76c9 1 15 1 24 1c40 0 72 -13 91 -28c10 -7 15 -17 15 -23c0 -17 -17 -32 -30 -33c-5 1 -10 4 -14 9c-23 25 -50 40 -86 44v-344
c57 -4 98 21 135 59zM244 161v340c-53 -2 -119 -38 -119 -160c0 -119 70 -169 119 -180z" />
    <glyph glyph-name="sterling" unicode="&#xa3;" horiz-adv-x="457" 
d="M361 302h-163v-28c0 -73 -45 -129 -101 -181c33 1 73 -12 104 -27c50 -23 97 -41 130 -41c41 0 65 21 65 50c0 11 -2 27 -5 34c-3 6 -2 13 2 18c11 13 19 21 29 21c9 0 16 -14 16 -33c0 -37 -35 -85 -73 -110c-28 -19 -61 -32 -92 -32s-70 18 -123 49
c-36 22 -55 30 -71 30c-13 0 -30 -6 -41 -45c-1 -8 -4 -11 -8 -11c-8 0 -18 15 -6 40c7 14 28 41 48 61c35 35 49 88 49 141c0 27 -2 47 -4 64h-92v25h87c-2 28 -6 61 -6 88c0 64 16 121 71 170c30 28 82 50 107 50c43 0 81 -23 90 -38c7 -10 7 -18 3 -27
c-3 -8 -9 -15 -15 -20c-7 -4 -14 -2 -19 4c-20 19 -53 43 -94 43c-54 0 -77 -32 -77 -99c0 -50 14 -118 22 -171h167v-25z" />
    <glyph glyph-name="fraction" unicode="&#x2044;" horiz-adv-x="100" 
d="M255 639l-392 -664l-20 16l391 664z" />
    <glyph glyph-name="yen" unicode="&#xa5;" horiz-adv-x="457" 
d="M448 623v-12c-51 -7 -58 -17 -91 -78c-23 -43 -54 -103 -100 -202h125v-25h-129v-30v-45h130v-25h-130v-105c0 -72 5 -84 84 -89v-12h-243v12c80 5 86 17 86 89v105h-128v25h128v37c0 13 0 27 -1 38h-127v25h119c-26 60 -53 119 -97 211c-26 56 -34 63 -77 69v12h198v-12
l-27 -5c-29 -6 -36 -12 -28 -33c13 -36 70 -165 100 -231c29 62 76 166 92 209c14 33 12 47 -19 54l-29 6v12h164z" />
    <glyph glyph-name="florin" unicode="&#x192;" horiz-adv-x="457" 
d="M174 364l7 43c15 94 45 146 93 191c45 43 78 54 101 54c25 0 55 -20 55 -38c0 -13 -19 -41 -33 -33c-15 9 -41 31 -69 31c-19 0 -30 -12 -39 -33c-11 -26 -25 -78 -38 -215h105v-25h-108l-32 -215c-19 -132 -67 -195 -112 -228c-35 -24 -58 -34 -78 -34
c-25 0 -53 19 -53 35c0 14 23 38 32 38c7 0 36 -31 66 -31c22 0 37 10 46 47c7 27 13 70 29 202l23 186h-78l1 25h82z" />
    <glyph glyph-name="section" unicode="&#xa7;" horiz-adv-x="420" 
d="M370 210c-2 -72 -48 -146 -84 -192c-38 -45 -71 -68 -115 -83c-12 0 -43 8 -58 19c-11 8 -17 16 -17 26c0 11 11 22 19 27c5 4 11 2 16 -1c7 -5 32 -26 64 -26c31 0 63 14 63 55c1 25 -13 56 -54 99c-27 29 -56 61 -91 98c-30 33 -58 81 -58 134c1 60 32 114 64 152
c47 55 79 80 131 94c21 0 43 -9 53 -17s12 -13 12 -20c0 -14 -8 -25 -14 -29c-2 -2 -8 -3 -14 1c-8 7 -32 23 -65 23c-48 0 -60 -31 -60 -48s10 -41 34 -64c31 -31 66 -62 96 -93c37 -37 79 -91 78 -155zM91 412v-3c0 -56 30 -102 93 -167c51 -51 82 -91 92 -111
c11 -21 17 -51 14 -78l2 -1c24 38 36 73 37 119c0 43 -21 91 -69 140c-32 33 -74 75 -95 98c-20 23 -38 58 -33 98l-2 1c-27 -34 -39 -61 -39 -96z" />
    <glyph glyph-name="currency" unicode="&#xa4;" horiz-adv-x="457" 
d="M418 145l-33 -32l-57 70c-32 -27 -69 -39 -100 -39c-30 0 -70 12 -102 37l-56 -68l-32 32l63 60c-30 38 -42 77 -42 120c0 42 13 81 44 117l-65 63l32 31l58 -70c33 28 70 39 100 39h1c30 0 67 -11 101 -37l55 68l33 -31l-63 -61c28 -35 42 -77 42 -119
c0 -43 -14 -84 -43 -119zM228 466h-1c-66 0 -119 -56 -119 -141s54 -142 120 -142c67 0 121 56 121 142c0 85 -55 141 -121 141z" />
    <glyph glyph-name="quotesingle" unicode="'" horiz-adv-x="140" 
d="M96 709l5 -4c-1 -18 -20 -158 -24 -189l-13 -8c-8 88 -20 165 -24 174z" />
    <glyph glyph-name="quotedblleft" unicode="&#x201c;" horiz-adv-x="330" 
d="M144 715l7 -11c-40 -18 -66 -39 -66 -79c0 -33 27 -51 53 -56c6 -1 12 -6 12 -15c0 -20 -21 -30 -33 -30h-1c-34 0 -77 32 -77 82c0 59 55 94 105 109zM285 715l6 -11c-40 -18 -65 -39 -65 -79c0 -33 26 -51 54 -56c5 -1 10 -6 10 -15c0 -20 -20 -30 -33 -30h-1
c-34 0 -77 32 -77 82c0 59 55 94 106 109z" />
    <glyph glyph-name="guillemotleft" unicode="&#xab;" horiz-adv-x="405" 
d="M208 58l-11 -9c-57 73 -117 141 -148 169c31 30 91 96 148 170l11 -7l-87 -163zM356 58l-10 -9c-58 73 -118 141 -149 169c31 30 91 96 149 170l10 -7l-87 -163z" />
    <glyph glyph-name="guilsinglleft" unicode="&#x2039;" horiz-adv-x="255" 
d="M207 58l-10 -9c-57 73 -117 141 -148 169c31 30 91 96 148 170l10 -7l-87 -163z" />
    <glyph glyph-name="guilsinglright" unicode="&#x203a;" horiz-adv-x="255" 
d="M49 379l10 9c58 -73 118 -141 148 -169c-30 -29 -91 -96 -148 -170l-10 8l87 162z" />
    <glyph glyph-name="endash" unicode="&#x2013;" horiz-adv-x="517" 
d="M466 201h-416v39h416v-39z" />
    <glyph glyph-name="dagger" unicode="&#x2020;" horiz-adv-x="437" 
d="M235 -55h-28c2 33 3 61 0 101c-1 110 -11 206 -27 243c24 42 32 73 33 120c-59 -3 -91 -15 -120 -33c-15 6 -36 23 -47 40c11 17 32 33 46 39c29 -19 61 -30 121 -32c-2 63 -12 89 -38 136c12 22 32 43 47 53c15 -10 35 -31 47 -53c-27 -47 -37 -73 -38 -136
c58 2 90 14 119 32c15 -6 37 -22 47 -39c-10 -17 -32 -34 -46 -40c-30 18 -62 30 -120 33c1 -47 12 -78 34 -120c-17 -37 -32 -133 -32 -243c0 -40 0 -68 2 -101z" />
    <glyph glyph-name="daggerdbl" unicode="&#x2021;" horiz-adv-x="438" 
d="M399 147c-9 -15 -31 -34 -45 -40c-29 19 -64 31 -123 33c2 -67 13 -93 40 -140c-13 -22 -34 -43 -49 -53c-13 10 -34 31 -47 53c26 47 37 73 39 140c-59 -2 -93 -14 -123 -33c-15 6 -35 25 -45 40c10 15 30 33 45 39c30 -18 64 -30 123 -32c-1 74 -11 112 -38 135
c27 26 37 63 38 132c-59 -2 -93 -15 -123 -33c-15 6 -35 24 -45 39c10 16 30 33 45 39c30 -18 64 -30 123 -32c-2 52 -13 78 -39 125c13 22 34 43 47 53c15 -10 36 -31 49 -53c-27 -47 -38 -73 -40 -125c59 2 94 14 123 32c14 -6 35 -23 45 -39c-10 -16 -31 -34 -45 -39
c-29 18 -64 31 -123 33c1 -69 11 -106 38 -132c-26 -23 -38 -60 -38 -131l1 -4c58 2 93 14 122 32c14 -6 36 -24 45 -39z" />
    <glyph glyph-name="periodcentered" unicode="&#xb7;" horiz-adv-x="197" 
d="M99 179h-1c-26 0 -45 19 -45 48c0 25 19 46 46 46c26 0 46 -21 46 -46c0 -29 -20 -48 -46 -48z" />
    <glyph glyph-name="paragraph" unicode="&#xb6;" horiz-adv-x="457" 
d="M421 524l-27 -18l-84 -9v-471c0 -80 -19 -131 -60 -178c-26 -29 -68 -48 -78 -48c-27 0 -49 12 -58 20c-10 10 -12 17 -11 23c1 8 8 17 15 22c5 4 9 3 14 -1c18 -12 41 -20 62 -20c43 0 79 29 79 168v150l-65 -27c-4 -3 -9 -5 -17 -5c-53 0 -152 73 -152 190
c0 60 26 116 61 150c39 37 95 60 136 60h183z" />
    <glyph glyph-name="bullet" unicode="&#x2022;" horiz-adv-x="330" 
d="M166 325h1c56 0 103 -48 103 -108c0 -61 -47 -109 -104 -109c-60 0 -106 48 -106 109c0 60 46 108 106 108z" />
    <glyph glyph-name="quotesinglbase" unicode="&#x201a;" horiz-adv-x="220" 
d="M91 113h1c36 0 80 -35 80 -87c0 -65 -57 -101 -112 -117l-5 12c41 20 69 42 69 84c0 35 -28 54 -58 60c-6 1 -10 6 -10 16c0 21 20 32 35 32z" />
    <glyph glyph-name="quotedblbase" unicode="&#x201e;" horiz-adv-x="390" 
d="M251 113h1c35 0 80 -35 80 -88c0 -64 -57 -100 -112 -116l-6 12c43 20 70 42 70 84c0 35 -28 54 -58 60c-5 1 -11 6 -11 16c0 21 22 32 36 32zM91 113h1c36 0 80 -35 80 -87c0 -65 -57 -101 -112 -117l-5 12c41 20 69 42 69 84c0 35 -28 54 -58 60c-6 1 -10 6 -10 16
c0 21 20 32 35 32z" />
    <glyph glyph-name="quotedblright" unicode="&#x201d;" horiz-adv-x="335" 
d="M73 709h1c34 0 77 -33 77 -84c0 -59 -54 -95 -106 -110l-6 11c40 18 66 40 66 80c0 33 -26 52 -55 57c-4 1 -10 5 -10 16c0 20 20 30 33 30zM218 709h1c34 0 77 -33 77 -84c0 -59 -57 -95 -107 -110l-5 11c39 18 66 40 66 80c0 33 -27 52 -55 57c-5 1 -10 5 -10 16
c0 20 20 30 33 30z" />
    <glyph glyph-name="guillemotright" unicode="&#xbb;" horiz-adv-x="405" 
d="M50 379l10 9c58 -73 118 -141 148 -169c-30 -29 -90 -96 -148 -170l-10 8l87 162zM198 379l10 9c58 -73 117 -141 148 -169c-31 -29 -90 -96 -148 -170l-10 8l87 162z" />
    <glyph glyph-name="ellipsis" unicode="&#x2026;" horiz-adv-x="919" 
d="M154 -12h-1c-25 0 -43 18 -43 46c0 24 18 45 44 45s44 -21 44 -45c0 -28 -18 -46 -44 -46zM461 -12h-1c-24 0 -42 18 -42 46c0 24 18 45 43 45c27 0 45 -21 45 -45c0 -28 -18 -46 -45 -46zM766 -12h-1c-24 0 -43 18 -43 46c0 24 19 45 44 45c26 0 45 -21 45 -45
c0 -28 -19 -46 -45 -46z" />
    <glyph glyph-name="perthousand" unicode="&#x2030;" horiz-adv-x="955" 
d="M540 640l-395 -664l-19 15l393 665zM176 635h1c90 0 128 -100 128 -169c0 -71 -38 -171 -129 -171c-90 0 -128 100 -128 169c0 71 38 171 128 171zM178 619h-1c-57 0 -67 -104 -67 -154c0 -48 10 -154 68 -154c59 0 65 107 65 153c0 50 -6 155 -65 155zM492 329h1
c89 0 128 -100 128 -169c0 -71 -39 -171 -129 -171c-92 0 -130 100 -130 169c0 71 38 171 130 171zM787 329h1c89 0 128 -100 128 -169c0 -71 -39 -171 -129 -171c-91 0 -130 100 -130 169c0 71 39 171 130 171zM492 314h-1c-58 0 -67 -104 -67 -154c0 -48 9 -155 68 -155
s67 108 67 153c0 50 -8 156 -67 156zM787 314h-1c-57 0 -67 -104 -67 -154c0 -49 10 -155 68 -155c60 0 67 108 67 153c0 50 -7 156 -67 156z" />
    <glyph glyph-name="questiondown" unicode="&#xbf;" horiz-adv-x="335" 
d="M178 445h1c26 0 46 -20 46 -47s-20 -48 -47 -48s-46 21 -46 47c0 28 19 48 46 48zM148 233l7 11c38 -15 111 -70 111 -128c0 -30 -18 -61 -79 -109c-34 -28 -99 -72 -99 -120c0 -37 23 -59 63 -59c58 0 97 51 107 51c11 0 37 -16 37 -39c0 -11 -6 -20 -20 -32
c-28 -24 -65 -35 -80 -35h-1c-76 0 -149 81 -149 157c0 33 8 59 41 88c28 26 108 75 108 124c0 42 -18 63 -46 91z" />
    <glyph glyph-name="grave" unicode="`" 
d="M230 492l-13 -5c-45 61 -98 132 -111 149l2 5c6 4 45 13 54 12c23 -53 46 -106 68 -161z" />
    <glyph glyph-name="acute" unicode="&#xb4;" 
d="M311 647l-116 -160l-13 5c21 44 59 137 66 150c9 4 50 12 61 11z" />
    <glyph glyph-name="circumflex" unicode="&#x2c6;" 
d="M294 492l-10 -6c-30 30 -59 62 -83 95c-25 -33 -54 -65 -85 -95l-10 6c33 50 62 103 88 156h14c26 -53 53 -106 86 -156z" />
    <glyph glyph-name="tilde" unicode="&#x2dc;" 
d="M156 592h1c13 0 26 -4 51 -16c19 -9 35 -17 52 -17s28 14 37 38l11 -4c-13 -64 -40 -78 -62 -78c-16 0 -37 7 -59 21c-16 8 -28 13 -44 13c-18 0 -32 -15 -41 -40l-12 6c16 59 44 77 66 77z" />
    <glyph glyph-name="macron" unicode="&#xaf;" 
d="M294 529h-188v43h188v-43z" />
    <glyph glyph-name="breve" unicode="&#x2d8;" 
d="M280 615h11c0 -87 -41 -116 -91 -116h-1c-49 0 -89 29 -89 116h11c7 -48 38 -73 79 -73c42 0 73 25 80 73z" />
    <glyph glyph-name="dotaccent" unicode="&#x2d9;" 
d="M200 606h1c22 0 40 -18 40 -43c0 -23 -18 -42 -41 -42c-21 0 -40 19 -40 43s19 42 40 42z" />
    <glyph glyph-name="dieresis" unicode="&#xa8;" 
d="M123 601h1c21 0 38 -17 38 -40c0 -22 -17 -40 -39 -40c-20 0 -38 18 -38 40c0 23 18 40 38 40zM276 601h1c21 0 38 -17 38 -40c0 -22 -17 -40 -39 -40c-20 0 -38 18 -38 40c0 23 18 40 38 40z" />
    <glyph glyph-name="ring" unicode="&#x2da;" 
d="M200 630h1c35 0 71 -25 71 -69c0 -43 -36 -70 -72 -70s-71 27 -71 70c0 44 35 69 71 69zM201 610h-1c-20 0 -37 -20 -37 -49c0 -28 17 -50 38 -50c23 0 38 22 38 51c0 28 -15 48 -38 48z" />
    <glyph glyph-name="cedilla" unicode="&#xb8;" 
d="M233 0l-14 -19c-15 -21 -13 -30 2 -45c24 -24 34 -43 34 -62c0 -38 -43 -73 -98 -91l-7 11c38 16 57 43 57 62c1 18 -11 30 -21 39c-22 21 -27 35 -10 58l34 47h23z" />
    <glyph glyph-name="hungarumlaut" unicode="&#x2dd;" 
d="M232 647l-93 -160l-12 5c15 44 43 137 46 150c10 4 47 12 57 11zM346 647l-93 -160l-12 5c15 44 43 137 46 150c10 4 48 12 57 11z" />
    <glyph glyph-name="ogonek" unicode="&#x2db;" 
d="M295 -159l-46 -27c-10 -6 -20 -9 -29 -9c-46 0 -67 33 -67 66c0 43 27 86 53 132h19c-17 -41 -23 -80 -23 -106c0 -31 22 -53 50 -53c12 0 25 2 38 8z" />
    <glyph glyph-name="caron" unicode="&#x2c7;" 
d="M284 648l10 -6c-34 -50 -61 -103 -88 -156h-14c-26 53 -53 106 -86 156l10 6c30 -29 59 -62 83 -95c25 33 54 66 85 95z" />
    <glyph glyph-name="emdash" unicode="&#x2014;" horiz-adv-x="799" 
d="M749 201h-698v39h698v-39z" />
    <glyph glyph-name="AE" unicode="&#xc6;" horiz-adv-x="817" 
d="M788 153l14 -3c-8 -31 -25 -115 -35 -150h-446v12c79 5 87 16 87 103v191h-172c-39 -75 -75 -144 -108 -220c-23 -53 -20 -64 58 -74v-12h-207v12c61 9 72 15 115 91c81 143 184 338 261 482c17 32 11 38 -38 45l-41 6l-1 12h471c-1 -32 4 -97 8 -131l-14 -3
c-10 40 -19 63 -32 82c-15 21 -34 30 -114 30h-80c-27 0 -30 -2 -30 -30v-266h96c92 0 98 14 110 77h13v-182h-13c-12 71 -20 80 -110 80h-96v-190c0 -50 6 -69 21 -80c20 -12 55 -13 104 -13c75 0 109 7 131 37c16 21 33 51 48 94zM408 330v290c-4 0 -9 -4 -28 -39
c-30 -55 -78 -143 -131 -251h159z" />
    <glyph glyph-name="ordfeminine" unicode="&#xaa;" horiz-adv-x="267" 
d="M260 324l-59 -31c-23 2 -32 23 -37 36c-25 -15 -53 -36 -71 -36c-41 0 -68 36 -68 67c0 27 13 42 41 53c28 12 79 29 97 43v15c0 34 -19 57 -45 57c-23 0 -37 -19 -45 -53c-3 -10 -10 -13 -18 -13c-11 0 -27 11 -27 25c0 10 8 17 17 23c14 11 54 35 94 40
c19 0 35 -5 50 -15c17 -13 24 -35 24 -63v-112c0 -24 10 -30 19 -30c7 0 14 1 23 7zM163 345v95c-11 -7 -42 -20 -52 -25c-23 -11 -31 -21 -31 -42c0 -31 20 -46 41 -46c15 0 34 9 42 18z" />
    <glyph glyph-name="Lslash" unicode="&#x141;" horiz-adv-x="521" 
d="M497 151l14 -3c-7 -25 -25 -113 -35 -148h-435v12c83 6 91 16 91 104v170l-94 -75v31l94 76v217c0 84 -8 95 -80 101v12h237v-12c-71 -6 -79 -17 -79 -101v-163l119 96v-32l-119 -96v-216c0 -57 4 -79 21 -90c19 -11 51 -13 97 -13c68 0 98 5 120 32c18 22 34 53 49 98z
" />
    <glyph glyph-name="Oslash" unicode="&#xd8;" horiz-adv-x="719" 
d="M615 679l-50 -76c77 -61 129 -155 129 -269c0 -208 -147 -348 -328 -348c-60 0 -122 19 -170 52l-53 -80l-20 17l50 77c-76 60 -123 155 -123 266c0 165 117 344 332 344c58 0 115 -15 161 -45l50 76zM211 110l304 459c-41 48 -94 71 -157 71c-114 0 -216 -104 -216 -296
c0 -90 24 -172 69 -234zM530 546l-304 -458c39 -53 96 -80 161 -80c116 0 215 99 215 289c0 105 -27 188 -72 249z" />
    <glyph glyph-name="OE" unicode="&#x152;" horiz-adv-x="928" 
d="M897 151l14 -3c-6 -32 -24 -108 -34 -148h-284c-37 0 -65 -1 -101 -5c-44 -3 -69 -5 -97 -5c-239 0 -354 155 -354 326c0 208 164 341 374 342c32 0 67 -3 101 -6c28 -1 58 -4 84 -4h255c1 -32 4 -97 8 -132l-13 -2c-11 42 -20 65 -33 83c-15 23 -42 29 -125 29h-66
c-27 0 -30 -2 -30 -30v-249h100c90 0 94 14 104 74h13v-180h-13c-11 69 -16 79 -104 79h-100v-207c0 -40 6 -64 22 -77c19 -14 52 -14 101 -14c91 0 110 9 132 37c18 23 33 59 46 92zM518 90v462c0 39 -4 56 -18 65c-17 11 -58 19 -98 19c-172 0 -267 -121 -267 -307
c0 -164 72 -317 269 -317c32 0 60 3 81 12c24 10 33 25 33 66z" />
    <glyph glyph-name="ordmasculine" unicode="&#xba;" horiz-adv-x="298" 
d="M149 550h1c69 0 122 -57 122 -125c0 -86 -65 -132 -121 -132c-81 0 -127 66 -127 125c0 90 73 132 125 132zM144 534h-1c-31 0 -58 -34 -58 -101c0 -73 30 -122 69 -122c33 0 60 23 59 99c0 68 -24 124 -69 124z" />
    <glyph glyph-name="ae" unicode="&#xe6;" horiz-adv-x="618" 
d="M260 259v31c0 75 -38 112 -85 112c-19 0 -31 -9 -40 -19c-11 -12 -22 -32 -29 -66c-3 -16 -10 -24 -24 -24s-40 19 -40 38c0 13 11 26 29 38c30 22 94 58 141 70c29 0 54 -9 72 -24c14 -14 24 -30 33 -52c36 44 90 75 140 75c82 0 142 -71 142 -138c0 -19 -4 -24 -20 -27
c-14 -3 -133 -12 -252 -16c-4 -158 84 -209 155 -209c31 0 67 14 102 49l10 -10c-54 -79 -125 -99 -150 -99c-69 0 -124 36 -154 92l-30 -25c-33 -27 -88 -67 -114 -67c-68 0 -113 60 -113 116c0 44 22 75 72 91c57 18 125 44 155 64zM432 412h-1c-45 0 -90 -42 -100 -127
c57 0 112 0 168 2c14 0 21 5 21 25c1 48 -28 100 -88 100zM181 43h1c29 0 68 15 98 58c-17 31 -21 86 -21 137c-19 -12 -71 -33 -92 -43c-40 -18 -57 -35 -57 -74c0 -56 38 -78 71 -78z" />
    <glyph glyph-name="dotlessi" unicode="&#x131;" horiz-adv-x="246" 
d="M234 0h-206v12c59 6 67 14 67 85v215c0 61 -5 68 -58 79v11c40 7 86 19 130 39v-344c0 -71 7 -79 67 -85v-12z" />
    <glyph glyph-name="lslash" unicode="&#x142;" horiz-adv-x="250" 
d="M255 470l-87 -77v-296c0 -72 9 -79 70 -85v-12h-213v12c63 6 71 13 71 85v236l-69 -59v33l69 59v235c0 61 -5 67 -65 76v9c45 5 108 22 137 35v-296l87 78v-33z" />
    <glyph glyph-name="oslash" unicode="&#xf8;" horiz-adv-x="484" 
d="M408 444l-37 -50c52 -42 81 -103 81 -172c0 -155 -111 -234 -207 -234c-44 0 -82 11 -115 32l-38 -54l-17 16l37 52c-50 41 -80 109 -80 171c0 160 124 234 211 234c42 0 77 -12 110 -32l36 50zM145 89l181 275c-23 36 -56 55 -95 55c-67 0 -116 -71 -116 -186
c0 -60 12 -111 30 -144zM338 340l-178 -272c24 -41 56 -60 97 -60c56 0 112 49 112 196c0 47 -9 95 -31 136z" />
    <glyph glyph-name="oe" unicode="&#x153;" horiz-adv-x="723" 
d="M235 439h1c76 0 135 -41 165 -99c34 54 102 99 161 99c79 0 141 -69 141 -139c0 -18 -4 -22 -21 -26c-15 -3 -131 -13 -253 -17c-4 -158 84 -209 157 -209c31 0 64 14 103 48l8 -11c-54 -77 -122 -97 -149 -97c-70 0 -127 34 -156 89c-39 -60 -97 -89 -156 -89
c-126 0 -204 109 -204 216c0 161 124 235 203 235zM534 412h-1c-45 0 -90 -42 -100 -127c57 0 114 0 171 2c15 0 19 6 20 24c1 48 -27 101 -90 101zM228 419h-1c-61 0 -108 -70 -108 -180c0 -133 51 -231 131 -231c60 0 108 48 108 194c0 114 -44 217 -130 217z" />
    <glyph glyph-name="germandbls" unicode="&#xdf;" horiz-adv-x="503" 
d="M95 427v17c0 39 4 69 10 92c8 31 23 79 83 131c35 30 74 49 122 54c75 -2 142 -46 145 -146c0 -13 -2 -22 -7 -28c-71 -65 -104 -117 -104 -159c0 -39 30 -67 60 -96c32 -31 79 -76 79 -135c0 -99 -120 -170 -181 -170c-17 0 -32 3 -44 9c-14 8 -21 19 -18 31
c2 7 7 14 14 19c4 4 9 4 15 -1c21 -16 45 -22 69 -22c28 0 79 18 79 92c0 40 -22 73 -63 112c-47 47 -75 82 -75 119s26 73 77 133c16 18 28 31 35 38c6 9 8 21 8 34c0 64 -49 135 -122 135c-101 0 -110 -138 -110 -286v-305c0 -65 7 -78 49 -83v-12h-189v12
c60 5 68 19 68 83v304h-68l-2 7l25 21h45z" />
    <glyph glyph-name="logicalnot" unicode="&#xac;" horiz-adv-x="516" 
d="M475 88h-44v210h-389v37h433v-247z" />
    <glyph glyph-name="mu" unicode="&#xb5;" horiz-adv-x="480" 
d="M469 41l6 -13c-13 -18 -46 -40 -75 -40c-47 0 -70 40 -73 80h-2c-43 -45 -86 -80 -129 -80c-40 0 -71 19 -87 43h-2v-14c0 -90 24 -245 39 -279l-4 -8c-20 1 -56 22 -74 37c-3 13 -2 85 -2 239v312c0 42 0 79 -3 104l74 17c2 -17 1 -71 1 -109v-167
c0 -96 49 -124 87 -124c42 0 81 30 100 53v331l72 16v-335c0 -54 19 -70 41 -71c11 0 24 4 31 8z" />
    <glyph glyph-name="trademark" unicode="&#x2122;" horiz-adv-x="328" 
d="M136 593h-5c-3 9 -4 15 -8 18c-2 3 -8 6 -17 6h-13v-81c0 -18 1 -19 18 -20v-5h-57v5c17 1 18 2 18 20v81h-12c-11 0 -16 -3 -18 -7c-3 -2 -6 -8 -7 -17h-6c0 14 2 26 2 34h4c2 -1 3 -3 4 -3c2 -1 3 -1 6 -1h77c4 0 6 1 8 4h6v-34zM303 511h-52v5c15 1 16 3 16 20v70h-1
l-43 -93h-5l-40 89h-1l-3 -44c-1 -11 -1 -26 -1 -32c1 -7 5 -9 18 -10v-5h-46v5c12 0 15 3 16 10c2 6 4 14 6 43l2 24c2 22 1 25 -17 26v4h37l38 -79l39 79h35v-4c-14 -1 -15 -4 -15 -22l1 -61c0 -17 1 -19 16 -20v-5z" />
    <glyph glyph-name="Eth" unicode="&#xd0;" horiz-adv-x="712" 
d="M48 648h277c114 0 203 -24 266 -87c48 -48 81 -119 81 -211c0 -120 -45 -208 -118 -266c-74 -58 -176 -84 -292 -84h-222v12c83 6 91 16 91 100v213h-98v27h98v183c0 88 -8 95 -83 101v12zM209 325v-204c0 -71 14 -98 102 -98c189 0 269 148 269 311
c0 114 -40 208 -116 256c-43 27 -96 39 -160 39c-46 0 -70 -6 -81 -12s-14 -19 -14 -53v-212h149v-27h-149z" />
    <glyph glyph-name="onehalf" unicode="&#xbd;" horiz-adv-x="674" 
d="M529 640l-393 -666l-19 16l392 665zM240 311h-172v10c48 6 59 14 59 58v177c0 34 -4 41 -40 44l-23 2v10c38 5 75 12 118 26v-259c0 -44 9 -50 58 -58v-10zM601 79l11 -4c-9 -28 -14 -51 -20 -75h-221v10c51 43 159 128 159 207c0 49 -27 71 -64 71
c-38 0 -61 -25 -79 -49l-10 8l30 38c22 29 53 43 86 43c49 0 96 -33 96 -95c0 -46 -33 -79 -100 -141l-50 -46v-2h97c33 0 49 2 65 35z" />
    <glyph glyph-name="plusminus" unicode="&#xb1;" horiz-adv-x="516" 
d="M476 288h-195v-191h-44v191h-195v37h195v178h44v-178h195v-37zM476 0h-434v37h434v-37z" />
    <glyph glyph-name="Thorn" unicode="&#xde;" horiz-adv-x="519" 
d="M271 648v-12c-65 -6 -73 -11 -73 -131c27 2 53 4 77 4c131 0 209 -54 209 -170c0 -121 -105 -185 -220 -185l-66 18v-60c0 -83 8 -95 86 -100v-12h-243v12c71 5 79 17 79 99v426c0 86 -7 94 -74 99v12h225zM198 448v-257c11 -4 30 -9 59 -9c77 0 138 52 138 155
c0 98 -48 153 -135 153c-22 0 -43 -4 -52 -10c-8 -4 -10 -11 -10 -32z" />
    <glyph glyph-name="onequarter" unicode="&#xbc;" horiz-adv-x="673" 
d="M551 640l-394 -666l-19 16l392 665zM252 311h-172v10c48 6 59 14 59 58v177c0 34 -4 41 -40 44l-23 2v10c38 5 75 12 118 26v-259c0 -44 9 -50 58 -58v-10zM597 93h-54v-37c0 -35 10 -43 50 -46v-10h-166v10c52 4 62 10 62 46v37h-149v13c55 72 124 159 180 221h23v-206
h54v-28zM489 121v141h-2c-34 -42 -70 -88 -106 -141h108z" />
    <glyph glyph-name="divide" unicode="&#xf7;" horiz-adv-x="516" 
d="M260 328h-1c-19 0 -39 18 -39 40s20 40 40 40c23 0 41 -18 41 -40s-18 -40 -41 -40zM475 214h-433v37h433v-37zM259 136h1c19 0 39 -17 39 -40c0 -22 -20 -40 -40 -40c-23 0 -40 18 -40 40c0 23 17 40 40 40z" />
    <glyph glyph-name="brokenbar" unicode="&#xa6;" horiz-adv-x="249" 
d="M149 325h-49v350h49v-350zM149 -175h-49v350h49v-350z" />
    <glyph glyph-name="degree" unicode="&#xb0;" horiz-adv-x="326" 
d="M163 660h1c68 0 130 -53 130 -132c0 -82 -62 -131 -131 -131s-131 49 -131 131c0 79 62 132 131 132zM164 626h-1c-48 0 -84 -39 -84 -97c0 -59 36 -98 85 -98c50 0 84 39 84 98c0 58 -34 97 -84 97z" />
    <glyph glyph-name="thorn" unicode="&#xfe;" horiz-adv-x="480" 
d="M139 721v-346c37 19 72 37 105 55c10 5 23 9 35 9c111 0 169 -97 169 -184c0 -145 -114 -242 -249 -267c-23 2 -48 11 -60 19v-162c0 -75 11 -81 86 -87v-12h-225v12c57 6 67 12 67 83v754c0 72 -4 76 -66 82v9c48 5 105 21 138 35zM139 353v-285c19 -22 61 -37 97 -37
c68 0 137 45 137 182c0 115 -58 179 -138 179c-35 0 -71 -20 -96 -39z" />
    <glyph glyph-name="threequarters" unicode="&#xbe;" horiz-adv-x="674" 
d="M556 640l-394 -666l-19 16l392 665zM214 500v-1c53 -8 85 -43 85 -77c0 -85 -118 -122 -151 -122c-24 0 -49 10 -61 20c-8 6 -9 15 -6 22c2 6 7 11 13 16c5 5 10 5 17 -1c17 -13 42 -29 71 -29c33 0 58 23 58 76c0 48 -36 67 -71 67c-15 0 -28 -3 -38 -6l-4 11
c62 20 91 43 91 78c0 28 -20 47 -53 47c-29 0 -54 -23 -67 -45l-8 7l26 42c16 16 44 30 74 30h1c50 0 85 -31 85 -67c0 -15 -6 -27 -16 -36c-9 -8 -26 -19 -46 -32zM599 93h-54v-37c0 -35 10 -43 50 -46v-10h-166v10c52 4 62 10 62 46v37h-149v13c55 73 124 159 179 221h24
v-206h54v-28zM491 121v141h-2c-34 -42 -70 -88 -107 -141h109z" />
    <glyph glyph-name="registered" unicode="&#xae;" horiz-adv-x="223" 
d="M111 651h1c47 0 82 -38 82 -84c0 -44 -35 -83 -83 -83c-49 0 -81 39 -81 83c0 46 36 84 81 84zM112 639h-1c-40 0 -66 -33 -66 -72s30 -71 67 -71c38 0 67 32 67 71s-29 72 -67 72zM155 526v-3c-13 0 -22 1 -29 12c-5 7 -10 16 -13 20c-3 5 -4 6 -8 6h-5v-20
c0 -12 3 -12 12 -13v-5h-39v5c12 1 13 1 13 13v52c0 12 -1 12 -13 13v4h40c15 0 30 -5 30 -22c0 -11 -10 -20 -20 -24c6 -10 13 -19 23 -32c5 -4 8 -6 9 -6zM100 566h8c8 0 11 2 13 4c5 4 6 9 6 16c0 14 -10 19 -18 19c-6 0 -9 -1 -9 -7v-32z" />
    <glyph glyph-name="minus" unicode="&#x2212;" horiz-adv-x="516" 
d="M475 213h-433v38h433v-38z" />
    <glyph glyph-name="eth" unicode="&#xf0;" horiz-adv-x="475" 
d="M423 679l-110 -66c92 -107 130 -208 130 -351c0 -185 -102 -274 -208 -274c-124 0 -202 116 -202 215c-1 159 124 236 209 236h1c37 0 66 -8 99 -26c-13 71 -41 126 -74 172l-140 -84l-11 21l136 80c-59 63 -122 94 -174 102c-5 7 -4 12 3 17c65 -4 147 -38 213 -92
l116 69zM240 419h-1c-70 0 -121 -75 -121 -186c0 -133 48 -225 133 -225c56 0 112 48 112 225c1 91 -7 125 -32 149c-23 24 -50 37 -91 37z" />
    <glyph glyph-name="multiply" unicode="&#xd7;" horiz-adv-x="516" 
d="M470 37l-28 -28l-183 187l-184 -187l-27 28l182 188l-182 186l27 28l184 -186l183 188l28 -27l-184 -189z" />
    <glyph glyph-name="copyright" unicode="&#xa9;" horiz-adv-x="703" 
d="M352 629h1c167 0 296 -136 296 -306c0 -169 -129 -304 -297 -304c-169 0 -297 135 -297 304s129 306 297 306zM353 605h-1c-152 0 -263 -120 -263 -281c0 -160 112 -281 264 -281c151 0 262 122 262 281c0 161 -111 281 -262 281zM493 259l11 -3c-8 -28 -20 -70 -27 -88
c-19 -7 -60 -19 -102 -19c-131 0 -191 89 -191 172c0 111 90 178 191 178c53 0 89 -10 107 -18c3 -26 6 -49 11 -90h-12c-18 62 -54 90 -110 90c-77 0 -119 -70 -119 -153c0 -90 52 -160 121 -160c58 0 94 35 120 91z" />
    <glyph glyph-name="Aacute" unicode="&#xc1;" horiz-adv-x="654" 
d="M646 0h-234v12c56 8 71 16 58 58c-12 42 -35 104 -64 185h-205c-22 -62 -38 -112 -53 -158c-22 -67 -13 -78 63 -85v-12h-199v12c59 6 73 18 107 106l211 538l16 6c63 -180 127 -362 194 -546c32 -88 46 -98 106 -104v-12zM398 282l-88 258h-2c-34 -86 -67 -177 -97 -258
h187zM470 746v-6l-160 -60l-7 11c45 30 99 68 131 91c13 -1 33 -24 36 -36z" />
    <glyph glyph-name="Acircumflex" unicode="&#xc2;" horiz-adv-x="654" 
d="M646 0h-234v12c56 8 71 16 58 58c-12 42 -35 104 -64 185h-205c-22 -62 -38 -112 -53 -158c-22 -67 -13 -78 63 -85v-12h-199v12c59 6 73 18 107 106l211 538l16 6c63 -180 127 -362 194 -546c32 -88 46 -98 106 -104v-12zM398 282l-88 258h-2c-34 -86 -67 -177 -97 -258
h187zM459 689l-8 -8c-36 14 -75 36 -110 56c-35 -20 -74 -42 -110 -56l-7 8c37 28 77 64 111 101h12c35 -38 75 -73 112 -101z" />
    <glyph glyph-name="Adieresis" unicode="&#xc4;" horiz-adv-x="654" 
d="M646 0h-234v12c56 8 71 16 58 58c-12 42 -35 104 -64 185h-205c-22 -62 -38 -112 -53 -158c-22 -67 -13 -78 63 -85v-12h-199v12c59 6 73 18 107 106l211 538l16 6c63 -180 127 -362 194 -546c32 -88 46 -98 106 -104v-12zM398 282l-88 258h-2c-34 -86 -67 -177 -97 -258
h187zM423 777h1c21 0 38 -17 38 -40c0 -22 -17 -40 -39 -40c-20 0 -38 18 -38 40c0 23 18 40 38 40zM252 777h1c21 0 38 -17 38 -40c0 -22 -17 -40 -39 -40c-20 0 -38 18 -38 40c0 23 18 40 38 40z" />
    <glyph glyph-name="Agrave" unicode="&#xc0;" horiz-adv-x="654" 
d="M646 0h-234v12c56 8 71 16 58 58c-12 42 -35 104 -64 185h-205c-22 -62 -38 -112 -53 -158c-22 -67 -13 -78 63 -85v-12h-199v12c59 6 73 18 107 106l211 538l16 6c63 -180 127 -362 194 -546c32 -88 46 -98 106 -104v-12zM398 282l-88 258h-2c-34 -86 -67 -177 -97 -258
h187zM373 691l-7 -11l-163 59v6c4 13 23 36 36 41c46 -33 93 -65 134 -95z" />
    <glyph glyph-name="Aring" unicode="&#xc5;" horiz-adv-x="654" 
d="M646 0h-234v12c56 8 71 16 58 58c-12 42 -35 104 -64 185h-205c-22 -62 -38 -112 -53 -158c-22 -67 -13 -78 63 -85v-12h-199v12c59 6 73 18 107 106l211 538l16 6c63 -180 127 -362 194 -546c32 -88 46 -98 106 -104v-12zM398 282l-88 258h-2c-34 -86 -67 -177 -97 -258
h187zM338 825h1c36 0 73 -27 73 -71s-37 -72 -74 -72s-74 28 -74 72s37 71 74 71zM338 804h-1c-21 0 -38 -21 -38 -50s17 -51 39 -51c23 0 39 22 39 51s-16 50 -39 50z" />
    <glyph glyph-name="Atilde" unicode="&#xc3;" horiz-adv-x="654" 
d="M646 0h-234v12c56 8 71 16 58 58c-12 42 -35 104 -64 185h-205c-22 -62 -38 -112 -53 -158c-22 -67 -13 -78 63 -85v-12h-199v12c59 6 73 18 107 106l211 538l16 6c63 -180 127 -362 194 -546c32 -88 46 -98 106 -104v-12zM398 282l-88 258h-2c-34 -86 -67 -177 -97 -258
h187zM298 765h1c14 0 25 -4 51 -15c18 -8 34 -14 51 -14c18 0 32 12 41 33l9 -5c-14 -56 -41 -68 -64 -68c-18 0 -36 7 -59 18c-14 6 -26 11 -44 11s-31 -13 -42 -34l-10 6c16 51 44 68 66 68z" />
    <glyph glyph-name="Ccedilla" unicode="&#xc7;" horiz-adv-x="635" 
d="M605 165l12 -5c-12 -46 -33 -111 -49 -149c-26 -6 -102 -24 -169 -25l-5 -5c-16 -21 -13 -31 4 -46c24 -25 34 -43 34 -63c0 -37 -43 -73 -100 -91l-7 11c38 16 57 43 58 63c0 17 -11 29 -21 39c-22 21 -28 36 -10 58l23 34c-235 6 -333 172 -333 329
c0 205 150 347 369 347c88 0 143 -18 169 -24c8 -54 12 -96 19 -146l-14 -2c-34 110 -91 150 -201 150c-170 0 -246 -147 -246 -304c0 -190 94 -328 255 -328c112 0 166 65 212 157z" />
    <glyph glyph-name="Eacute" unicode="&#xc9;" horiz-adv-x="530" 
d="M501 150l14 -3c-6 -33 -24 -111 -34 -147h-456v12c87 7 95 15 95 101v416c0 95 -8 99 -80 107v12h421c0 -33 4 -97 7 -131l-14 -3c-9 40 -19 64 -32 81c-19 26 -46 32 -127 32h-67c-28 0 -30 -4 -30 -31v-249h99c92 0 97 13 108 76h12v-181h-12c-11 68 -18 80 -106 80
h-101v-207c0 -47 6 -67 22 -79c19 -15 53 -15 102 -15c93 0 112 11 134 38c17 23 33 59 45 91zM394 746v-6l-160 -60l-7 11c45 30 99 68 131 91c13 -1 33 -24 36 -36z" />
    <glyph glyph-name="Ecircumflex" unicode="&#xca;" horiz-adv-x="530" 
d="M501 150l14 -3c-6 -33 -24 -111 -34 -147h-456v12c87 7 95 15 95 101v416c0 95 -8 99 -80 107v12h421c0 -33 4 -97 7 -131l-14 -3c-9 40 -19 64 -32 81c-19 26 -46 32 -127 32h-67c-28 0 -30 -4 -30 -31v-249h99c92 0 97 13 108 76h12v-181h-12c-11 68 -18 80 -106 80
h-101v-207c0 -47 6 -67 22 -79c19 -15 53 -15 102 -15c93 0 112 11 134 38c17 23 33 59 45 91zM391 689l-8 -8c-36 14 -75 36 -110 56c-35 -20 -74 -42 -110 -56l-7 8c37 28 77 64 111 101h12c35 -38 75 -73 112 -101z" />
    <glyph glyph-name="Edieresis" unicode="&#xcb;" horiz-adv-x="530" 
d="M501 150l14 -3c-6 -33 -24 -111 -34 -147h-456v12c87 7 95 15 95 101v416c0 95 -8 99 -80 107v12h421c0 -33 4 -97 7 -131l-14 -3c-9 40 -19 64 -32 81c-19 26 -46 32 -127 32h-67c-28 0 -30 -4 -30 -31v-249h99c92 0 97 13 108 76h12v-181h-12c-11 68 -18 80 -106 80
h-101v-207c0 -47 6 -67 22 -79c19 -15 53 -15 102 -15c93 0 112 11 134 38c17 23 33 59 45 91zM363 777h1c21 0 38 -17 38 -40c0 -22 -17 -40 -39 -40c-20 0 -38 18 -38 40c0 23 18 40 38 40zM192 777h1c21 0 38 -17 38 -40c0 -22 -17 -40 -39 -40c-20 0 -38 18 -38 40
c0 23 18 40 38 40z" />
    <glyph glyph-name="Egrave" unicode="&#xc8;" horiz-adv-x="530" 
d="M501 150l14 -3c-6 -33 -24 -111 -34 -147h-456v12c87 7 95 15 95 101v416c0 95 -8 99 -80 107v12h421c0 -33 4 -97 7 -131l-14 -3c-9 40 -19 64 -32 81c-19 26 -46 32 -127 32h-67c-28 0 -30 -4 -30 -31v-249h99c92 0 97 13 108 76h12v-181h-12c-11 68 -18 80 -106 80
h-101v-207c0 -47 6 -67 22 -79c19 -15 53 -15 102 -15c93 0 112 11 134 38c17 23 33 59 45 91zM317 691l-7 -11l-163 59v6c4 13 23 36 36 41c46 -33 93 -65 134 -95z" />
    <glyph glyph-name="Iacute" unicode="&#xcd;" horiz-adv-x="318" 
d="M285 0h-251v12c78 6 86 15 86 101v422c0 86 -8 95 -86 101v12h251v-12c-79 -6 -87 -15 -87 -101v-422c0 -86 8 -95 87 -101v-12zM277 746v-6l-160 -60l-7 11c45 30 99 68 131 91c13 -1 33 -24 36 -36z" />
    <glyph glyph-name="Icircumflex" unicode="&#xce;" horiz-adv-x="318" 
d="M285 0h-251v12c78 6 86 15 86 101v422c0 86 -8 95 -86 101v12h251v-12c-79 -6 -87 -15 -87 -101v-422c0 -86 8 -95 87 -101v-12zM277 689l-8 -8c-36 14 -75 36 -110 56c-35 -20 -74 -42 -110 -56l-7 8c37 28 77 64 111 101h12c35 -38 75 -73 112 -101z" />
    <glyph glyph-name="Idieresis" unicode="&#xcf;" horiz-adv-x="318" 
d="M285 0h-251v12c78 6 86 15 86 101v422c0 86 -8 95 -86 101v12h251v-12c-79 -6 -87 -15 -87 -101v-422c0 -86 8 -95 87 -101v-12zM244 777h1c21 0 38 -17 38 -40c0 -22 -17 -40 -39 -40c-20 0 -38 18 -38 40c0 23 18 40 38 40zM73 777h1c21 0 38 -17 38 -40
c0 -22 -17 -40 -39 -40c-20 0 -38 18 -38 40c0 23 18 40 38 40z" />
    <glyph glyph-name="Igrave" unicode="&#xcc;" horiz-adv-x="318" 
d="M285 0h-251v12c78 6 86 15 86 101v422c0 86 -8 95 -86 101v12h251v-12c-79 -6 -87 -15 -87 -101v-422c0 -86 8 -95 87 -101v-12zM211 691l-7 -11l-163 59v6c4 13 23 36 36 41c46 -33 93 -65 134 -95z" />
    <glyph glyph-name="Ntilde" unicode="&#xd1;" horiz-adv-x="711" 
d="M685 648v-12c-55 -5 -74 -16 -78 -68c-2 -31 -4 -73 -4 -162v-418h-16l-437 541h-2v-273c0 -96 3 -144 6 -171c5 -57 24 -67 90 -73v-12h-211v12c58 5 79 16 84 73c2 27 6 75 6 171v230c0 77 -3 87 -21 109c-23 27 -34 36 -86 41v12h136l424 -514h2v273
c0 88 -2 131 -5 160c-5 52 -24 64 -93 69v12h205zM316 763h1c14 0 25 -4 51 -15c18 -8 34 -14 51 -14c18 0 32 12 41 33l9 -5c-14 -56 -41 -68 -64 -68c-18 0 -36 7 -59 18c-14 6 -26 11 -44 11s-31 -13 -42 -34l-10 6c16 51 44 68 66 68z" />
    <glyph glyph-name="Oacute" unicode="&#xd3;" horiz-adv-x="718" 
d="M364 662h1c168 0 316 -134 316 -329c0 -209 -147 -347 -328 -347c-180 0 -316 144 -316 330c0 178 122 346 327 346zM345 640h-1c-113 0 -214 -104 -214 -296c0 -195 99 -336 245 -336c116 0 213 103 213 295c0 215 -101 337 -243 337zM467 754v-6l-160 -60l-7 11
c45 30 99 68 131 91c13 -1 33 -24 36 -36z" />
    <glyph glyph-name="Ocircumflex" unicode="&#xd4;" horiz-adv-x="718" 
d="M364 662h1c168 0 316 -134 316 -329c0 -209 -147 -347 -328 -347c-180 0 -316 144 -316 330c0 178 122 346 327 346zM345 640h-1c-113 0 -214 -104 -214 -296c0 -195 99 -336 245 -336c116 0 213 103 213 295c0 215 -101 337 -243 337zM477 697l-8 -8
c-36 14 -75 36 -110 56c-35 -20 -74 -42 -110 -56l-7 8c37 28 77 64 111 101h12c35 -38 75 -73 112 -101z" />
    <glyph glyph-name="Odieresis" unicode="&#xd6;" horiz-adv-x="718" 
d="M364 662h1c168 0 316 -134 316 -329c0 -209 -147 -347 -328 -347c-180 0 -316 144 -316 330c0 178 122 346 327 346zM345 640h-1c-113 0 -214 -104 -214 -296c0 -195 99 -336 245 -336c116 0 213 103 213 295c0 215 -101 337 -243 337zM444 778h1c21 0 38 -17 38 -40
c0 -22 -17 -40 -39 -40c-20 0 -38 18 -38 40c0 23 18 40 38 40zM273 778h1c21 0 38 -17 38 -40c0 -22 -17 -40 -39 -40c-20 0 -38 18 -38 40c0 23 18 40 38 40z" />
    <glyph glyph-name="Ograve" unicode="&#xd2;" horiz-adv-x="718" 
d="M364 662h1c168 0 316 -134 316 -329c0 -209 -147 -347 -328 -347c-180 0 -316 144 -316 330c0 178 122 346 327 346zM345 640h-1c-113 0 -214 -104 -214 -296c0 -195 99 -336 245 -336c116 0 213 103 213 295c0 215 -101 337 -243 337zM421 699l-7 -11l-163 59v6
c4 13 23 36 36 41c46 -33 93 -65 134 -95z" />
    <glyph glyph-name="Otilde" unicode="&#xd5;" horiz-adv-x="718" 
d="M364 662h1c168 0 316 -134 316 -329c0 -209 -147 -347 -328 -347c-180 0 -316 144 -316 330c0 178 122 346 327 346zM345 640h-1c-113 0 -214 -104 -214 -296c0 -195 99 -336 245 -336c116 0 213 103 213 295c0 215 -101 337 -243 337zM318 773h1c14 0 25 -4 51 -15
c18 -8 34 -14 51 -14c18 0 32 12 41 33l9 -5c-14 -56 -41 -68 -64 -68c-18 0 -36 7 -59 18c-14 6 -26 11 -44 11s-31 -13 -42 -34l-10 6c16 51 44 68 66 68z" />
    <glyph glyph-name="Scaron" unicode="&#x160;" horiz-adv-x="443" 
d="M386 512l-13 -3c-19 67 -55 133 -139 133c-76 0 -114 -54 -114 -118c0 -77 50 -112 129 -156c78 -43 166 -88 166 -199c0 -96 -84 -183 -213 -183c-41 0 -71 9 -93 15c-27 9 -42 15 -52 20c-7 16 -22 121 -24 150l13 5c14 -65 64 -167 171 -167c78 0 123 53 123 128
s-55 111 -128 154c-56 33 -162 84 -162 197c0 93 74 174 198 174c57 0 94 -14 121 -21c3 -36 9 -75 17 -129zM345 804l7 -9c-38 -27 -75 -64 -111 -102h-13c-36 38 -76 74 -113 102l8 9c37 -15 75 -32 110 -55c36 23 75 40 112 55z" />
    <glyph glyph-name="Uacute" unicode="&#xda;" horiz-adv-x="702" 
d="M680 648v-12c-60 -7 -78 -19 -82 -67c-2 -25 -5 -70 -5 -159v-100c0 -112 -16 -195 -71 -255c-43 -46 -106 -67 -173 -67c-55 0 -111 14 -150 45c-62 48 -87 123 -87 233v261c0 98 -8 101 -80 109v12h239v-12c-73 -4 -81 -13 -81 -109v-236c0 -132 38 -262 190 -262
c166 0 188 160 188 299v83c0 88 -2 133 -7 164c-5 43 -19 54 -88 61v12h207zM477 746v-6l-160 -60l-7 11c45 30 99 68 131 91c13 -1 33 -24 36 -36z" />
    <glyph glyph-name="Ucircumflex" unicode="&#xdb;" horiz-adv-x="702" 
d="M680 648v-12c-60 -7 -78 -19 -82 -67c-2 -25 -5 -70 -5 -159v-100c0 -112 -16 -195 -71 -255c-43 -46 -106 -67 -173 -67c-55 0 -111 14 -150 45c-62 48 -87 123 -87 233v261c0 98 -8 101 -80 109v12h239v-12c-73 -4 -81 -13 -81 -109v-236c0 -132 38 -262 190 -262
c166 0 188 160 188 299v83c0 88 -2 133 -7 164c-5 43 -19 54 -88 61v12h207zM484 689l-8 -8c-36 14 -75 36 -110 56c-35 -20 -74 -42 -110 -56l-7 8c37 28 77 64 111 101h12c35 -38 75 -73 112 -101z" />
    <glyph glyph-name="Udieresis" unicode="&#xdc;" horiz-adv-x="702" 
d="M680 648v-12c-60 -7 -78 -19 -82 -67c-2 -25 -5 -70 -5 -159v-100c0 -112 -16 -195 -71 -255c-43 -46 -106 -67 -173 -67c-55 0 -111 14 -150 45c-62 48 -87 123 -87 233v261c0 98 -8 101 -80 109v12h239v-12c-73 -4 -81 -13 -81 -109v-236c0 -132 38 -262 190 -262
c166 0 188 160 188 299v83c0 88 -2 133 -7 164c-5 43 -19 54 -88 61v12h207zM450 777h1c21 0 38 -17 38 -40c0 -22 -17 -40 -39 -40c-20 0 -38 18 -38 40c0 23 18 40 38 40zM279 777h1c21 0 38 -17 38 -40c0 -22 -17 -40 -39 -40c-20 0 -38 18 -38 40c0 23 18 40 38 40z" />
    <glyph glyph-name="Ugrave" unicode="&#xd9;" horiz-adv-x="702" 
d="M680 648v-12c-60 -7 -78 -19 -82 -67c-2 -25 -5 -70 -5 -159v-100c0 -112 -16 -195 -71 -255c-43 -46 -106 -67 -173 -67c-55 0 -111 14 -150 45c-62 48 -87 123 -87 233v261c0 98 -8 101 -80 109v12h239v-12c-73 -4 -81 -13 -81 -109v-236c0 -132 38 -262 190 -262
c166 0 188 160 188 299v83c0 88 -2 133 -7 164c-5 43 -19 54 -88 61v12h207zM415 691l-7 -11l-163 59v6c4 13 23 36 36 41c46 -33 93 -65 134 -95z" />
    <glyph glyph-name="Yacute" unicode="&#xdd;" horiz-adv-x="585" 
d="M587 648v-12c-68 -9 -73 -20 -102 -64c-56 -87 -91 -150 -138 -240c-17 -32 -18 -44 -18 -72v-146c0 -87 8 -96 93 -102v-12h-260v12c81 6 89 15 89 102v145c0 20 -3 31 -19 62c-24 48 -61 119 -121 226c-43 77 -48 86 -106 89v12h223v-12c-66 -10 -67 -21 -52 -50
c46 -92 98 -187 140 -265c36 66 99 183 128 246c24 53 16 61 -58 69v12h201zM420 746v-6l-160 -60l-7 11c45 30 99 68 131 91c13 -1 33 -24 36 -36z" />
    <glyph glyph-name="Ydieresis" unicode="&#x178;" horiz-adv-x="585" 
d="M587 648v-12c-68 -9 -73 -20 -102 -64c-56 -87 -91 -150 -138 -240c-17 -32 -18 -44 -18 -72v-146c0 -87 8 -96 93 -102v-12h-260v12c81 6 89 15 89 102v145c0 20 -3 31 -19 62c-24 48 -61 119 -121 226c-43 77 -48 86 -106 89v12h223v-12c-66 -10 -67 -21 -52 -50
c46 -92 98 -187 140 -265c36 66 99 183 128 246c24 53 16 61 -58 69v12h201zM389 777h1c21 0 38 -17 38 -40c0 -22 -17 -40 -39 -40c-20 0 -38 18 -38 40c0 23 18 40 38 40zM218 777h1c21 0 38 -17 38 -40c0 -22 -17 -40 -39 -40c-20 0 -38 18 -38 40c0 23 18 40 38 40z" />
    <glyph glyph-name="Zcaron" unicode="&#x17d;" horiz-adv-x="568" 
d="M547 165l13 -3c-6 -33 -24 -115 -34 -162h-496l-4 10c137 203 277 408 412 616h-182c-121 0 -134 -10 -151 -45c-10 -20 -17 -42 -28 -81l-12 1c4 47 10 134 11 172h12c11 -23 24 -25 51 -25h395l4 -9c-137 -202 -273 -403 -405 -611c25 -4 81 -6 159 -6
c146 0 179 8 206 42c17 23 33 57 49 101zM405 796l7 -9c-38 -27 -75 -64 -111 -102h-13c-36 38 -76 74 -113 102l8 9c37 -15 75 -32 110 -55c36 23 75 40 112 55z" />
    <glyph glyph-name="aacute" unicode="&#xe1;" horiz-adv-x="407" 
d="M403 39l-74 -51c-17 0 -38 8 -49 20c-11 11 -17 27 -22 45c-35 -25 -89 -65 -111 -65c-70 0 -115 60 -115 114c0 47 24 74 75 92c55 19 124 44 150 64v25c0 80 -32 121 -84 121c-18 0 -33 -7 -43 -19c-12 -13 -21 -34 -30 -66c-4 -16 -11 -22 -24 -22
c-16 0 -38 17 -38 38c0 12 10 22 28 35c29 21 95 58 144 69c27 0 54 -9 74 -25c34 -30 44 -70 44 -124v-191c0 -41 17 -57 36 -57c13 0 24 4 33 11zM257 73v165c-19 -11 -66 -32 -88 -43c-37 -18 -59 -37 -59 -75c0 -53 39 -81 73 -81c22 0 54 13 74 34zM303 647l-116 -160
l-13 5c21 44 59 137 66 150c9 4 50 12 61 11z" />
    <glyph glyph-name="acircumflex" unicode="&#xe2;" horiz-adv-x="407" 
d="M403 39l-74 -51c-17 0 -38 8 -49 20c-11 11 -17 27 -22 45c-35 -25 -89 -65 -111 -65c-70 0 -115 60 -115 114c0 47 24 74 75 92c55 19 124 44 150 64v25c0 80 -32 121 -84 121c-18 0 -33 -7 -43 -19c-12 -13 -21 -34 -30 -66c-4 -16 -11 -22 -24 -22
c-16 0 -38 17 -38 38c0 12 10 22 28 35c29 21 95 58 144 69c27 0 54 -9 74 -25c34 -30 44 -70 44 -124v-191c0 -41 17 -57 36 -57c13 0 24 4 33 11zM257 73v165c-19 -11 -66 -32 -88 -43c-37 -18 -59 -37 -59 -75c0 -53 39 -81 73 -81c22 0 54 13 74 34zM287 492l-10 -6
c-30 30 -59 62 -83 95c-25 -33 -54 -65 -85 -95l-10 6c33 50 62 103 88 156h14c26 -53 53 -106 86 -156z" />
    <glyph glyph-name="adieresis" unicode="&#xe4;" horiz-adv-x="407" 
d="M403 39l-74 -51c-17 0 -38 8 -49 20c-11 11 -17 27 -22 45c-35 -25 -89 -65 -111 -65c-70 0 -115 60 -115 114c0 47 24 74 75 92c55 19 124 44 150 64v25c0 80 -32 121 -84 121c-18 0 -33 -7 -43 -19c-12 -13 -21 -34 -30 -66c-4 -16 -11 -22 -24 -22
c-16 0 -38 17 -38 38c0 12 10 22 28 35c29 21 95 58 144 69c27 0 54 -9 74 -25c34 -30 44 -70 44 -124v-191c0 -41 17 -57 36 -57c13 0 24 4 33 11zM257 73v165c-19 -11 -66 -32 -88 -43c-37 -18 -59 -37 -59 -75c0 -53 39 -81 73 -81c22 0 54 13 74 34zM118 601h1
c21 0 38 -17 38 -40c0 -22 -17 -40 -39 -40c-20 0 -38 18 -38 40c0 23 18 40 38 40zM271 601h1c21 0 38 -17 38 -40c0 -22 -17 -40 -39 -40c-20 0 -38 18 -38 40c0 23 18 40 38 40z" />
    <glyph glyph-name="agrave" unicode="&#xe0;" horiz-adv-x="407" 
d="M403 39l-74 -51c-17 0 -38 8 -49 20c-11 11 -17 27 -22 45c-35 -25 -89 -65 -111 -65c-70 0 -115 60 -115 114c0 47 24 74 75 92c55 19 124 44 150 64v25c0 80 -32 121 -84 121c-18 0 -33 -7 -43 -19c-12 -13 -21 -34 -30 -66c-4 -16 -11 -22 -24 -22
c-16 0 -38 17 -38 38c0 12 10 22 28 35c29 21 95 58 144 69c27 0 54 -9 74 -25c34 -30 44 -70 44 -124v-191c0 -41 17 -57 36 -57c13 0 24 4 33 11zM257 73v165c-19 -11 -66 -32 -88 -43c-37 -18 -59 -37 -59 -75c0 -53 39 -81 73 -81c22 0 54 13 74 34zM225 492l-13 -5
c-45 61 -98 132 -111 149l2 5c6 4 45 13 54 12c23 -53 46 -106 68 -161z" />
    <glyph glyph-name="aring" unicode="&#xe5;" horiz-adv-x="407" 
d="M403 39l-74 -51c-17 0 -38 8 -49 20c-11 11 -17 27 -22 45c-35 -25 -89 -65 -111 -65c-70 0 -115 60 -115 114c0 47 24 74 75 92c55 19 124 44 150 64v25c0 80 -32 121 -84 121c-18 0 -33 -7 -43 -19c-12 -13 -21 -34 -30 -66c-4 -16 -11 -22 -24 -22
c-16 0 -38 17 -38 38c0 12 10 22 28 35c29 21 95 58 144 69c27 0 54 -9 74 -25c34 -30 44 -70 44 -124v-191c0 -41 17 -57 36 -57c13 0 24 4 33 11zM257 73v165c-19 -11 -66 -32 -88 -43c-37 -18 -59 -37 -59 -75c0 -53 39 -81 73 -81c22 0 54 13 74 34zM193 630h1
c35 0 71 -25 71 -69c0 -43 -36 -70 -72 -70s-71 27 -71 70c0 44 35 69 71 69zM194 610h-1c-20 0 -37 -20 -37 -49c0 -28 17 -50 38 -50c23 0 38 22 38 51c0 28 -15 48 -38 48z" />
    <glyph glyph-name="atilde" unicode="&#xe3;" horiz-adv-x="407" 
d="M403 39l-74 -51c-17 0 -38 8 -49 20c-11 11 -17 27 -22 45c-35 -25 -89 -65 -111 -65c-70 0 -115 60 -115 114c0 47 24 74 75 92c55 19 124 44 150 64v25c0 80 -32 121 -84 121c-18 0 -33 -7 -43 -19c-12 -13 -21 -34 -30 -66c-4 -16 -11 -22 -24 -22
c-16 0 -38 17 -38 38c0 12 10 22 28 35c29 21 95 58 144 69c27 0 54 -9 74 -25c34 -30 44 -70 44 -124v-191c0 -41 17 -57 36 -57c13 0 24 4 33 11zM257 73v165c-19 -11 -66 -32 -88 -43c-37 -18 -59 -37 -59 -75c0 -53 39 -81 73 -81c22 0 54 13 74 34zM152 592h1
c13 0 26 -4 51 -16c19 -9 35 -17 52 -17s28 14 37 38l11 -4c-13 -64 -40 -78 -62 -78c-16 0 -37 7 -59 21c-16 8 -28 13 -44 13c-18 0 -32 -15 -41 -40l-12 6c16 59 44 77 66 77z" />
    <glyph glyph-name="ccedilla" unicode="&#xe7;" horiz-adv-x="391" 
d="M376 102l8 -11c-37 -50 -89 -91 -140 -101l-7 -9c-14 -21 -12 -30 3 -45c25 -25 35 -43 35 -63c0 -38 -44 -73 -101 -91l-6 11c38 16 58 43 58 62c1 18 -11 30 -21 40c-22 21 -27 35 -10 58l26 35c-119 0 -190 99 -190 201c0 75 30 141 99 195c49 39 107 55 142 55
c27 0 64 -8 84 -27c11 -10 15 -18 14 -29c0 -18 -17 -35 -27 -35c-5 0 -9 2 -19 12c-27 27 -60 40 -100 40c-64 0 -122 -48 -122 -162c0 -144 99 -191 153 -191c44 0 75 10 121 55z" />
    <glyph glyph-name="eacute" unicode="&#xe9;" horiz-adv-x="396" 
d="M366 98l8 -10c-57 -80 -127 -100 -153 -100c-121 0 -189 98 -189 209c0 67 23 125 64 170c40 43 93 72 141 72h1c80 0 139 -72 139 -138c0 -16 -5 -21 -21 -25c-15 -3 -133 -12 -254 -16c-2 -156 83 -212 155 -212c34 0 71 14 109 50zM210 413h-1
c-44 0 -90 -45 -102 -125c58 0 114 0 173 2c13 0 19 6 19 17c1 52 -27 106 -89 106zM320 647l-116 -160l-13 5c21 44 59 137 66 150c9 4 50 12 61 11z" />
    <glyph glyph-name="ecircumflex" unicode="&#xea;" horiz-adv-x="396" 
d="M366 98l8 -10c-57 -80 -127 -100 -153 -100c-121 0 -189 98 -189 209c0 67 23 125 64 170c40 43 93 72 141 72h1c80 0 139 -72 139 -138c0 -16 -5 -21 -21 -25c-15 -3 -133 -12 -254 -16c-2 -156 83 -212 155 -212c34 0 71 14 109 50zM210 413h-1
c-44 0 -90 -45 -102 -125c58 0 114 0 173 2c13 0 19 6 19 17c1 52 -27 106 -89 106zM313 492l-10 -6c-30 30 -59 62 -83 95c-25 -33 -54 -65 -85 -95l-10 6c33 50 62 103 88 156h14c26 -53 53 -106 86 -156z" />
    <glyph glyph-name="edieresis" unicode="&#xeb;" horiz-adv-x="396" 
d="M366 98l8 -10c-57 -80 -127 -100 -153 -100c-121 0 -189 98 -189 209c0 67 23 125 64 170c40 43 93 72 141 72h1c80 0 139 -72 139 -138c0 -16 -5 -21 -21 -25c-15 -3 -133 -12 -254 -16c-2 -156 83 -212 155 -212c34 0 71 14 109 50zM210 413h-1
c-44 0 -90 -45 -102 -125c58 0 114 0 173 2c13 0 19 6 19 17c1 52 -27 106 -89 106zM137 601h1c21 0 38 -17 38 -40c0 -22 -17 -40 -39 -40c-20 0 -38 18 -38 40c0 23 18 40 38 40zM290 601h1c21 0 38 -17 38 -40c0 -22 -17 -40 -39 -40c-20 0 -38 18 -38 40
c0 23 18 40 38 40z" />
    <glyph glyph-name="egrave" unicode="&#xe8;" horiz-adv-x="396" 
d="M366 98l8 -10c-57 -80 -127 -100 -153 -100c-121 0 -189 98 -189 209c0 67 23 125 64 170c40 43 93 72 141 72h1c80 0 139 -72 139 -138c0 -16 -5 -21 -21 -25c-15 -3 -133 -12 -254 -16c-2 -156 83 -212 155 -212c34 0 71 14 109 50zM210 413h-1
c-44 0 -90 -45 -102 -125c58 0 114 0 173 2c13 0 19 6 19 17c1 52 -27 106 -89 106zM238 492l-13 -5c-45 61 -98 132 -111 149l2 5c6 4 45 13 54 12c23 -53 46 -106 68 -161z" />
    <glyph glyph-name="iacute" unicode="&#xed;" horiz-adv-x="246" 
d="M234 0h-206v12c59 6 67 14 67 85v215c0 61 -5 68 -58 79v11c40 7 86 19 130 39v-344c0 -71 7 -79 67 -85v-12zM229 647l-116 -160l-13 5c21 44 59 137 66 150c9 4 50 12 61 11z" />
    <glyph glyph-name="icircumflex" unicode="&#xee;" horiz-adv-x="246" 
d="M234 0h-206v12c59 6 67 14 67 85v215c0 61 -5 68 -58 79v11c40 7 86 19 130 39v-344c0 -71 7 -79 67 -85v-12zM212 492l-10 -6c-30 30 -59 62 -83 95c-25 -33 -54 -65 -85 -95l-10 6c33 50 62 103 88 156h14c26 -53 53 -106 86 -156z" />
    <glyph glyph-name="idieresis" unicode="&#xef;" horiz-adv-x="246" 
d="M234 0h-206v12c59 6 67 14 67 85v215c0 61 -5 68 -58 79v11c40 7 86 19 130 39v-344c0 -71 7 -79 67 -85v-12zM40 601h1c21 0 38 -17 38 -40c0 -22 -17 -40 -39 -40c-20 0 -38 18 -38 40c0 23 18 40 38 40zM193 601h1c21 0 38 -17 38 -40c0 -22 -17 -40 -39 -40
c-20 0 -38 18 -38 40c0 23 18 40 38 40z" />
    <glyph glyph-name="igrave" unicode="&#xec;" horiz-adv-x="246" 
d="M234 0h-206v12c59 6 67 14 67 85v215c0 61 -5 68 -58 79v11c40 7 86 19 130 39v-344c0 -71 7 -79 67 -85v-12zM143 492l-13 -5c-45 61 -98 132 -111 149l2 5c6 4 45 13 54 12c23 -53 46 -106 68 -161z" />
    <glyph glyph-name="ntilde" unicode="&#xf1;" horiz-adv-x="515" 
d="M494 0h-200v12c61 6 70 13 70 93v168c0 65 -20 117 -91 117c-38 0 -80 -26 -107 -50v-246c0 -69 7 -76 63 -82v-12h-208v12c65 6 73 13 73 83v217c0 62 -5 66 -57 79v10c40 8 84 20 129 41v-81c20 15 45 33 70 49c29 18 49 29 77 29c78 0 123 -54 123 -146v-198
c0 -70 5 -77 58 -83v-12zM215 592h1c13 0 26 -4 51 -16c19 -9 35 -17 52 -17s28 14 37 38l11 -4c-13 -64 -40 -78 -62 -78c-16 0 -37 7 -59 21c-16 8 -28 13 -44 13c-18 0 -32 -15 -41 -40l-12 6c16 59 44 77 66 77z" />
    <glyph glyph-name="oacute" unicode="&#xf3;" horiz-adv-x="484" 
d="M243 439h1c122 0 208 -99 208 -218c0 -155 -111 -233 -209 -233c-132 0 -211 107 -211 217c0 160 124 234 211 234zM233 419h-1c-67 0 -114 -70 -114 -181c0 -132 51 -230 136 -230c63 0 112 48 112 194c0 114 -44 217 -133 217zM350 647l-116 -160l-13 5
c21 44 59 137 66 150c9 4 50 12 61 11z" />
    <glyph glyph-name="ocircumflex" unicode="&#xf4;" horiz-adv-x="484" 
d="M243 439h1c122 0 208 -99 208 -218c0 -155 -111 -233 -209 -233c-132 0 -211 107 -211 217c0 160 124 234 211 234zM233 419h-1c-67 0 -114 -70 -114 -181c0 -132 51 -230 136 -230c63 0 112 48 112 194c0 114 -44 217 -133 217zM336 492l-10 -6c-30 30 -59 62 -83 95
c-25 -33 -54 -65 -85 -95l-10 6c33 50 62 103 88 156h14c26 -53 53 -106 86 -156z" />
    <glyph glyph-name="odieresis" unicode="&#xf6;" horiz-adv-x="484" 
d="M243 439h1c122 0 208 -99 208 -218c0 -155 -111 -233 -209 -233c-132 0 -211 107 -211 217c0 160 124 234 211 234zM233 419h-1c-67 0 -114 -70 -114 -181c0 -132 51 -230 136 -230c63 0 112 48 112 194c0 114 -44 217 -133 217zM165 601h1c21 0 38 -17 38 -40
c0 -22 -17 -40 -39 -40c-20 0 -38 18 -38 40c0 23 18 40 38 40zM318 601h1c21 0 38 -17 38 -40c0 -22 -17 -40 -39 -40c-20 0 -38 18 -38 40c0 23 18 40 38 40z" />
    <glyph glyph-name="ograve" unicode="&#xf2;" horiz-adv-x="484" 
d="M243 439h1c122 0 208 -99 208 -218c0 -155 -111 -233 -209 -233c-132 0 -211 107 -211 217c0 160 124 234 211 234zM233 419h-1c-67 0 -114 -70 -114 -181c0 -132 51 -230 136 -230c63 0 112 48 112 194c0 114 -44 217 -133 217zM270 492l-13 -5c-45 61 -98 132 -111 149
l2 5c6 4 45 13 54 12c23 -53 46 -106 68 -161z" />
    <glyph glyph-name="otilde" unicode="&#xf5;" horiz-adv-x="484" 
d="M243 439h1c122 0 208 -99 208 -218c0 -155 -111 -233 -209 -233c-132 0 -211 107 -211 217c0 160 124 234 211 234zM233 419h-1c-67 0 -114 -70 -114 -181c0 -132 51 -230 136 -230c63 0 112 48 112 194c0 114 -44 217 -133 217zM198 592h1c13 0 26 -4 51 -16
c19 -9 35 -17 52 -17s28 14 37 38l11 -4c-13 -64 -40 -78 -62 -78c-16 0 -37 7 -59 21c-16 8 -28 13 -44 13c-18 0 -32 -15 -41 -40l-12 6c16 59 44 77 66 77z" />
    <glyph glyph-name="scaron" unicode="&#x161;" horiz-adv-x="336" 
d="M295 323l-10 -3c-18 53 -55 98 -108 98c-40 0 -67 -30 -67 -71c0 -50 42 -76 83 -94c75 -32 119 -69 119 -131c0 -87 -79 -134 -155 -134c-50 0 -89 18 -105 29c-7 13 -16 80 -17 113l11 4c18 -65 67 -125 128 -125c39 0 72 26 72 74c0 46 -29 73 -81 97
c-54 26 -116 61 -116 133c0 69 58 126 144 126c39 0 65 -8 84 -16c7 -23 16 -78 18 -100zM263 649l10 -6c-34 -50 -61 -103 -88 -156h-14c-26 53 -53 106 -86 156l10 6c30 -29 59 -62 83 -95c25 33 54 66 85 95z" />
    <glyph glyph-name="uacute" unicode="&#xfa;" horiz-adv-x="500" 
d="M489 35v-12c-20 -2 -46 -9 -70 -16c-25 -6 -48 -14 -64 -19l-6 6v75c-21 -18 -45 -37 -73 -55c-29 -18 -52 -26 -75 -26c-66 0 -118 39 -118 139v213c0 49 -7 55 -34 61l-23 6v10c18 1 41 4 65 6c24 3 49 7 67 11c-2 -23 -3 -56 -3 -138v-140c0 -89 40 -115 85 -115
c34 0 78 16 109 50v248c0 49 -9 56 -42 62l-31 6v10c27 1 54 4 79 6c27 3 49 7 66 11v-338c0 -48 8 -55 44 -59zM350 647l-116 -160l-13 5c21 44 59 137 66 150c9 4 50 12 61 11z" />
    <glyph glyph-name="ucircumflex" unicode="&#xfb;" horiz-adv-x="500" 
d="M489 35v-12c-20 -2 -46 -9 -70 -16c-25 -6 -48 -14 -64 -19l-6 6v75c-21 -18 -45 -37 -73 -55c-29 -18 -52 -26 -75 -26c-66 0 -118 39 -118 139v213c0 49 -7 55 -34 61l-23 6v10c18 1 41 4 65 6c24 3 49 7 67 11c-2 -23 -3 -56 -3 -138v-140c0 -89 40 -115 85 -115
c34 0 78 16 109 50v248c0 49 -9 56 -42 62l-31 6v10c27 1 54 4 79 6c27 3 49 7 66 11v-338c0 -48 8 -55 44 -59zM336 492l-10 -6c-30 30 -59 62 -83 95c-25 -33 -54 -65 -85 -95l-10 6c33 50 62 103 88 156h14c26 -53 53 -106 86 -156z" />
    <glyph glyph-name="udieresis" unicode="&#xfc;" horiz-adv-x="500" 
d="M489 35v-12c-20 -2 -46 -9 -70 -16c-25 -6 -48 -14 -64 -19l-6 6v75c-21 -18 -45 -37 -73 -55c-29 -18 -52 -26 -75 -26c-66 0 -118 39 -118 139v213c0 49 -7 55 -34 61l-23 6v10c18 1 41 4 65 6c24 3 49 7 67 11c-2 -23 -3 -56 -3 -138v-140c0 -89 40 -115 85 -115
c34 0 78 16 109 50v248c0 49 -9 56 -42 62l-31 6v10c27 1 54 4 79 6c27 3 49 7 66 11v-338c0 -48 8 -55 44 -59zM165 601h1c21 0 38 -17 38 -40c0 -22 -17 -40 -39 -40c-20 0 -38 18 -38 40c0 23 18 40 38 40zM318 601h1c21 0 38 -17 38 -40c0 -22 -17 -40 -39 -40
c-20 0 -38 18 -38 40c0 23 18 40 38 40z" />
    <glyph glyph-name="ugrave" unicode="&#xf9;" horiz-adv-x="500" 
d="M489 35v-12c-20 -2 -46 -9 -70 -16c-25 -6 -48 -14 -64 -19l-6 6v75c-21 -18 -45 -37 -73 -55c-29 -18 -52 -26 -75 -26c-66 0 -118 39 -118 139v213c0 49 -7 55 -34 61l-23 6v10c18 1 41 4 65 6c24 3 49 7 67 11c-2 -23 -3 -56 -3 -138v-140c0 -89 40 -115 85 -115
c34 0 78 16 109 50v248c0 49 -9 56 -42 62l-31 6v10c27 1 54 4 79 6c27 3 49 7 66 11v-338c0 -48 8 -55 44 -59zM270 492l-13 -5c-45 61 -98 132 -111 149l2 5c6 4 45 13 54 12c23 -53 46 -106 68 -161z" />
    <glyph glyph-name="yacute" unicode="&#xfd;" horiz-adv-x="426" 
d="M445 427v-12c-51 -9 -57 -15 -85 -73c-26 -58 -55 -142 -126 -315c-64 -157 -88 -219 -102 -273c-5 -19 -17 -24 -28 -24c-23 0 -47 21 -47 42c0 14 11 23 26 34c31 20 50 47 78 101c20 40 29 62 35 78c5 15 2 24 -4 41c-39 117 -84 234 -112 307c-24 64 -30 73 -83 82
v12h190v-12c-47 -8 -53 -16 -37 -60l93 -256c27 68 73 202 90 255c13 41 7 53 -54 61v12h166zM340 647l-116 -160l-13 5c21 44 59 137 66 150c9 4 50 12 61 11z" />
    <glyph glyph-name="ydieresis" unicode="&#xff;" horiz-adv-x="426" 
d="M445 427v-12c-51 -9 -57 -15 -85 -73c-26 -58 -55 -142 -126 -315c-64 -157 -88 -219 -102 -273c-5 -19 -17 -24 -28 -24c-23 0 -47 21 -47 42c0 14 11 23 26 34c31 20 50 47 78 101c20 40 29 62 35 78c5 15 2 24 -4 41c-39 117 -84 234 -112 307c-24 64 -30 73 -83 82
v12h190v-12c-47 -8 -53 -16 -37 -60l93 -256c27 68 73 202 90 255c13 41 7 53 -54 61v12h166zM146 601h1c21 0 38 -17 38 -40c0 -22 -17 -40 -39 -40c-20 0 -38 18 -38 40c0 23 18 40 38 40zM299 601h1c21 0 38 -17 38 -40c0 -22 -17 -40 -39 -40c-20 0 -38 18 -38 40
c0 23 18 40 38 40z" />
    <glyph glyph-name="zcaron" unicode="&#x17e;" horiz-adv-x="387" 
d="M367 126l13 -7c-12 -34 -27 -78 -42 -119h-311l-5 9c84 131 162 257 243 397h-77c-86 0 -99 -17 -129 -73l-14 -27l-12 5c8 31 23 94 32 136h11c6 -15 17 -21 54 -20h222l5 -9c-79 -129 -157 -255 -239 -398h102c76 0 95 18 133 83zM285 648l10 -6
c-34 -50 -61 -103 -88 -156h-14c-26 53 -53 106 -86 156l10 6c30 -29 59 -62 83 -95c25 33 54 66 85 95z" />
    <glyph glyph-name="twodotenleader" unicode="&#x2025;" horiz-adv-x="500" 
d="M126 -12h-1c-27 0 -47 20 -47 50c0 27 20 50 48 50s48 -23 48 -50c0 -30 -20 -50 -48 -50zM374 -12h-1c-27 0 -47 20 -47 50c0 27 20 50 48 50s48 -23 48 -50c0 -30 -20 -50 -48 -50z" />
    <glyph glyph-name="onedotenleader" unicode="&#x2024;" horiz-adv-x="500" 
d="M250 -12h-1c-27 0 -47 20 -47 50c0 27 20 50 48 50s48 -23 48 -50c0 -30 -20 -50 -48 -50z" />
    <glyph glyph-name="colonmonetary" unicode="&#x20a1;" horiz-adv-x="457" 
d="M434 485l-14 -2c-13 49 -29 82 -59 100l-76 -563c77 5 108 55 138 123l13 -3c-9 -40 -24 -90 -34 -119c-17 -7 -70 -21 -123 -21l-9 -66h-24l10 68c-19 1 -27 4 -45 9l-11 -77h-26l14 86c-102 44 -150 158 -150 283c0 220 130 315 235 320l10 65h24l-9 -65h5
c16 0 23 -2 40 -4l11 69h23l-9 -74c25 -5 44 -12 54 -15c5 -45 9 -78 12 -114zM261 22l77 572c-13 7 -25 8 -44 9l-78 -564c17 -9 25 -14 45 -17zM194 52l75 550c-91 -14 -144 -141 -144 -291c0 -133 38 -228 69 -259z" />
    <glyph glyph-name="figuredash" unicode="&#x2012;" horiz-adv-x="345" 
d="M299 296h-253v44h253v-44z" />
    <glyph glyph-name="oneeighth" unicode="&#x215b;" horiz-adv-x="673" 
d="M532 640l-394 -666l-19 16l392 665zM242 311h-172v10c48 6 59 14 59 58v177c0 34 -3 40 -40 44l-22 2v10c38 5 74 13 117 26v-259c0 -44 10 -50 58 -58v-10zM490 327h1c52 0 96 -32 96 -76c0 -14 -5 -30 -17 -43c-5 -4 -16 -13 -45 -30c42 -22 76 -45 76 -93
c0 -61 -65 -93 -117 -93c-60 0 -113 32 -113 88c0 25 15 41 27 51c9 7 31 21 46 30c-28 14 -61 40 -61 79c0 46 42 87 107 87zM484 311h-1c-30 0 -52 -19 -52 -50c0 -40 35 -57 82 -78c14 12 28 33 28 63c0 46 -30 65 -57 65zM486 8h1c34 0 63 17 63 61c0 38 -30 59 -93 85
c-26 -14 -37 -43 -37 -71c0 -46 33 -75 66 -75z" />
    <glyph glyph-name="threeeighths" unicode="&#x215c;" horiz-adv-x="673" 
d="M533 640l-394 -666l-19 16l392 665zM205 500v-1c53 -8 85 -43 85 -77c0 -85 -118 -122 -151 -122c-24 0 -49 10 -61 20c-8 6 -9 15 -6 22c2 6 7 12 13 16c5 5 10 5 17 -1c17 -13 42 -29 71 -29c33 0 58 23 58 76c0 48 -36 67 -71 67c-15 0 -28 -3 -38 -6l-4 11
c62 20 91 43 91 78c0 28 -20 47 -53 47c-29 0 -54 -23 -67 -45l-8 7l26 42c16 16 44 30 74 30h1c50 0 85 -31 85 -67c0 -15 -6 -27 -16 -36c-9 -8 -26 -19 -46 -32zM492 327h1c52 0 96 -32 96 -76c0 -14 -5 -30 -17 -43c-5 -4 -17 -13 -45 -30c42 -22 76 -45 76 -93
c0 -61 -65 -93 -118 -93c-60 0 -112 32 -112 88c0 25 14 41 27 51c8 7 30 21 47 30c-29 14 -61 40 -61 79c0 46 41 87 106 87zM485 311h-1c-29 0 -52 -19 -52 -50c0 -40 35 -57 82 -78c15 12 29 34 29 64c0 46 -32 64 -58 64zM488 8h1c33 0 63 17 63 61c0 38 -31 59 -93 85
c-26 -14 -38 -43 -38 -71c0 -48 33 -75 67 -75z" />
    <glyph glyph-name="fiveeighths" unicode="&#x215d;" horiz-adv-x="673" 
d="M537 640l-394 -666l-18 16l392 665zM126 583l-16 -92c26 11 57 18 71 18c74 0 111 -44 111 -84c0 -33 -19 -62 -50 -87c-33 -25 -75 -38 -104 -38c-25 0 -51 12 -60 19c-8 7 -9 15 -7 23c3 7 7 13 14 18c6 3 10 3 17 -3c13 -10 42 -29 72 -29c38 0 62 27 62 72
c0 41 -31 74 -90 74c-29 0 -46 -5 -59 -9l24 162h166l-10 -44h-141zM496 327h1c50 0 95 -32 95 -76c0 -14 -5 -30 -16 -43c-5 -4 -17 -13 -45 -30c42 -22 76 -45 76 -93c0 -61 -65 -93 -118 -93c-60 0 -112 32 -112 88c0 25 14 41 26 51c9 7 31 21 47 30
c-28 14 -61 40 -61 79c0 46 42 87 107 87zM489 311h-1c-29 0 -52 -19 -52 -50c0 -40 35 -57 82 -78c14 12 30 34 30 64c0 46 -33 64 -59 64zM492 8h1c34 0 64 17 64 61c0 38 -31 59 -94 85c-27 -14 -38 -43 -38 -71c0 -41 34 -75 67 -75z" />
    <glyph glyph-name="seveneighths" unicode="&#x215e;" horiz-adv-x="673" 
d="M513 640l-394 -666l-19 16l392 665zM315 627l3 -5c-52 -106 -105 -212 -153 -318l-46 -4l-4 7c61 90 116 183 165 276h-136c-30 0 -35 -8 -49 -35l-11 -1c6 35 10 57 13 80h218zM480 327h1c51 0 96 -32 96 -76c0 -15 -5 -30 -17 -43c-5 -4 -16 -13 -45 -31
c42 -21 76 -44 76 -92c0 -61 -65 -93 -117 -93c-60 0 -113 32 -113 88c0 25 14 41 27 51c9 7 31 21 47 30c-29 14 -61 40 -61 79c0 46 42 87 106 87zM473 311h-1c-29 0 -51 -19 -51 -50c0 -40 34 -57 81 -78c15 12 31 33 31 63c0 46 -33 65 -60 65zM476 8h1
c34 0 63 17 63 61c0 38 -30 59 -92 85c-27 -14 -38 -43 -38 -69c0 -48 33 -77 66 -77z" />
    <glyph glyph-name="onethird" unicode="&#x2153;" horiz-adv-x="673" 
d="M536 640l-394 -666l-18 16l392 665zM247 311h-172v10c48 6 59 14 59 58v177c0 34 -3 40 -40 44l-22 2v10c37 5 74 12 117 26v-259c0 -44 10 -50 58 -58v-10zM517 192v-1c53 -9 85 -44 85 -78c0 -85 -118 -122 -151 -122c-24 0 -49 10 -61 20c-8 6 -9 15 -6 22
c2 6 7 12 13 16c6 5 10 5 18 -1c17 -13 41 -29 70 -29c33 0 58 23 58 76c0 49 -36 68 -71 68c-15 0 -28 -3 -38 -7l-4 12c62 19 91 43 91 78c0 28 -20 47 -53 47c-29 0 -54 -23 -67 -45l-8 7l26 42c17 16 44 30 74 30h1c50 0 85 -31 85 -68c0 -14 -6 -27 -16 -35
c-9 -8 -26 -19 -46 -32z" />
    <glyph glyph-name="twothirds" unicode="&#x2154;" horiz-adv-x="673" 
d="M565 640l-394 -666l-19 16l393 665zM284 386l11 -3c-9 -28 -15 -51 -20 -76h-222v12c52 42 159 127 159 205c0 50 -26 72 -66 72c-38 0 -61 -25 -77 -49l-10 8l32 43c19 25 51 38 85 38c49 0 96 -34 96 -95c0 -46 -32 -80 -100 -140l-51 -47v-2h98c32 0 48 2 65 34z
M536 192v-1c53 -8 85 -40 85 -77c0 -85 -118 -122 -151 -122c-25 0 -50 10 -61 20c-8 6 -9 15 -7 22c3 6 8 11 13 16c6 5 11 5 18 -1c17 -13 41 -29 71 -29c33 0 58 23 58 76c0 48 -36 67 -71 67c-16 0 -28 -3 -39 -6l-4 11c62 20 91 43 91 78c0 28 -20 47 -53 47
c-29 0 -54 -23 -67 -45l-8 7l26 42c17 16 44 31 74 31h1c50 0 85 -32 85 -68c0 -15 -6 -27 -16 -36c-9 -8 -26 -19 -45 -32z" />
    <glyph glyph-name="one.superior" unicode="&#xb9;" horiz-adv-x="311" 
d="M243 415h-172v10c48 5 59 14 59 58v178c0 34 -3 41 -40 44l-23 2v9c38 5 75 13 118 27v-260c0 -44 9 -50 58 -58v-10z" />
    <glyph glyph-name="two.superior" unicode="&#xb2;" horiz-adv-x="311" 
d="M266 494l12 -3c-10 -28 -15 -51 -21 -75h-220v10c50 43 158 128 158 206c0 50 -26 72 -63 72c-38 0 -62 -25 -80 -49l-10 8l30 38c23 29 53 43 86 43c50 0 96 -34 96 -95c0 -46 -32 -79 -99 -140l-51 -47v-2h97c34 0 49 2 65 34z" />
    <glyph glyph-name="three.superior" unicode="&#xb3;" horiz-adv-x="311" 
d="M181 608v-1c53 -8 85 -43 85 -77c0 -85 -118 -122 -151 -122c-24 0 -49 10 -61 20c-8 6 -9 15 -6 22c2 6 7 11 13 16c5 5 10 5 17 -1c17 -13 42 -29 71 -29c33 0 58 23 58 76c0 48 -36 67 -71 67c-15 0 -28 -3 -38 -6l-4 11c62 20 91 43 91 78c0 28 -20 47 -53 47
c-29 0 -54 -23 -67 -45l-8 7l26 42c16 16 44 30 74 30h1c50 0 85 -31 85 -67c0 -15 -6 -27 -16 -36c-9 -8 -26 -19 -46 -32z" />
    <glyph glyph-name="exclam.sc" unicode="&#xf721;" horiz-adv-x="222" 
d="M110 463h1c47 0 53 -19 47 -57l-41 -256h-15l-39 256c-6 38 1 57 47 57zM111 -12h-1c-25 0 -46 20 -46 50c0 26 21 49 47 49c28 0 49 -23 49 -49c0 -30 -21 -50 -49 -50z" />
    <glyph glyph-name="hungarumlaut.sc" unicode="&#xf6f8;" 
d="M222 665l-104 -135l-13 4c17 38 45 105 52 125c12 5 52 11 62 10zM343 665l-104 -135l-13 4c17 38 45 105 53 125c11 5 52 11 62 10z" />
    <glyph glyph-name="dollar.oldstyle" unicode="&#xf724;" horiz-adv-x="426" 
d="M229 257l14 -5c78 -27 138 -50 138 -130c0 -72 -62 -124 -152 -132v-71h-24v69c-70 1 -116 25 -134 35c-5 16 -16 59 -26 112l14 3c21 -47 73 -122 146 -128v179l-29 9c-66 22 -112 51 -112 115c0 66 51 120 141 129v63h24v-61c26 0 56 -4 110 -19c5 -26 13 -54 20 -101
l-12 -5c-19 43 -54 97 -118 105v-167zM205 264v159c-56 -3 -83 -37 -83 -77c0 -44 32 -68 83 -82zM229 182v-173c56 3 87 31 87 81c0 40 -17 70 -87 92z" />
    <glyph glyph-name="dollar.superior" unicode="&#xf6e4;" horiz-adv-x="311" 
d="M169 607l13 -4c57 -19 99 -38 99 -92c0 -55 -51 -93 -112 -98v-52h-22v50c-49 1 -85 17 -98 26c-3 11 -11 42 -18 81l10 4c15 -39 55 -90 106 -94v130l-15 4c-51 15 -87 41 -87 89c0 46 37 86 102 91v45h22v-43c16 0 37 -3 80 -14c5 -19 9 -39 15 -74l-10 -3
c-14 35 -41 71 -85 75v-121zM147 612v116c-35 -3 -59 -25 -59 -56s19 -49 59 -60zM169 552v-125c40 3 61 24 61 58c0 33 -11 52 -61 67z" />
    <glyph glyph-name="ampersand.sc" unicode="&#xf726;" horiz-adv-x="558" 
d="M544 288l-23 -4c-30 -6 -44 -17 -73 -56c-21 -29 -39 -56 -68 -98c35 -34 99 -110 119 -145l-5 -5c-38 3 -90 18 -111 40c-8 8 -25 27 -48 51c-40 -51 -86 -84 -141 -84c-95 0 -144 69 -144 128c0 58 41 87 105 131c-31 28 -55 60 -55 100c0 73 62 120 124 120
c63 0 114 -42 114 -104c0 -30 -14 -50 -34 -65c-14 -10 -27 -21 -58 -42c28 -24 67 -61 121 -112c25 37 39 64 50 87c16 35 16 48 -18 54l-25 4v12h170v-12zM217 448h-1c-31 0 -57 -33 -57 -74c0 -42 25 -70 74 -108c32 25 46 55 46 94c0 48 -25 88 -62 88zM221 37h1
c41 0 81 20 101 47c-61 64 -100 100 -156 152c-29 -25 -49 -54 -49 -95c0 -67 56 -104 103 -104z" />
    <glyph glyph-name="acute.sc" unicode="&#xf7b4;" horiz-adv-x="401" 
d="M324 657l-149 -134l-15 4c26 35 79 111 89 126c11 5 60 10 72 9z" />
    <glyph glyph-name="parenleft.superior" unicode="&#x207d;" horiz-adv-x="226" 
d="M202 279l-9 -10c-106 61 -152 167 -152 275v1c0 106 46 212 152 274l9 -10c-61 -52 -100 -158 -100 -265s39 -213 100 -265z" />
    <glyph glyph-name="parenright.superior" unicode="&#x207e;" horiz-adv-x="226" 
d="M184 544v-1c0 -107 -46 -213 -152 -274l-8 10c61 52 100 158 100 265s-39 213 -100 265l8 10c106 -62 152 -168 152 -275z" />
    <glyph glyph-name="zero.oldstyle" unicode="&#xf730;" horiz-adv-x="488" 
d="M244 443h1c97 0 200 -73 200 -225c0 -155 -103 -230 -201 -230c-101 0 -201 72 -201 223c0 157 103 232 201 232zM244 412h-1c-82 0 -131 -83 -131 -198c0 -110 47 -195 132 -195c83 0 132 82 132 195c0 115 -49 198 -132 198z" />
    <glyph glyph-name="one.oldstyle" unicode="&#xf731;" horiz-adv-x="313" 
d="M293 0h-252v12l53 8c31 5 37 17 37 64v236c0 55 -6 64 -40 67l-62 4v11c65 11 120 24 174 41v-359c0 -47 5 -59 37 -64l53 -8v-12z" />
    <glyph glyph-name="two.oldstyle" unicode="&#xf732;" horiz-adv-x="413" 
d="M394 111l-24 -111h-336v13c57 44 221 154 221 275c0 49 -22 101 -95 101c-53 0 -91 -54 -110 -78l-11 10l47 71c35 36 75 51 111 51c88 0 136 -62 136 -134c0 -58 -35 -100 -76 -138c-31 -30 -71 -63 -122 -106v-2h168c42 0 54 4 78 50z" />
    <glyph glyph-name="three.oldstyle" unicode="&#xf733;" horiz-adv-x="376" 
d="M207 210v-4c77 -14 125 -74 125 -137c0 -163 -182 -230 -232 -230c-33 0 -62 14 -77 28c-14 13 -16 23 -11 35c3 7 9 15 17 21c5 5 11 5 19 -2c23 -21 55 -42 103 -42c56 0 105 48 105 148c0 94 -62 129 -104 129c-23 0 -44 -5 -61 -12l-5 14c92 38 136 79 136 143
c0 61 -36 92 -86 92c-44 0 -74 -35 -91 -60l-12 8l38 60c26 24 61 42 102 42h1c71 0 120 -49 120 -119c0 -26 -11 -49 -29 -66c-14 -14 -32 -29 -58 -48z" />
    <glyph glyph-name="four.oldstyle" unicode="&#xf734;" horiz-adv-x="452" 
d="M437 88l-9 -49h-83v-195h-71v195h-246v28c98 127 194 253 290 376h27v-355h92zM274 88v260h-2c-65 -85 -129 -170 -196 -260h198z" />
    <glyph glyph-name="five.oldstyle" unicode="&#xf735;" horiz-adv-x="371" 
d="M101 357l-22 -111c112 -1 244 -44 244 -181c0 -55 -29 -109 -83 -151c-61 -48 -151 -74 -213 -75l-2 16c35 6 224 42 224 195c0 106 -108 132 -202 132l40 240l235 21l-14 -67z" />
    <glyph glyph-name="six.oldstyle" unicode="&#xf736;" horiz-adv-x="463" 
d="M407 600l4 -16c-61 -14 -120 -47 -165 -92c-43 -41 -81 -96 -103 -163l67 28c24 11 42 15 50 15c86 0 161 -63 161 -176c0 -117 -84 -208 -191 -208c-92 0 -185 68 -185 231s109 288 241 346c42 19 83 30 121 35zM210 326h-1c-25 0 -51 -9 -73 -20c-8 -31 -8 -58 -8 -83
c0 -134 57 -214 120 -214c48 0 97 32 97 137c0 76 -25 180 -135 180z" />
    <glyph glyph-name="seven.oldstyle" unicode="&#xf737;" horiz-adv-x="409" 
d="M391 431l6 -9c-47 -83 -174 -330 -300 -569l-66 -15l-6 11c115 159 229 356 313 513h-308v69h361z" />
    <glyph glyph-name="eight.oldstyle" unicode="&#xf738;" horiz-adv-x="431" 
d="M222 600h1c85 0 144 -60 144 -140c0 -27 -9 -52 -27 -72c-11 -12 -31 -32 -74 -61c65 -42 124 -86 124 -168c0 -113 -99 -171 -178 -171c-95 0 -171 55 -171 158c0 43 21 71 40 89c14 14 53 42 88 64c-58 33 -104 79 -104 146c0 81 63 155 157 155zM217 582h-1
c-56 0 -85 -52 -85 -104c0 -75 60 -107 121 -142c22 20 51 56 51 125c0 89 -48 121 -86 121zM222 6h1c54 0 94 41 94 124c0 77 -61 118 -133 159c-48 -38 -72 -87 -72 -137c0 -94 53 -146 110 -146z" />
    <glyph glyph-name="nine.oldstyle" unicode="&#xf739;" horiz-adv-x="447" 
d="M224 443h1c124 0 177 -114 177 -227c0 -183 -116 -296 -239 -346c-34 -14 -93 -30 -139 -32l-4 15c105 20 238 94 289 261l-35 -17c-41 -21 -69 -23 -82 -23c-72 0 -150 64 -150 164c0 134 99 205 182 205zM209 423h-1c-56 0 -91 -65 -91 -139c0 -115 66 -166 130 -166
c31 0 53 9 67 17c5 22 8 42 8 78c0 66 -15 210 -113 210z" />
    <glyph glyph-name="comma.superior" unicode="&#xf6e2;" horiz-adv-x="171" 
d="M71 509h1c28 0 66 -30 66 -75c0 -56 -47 -83 -97 -97l-4 12c33 14 57 35 57 64c0 27 -23 44 -44 49c-7 1 -14 8 -14 19c0 18 19 28 35 28z" />
    <glyph glyph-name="uni2014.alt" unicode="&#xe0fb;" horiz-adv-x="710" 
d="M659 204h-609v42h609v-42z" />
    <glyph glyph-name="period.superior" unicode="&#xf6e8;" horiz-adv-x="171" 
d="M84 402h-1c-21 0 -40 17 -40 43s18 44 41 44c25 0 43 -19 43 -44c0 -26 -18 -43 -43 -43z" />
    <glyph glyph-name="question.sc" unicode="&#xf73f;" horiz-adv-x="316" 
d="M173 140l-7 -10c-31 17 -81 47 -81 95c0 31 21 50 64 77c49 30 82 50 82 79s-20 46 -46 46c-50 0 -84 -61 -102 -61c-14 0 -33 20 -33 35c0 10 4 18 16 28c27 23 61 34 80 34h1c59 0 125 -55 125 -117c0 -28 -10 -52 -63 -83c-45 -27 -62 -40 -62 -66
c0 -22 10 -38 26 -57zM148 -12h-1c-24 0 -43 19 -43 47c0 25 19 47 44 47c27 0 45 -22 45 -47c0 -28 -18 -47 -45 -47z" />
    <glyph glyph-name="a.superior" unicode="&#xf6e9;" horiz-adv-x="271" 
d="M262 331l-59 -31c-23 3 -33 21 -37 36c-25 -16 -52 -36 -71 -36c-40 0 -67 36 -67 67c0 25 14 42 41 52c29 12 78 28 96 42v12c0 37 -20 59 -48 59c-19 0 -32 -18 -41 -52c-3 -10 -9 -13 -16 -13c-12 0 -28 11 -28 25c0 9 7 16 16 22c15 11 54 34 90 40
c51 0 76 -31 76 -79v-109c0 -24 9 -29 19 -29c8 0 15 1 24 5zM165 351v94c-12 -6 -40 -18 -52 -24c-21 -11 -30 -21 -30 -41c0 -31 21 -46 41 -46c16 0 34 9 41 17z" />
    <glyph glyph-name="b.superior" unicode="&#xf6ea;" horiz-adv-x="304" 
d="M98 530l46 20c9 3 16 3 22 3c61 0 113 -51 113 -116c0 -82 -68 -137 -146 -137c-26 0 -54 5 -85 21v310c1 33 -1 35 -40 42v8c28 3 63 13 90 21v-172zM98 519v-155c0 -9 1 -14 4 -21c4 -10 20 -27 46 -27c46 -1 75 41 75 105c0 70 -36 106 -88 106c-14 0 -26 -2 -37 -8z
" />
    <glyph glyph-name="cent.superior" unicode="&#xf6e0;" horiz-adv-x="311" 
d="M276 515l6 -8c-28 -39 -67 -60 -98 -64v-59h-22v58c-79 2 -132 60 -132 125c0 50 26 89 59 113c26 19 52 29 73 33v51h22v-49c4 1 7 1 13 1c27 0 55 -8 67 -17c5 -5 6 -12 6 -18c0 -12 -11 -23 -23 -23c-3 0 -5 1 -11 6c-17 17 -36 28 -52 29v-216c29 0 59 9 92 38z
M162 480v214c-32 0 -81 -24 -81 -101c0 -73 50 -105 81 -113z" />
    <glyph glyph-name="d.superior" unicode="&#xf6eb;" horiz-adv-x="308" 
d="M300 334v-9c-22 -4 -62 -12 -95 -25v31l-39 -23c-9 -5 -17 -8 -26 -8c-46 0 -116 35 -116 120c0 74 66 133 148 133c9 0 22 -1 33 -6v85c0 32 -2 33 -44 41v8c40 5 76 14 94 21v-337c0 -26 3 -28 19 -29zM205 347v160c-10 17 -32 30 -53 30c-20 0 -71 -17 -71 -105
c0 -72 43 -102 77 -102c22 0 35 7 47 17z" />
    <glyph glyph-name="e.superior" unicode="&#xf6ec;" horiz-adv-x="263" 
d="M147 553h1c45 0 85 -39 86 -85c0 -11 -2 -16 -12 -17c-9 -2 -83 -7 -148 -10c-2 -73 45 -101 90 -101c21 0 39 8 62 25l6 -5c-34 -49 -74 -60 -92 -60c-73 0 -116 55 -116 119c0 76 58 134 123 134zM78 458l89 4c10 0 12 3 12 14c0 31 -19 62 -47 62h-1
c-21 0 -49 -30 -53 -80z" />
    <glyph glyph-name="i.superior" unicode="&#xf6ed;" horiz-adv-x="158" 
d="M76 685h1c19 0 34 -15 34 -34s-15 -33 -35 -33c-16 0 -33 14 -33 33s17 34 33 34zM152 308h-139v9c42 9 46 12 46 45v127c0 28 -2 31 -39 39v7c30 4 65 15 85 21h2v-194c0 -33 2 -35 45 -45v-9z" />
    <glyph glyph-name="l.superior" unicode="&#xf6ee;" horiz-adv-x="154" 
d="M147 308h-140v9c42 10 45 12 45 43v273c0 34 -2 35 -47 42v8c37 5 73 14 96 21v-344c0 -31 3 -33 46 -43v-9z" />
    <glyph glyph-name="m.superior" unicode="&#xf6ef;" horiz-adv-x="475" 
d="M461 308h-128v8c37 10 39 11 39 46v100c0 38 -20 61 -52 61c-21 0 -39 -11 -57 -27c1 -7 1 -13 1 -20v-114c0 -34 3 -36 38 -46v-8h-126v8c36 10 38 12 38 46v101c0 38 -20 60 -51 60c-25 0 -43 -14 -57 -25v-136c0 -34 4 -36 36 -46v-8h-131v8c42 10 46 12 46 46v122
c0 34 -2 35 -39 44v7c29 5 58 12 86 21h2v-43l33 24c23 15 37 19 52 19c29 0 56 -17 68 -47l39 28c22 15 36 19 49 19c43 0 75 -30 75 -84v-110c0 -34 3 -36 39 -46v-8z" />
    <glyph glyph-name="n.superior" unicode="&#x207f;" horiz-adv-x="323" 
d="M309 308h-128v9c36 10 39 12 39 45v100c0 38 -21 61 -54 61c-24 0 -43 -14 -57 -25v-136c0 -33 4 -35 36 -45v-9h-132v9c43 10 47 12 47 44v123c0 33 -2 35 -39 44v7c26 5 55 12 84 19l4 2v-43l33 24c22 15 37 19 53 19c43 0 75 -30 75 -83v-111c0 -33 2 -35 39 -45v-9z
" />
    <glyph glyph-name="o.superior" unicode="&#xf6f0;" horiz-adv-x="299" 
d="M149 553h1c70 0 122 -57 122 -123c0 -85 -64 -130 -120 -130c-83 0 -128 65 -128 123c0 88 72 130 125 130zM142 537h-1c-32 0 -59 -37 -59 -99c0 -70 29 -123 71 -123c35 0 61 27 61 99c0 67 -24 123 -72 123z" />
    <glyph glyph-name="r.superior" unicode="&#xf6f1;" horiz-adv-x="225" 
d="M107 497h2c19 34 39 48 47 54c4 3 9 5 17 5c20 0 38 -15 38 -28c0 -15 -12 -28 -18 -32c-5 -5 -13 -4 -18 0c-8 7 -18 13 -29 13s-24 -10 -39 -38v-109c0 -33 3 -35 51 -45v-9h-146v9c44 10 47 12 47 45v121c0 35 -2 34 -40 45v7c24 4 62 13 87 21h1v-59z" />
    <glyph glyph-name="s.superior" unicode="&#xf6f2;" horiz-adv-x="229" 
d="M190 485l-7 -4c-21 39 -41 59 -66 59c-27 0 -40 -19 -40 -38c0 -24 21 -35 51 -47c48 -19 74 -39 74 -74c0 -56 -54 -79 -96 -79c-29 0 -58 11 -70 18c-4 12 -8 44 -9 69l9 1c15 -41 46 -73 77 -73c21 0 43 12 43 38c0 23 -17 37 -53 52s-66 37 -66 73c0 38 30 75 87 75
c22 0 39 -5 53 -11c5 -13 11 -44 13 -59z" />
    <glyph glyph-name="t.superior" unicode="&#xf6f3;" horiz-adv-x="188" 
d="M175 329l-43 -22c-9 -4 -17 -7 -24 -7c-33 0 -54 23 -54 66v160h-41v9l18 13h23v31l40 43l9 -3v-71h66c5 -5 3 -17 -4 -22h-62v-141c0 -47 21 -55 32 -55c9 0 22 4 36 11z" />
    <glyph glyph-name="parenleft.inferior" unicode="&#x208d;" horiz-adv-x="226" 
d="M202 -163l-9 -10c-106 61 -152 167 -152 275v1c0 106 46 212 152 274l9 -10c-61 -52 -100 -158 -100 -265s39 -213 100 -265z" />
    <glyph glyph-name="parenright.inferior" unicode="&#x208e;" horiz-adv-x="226" 
d="M184 102v-1c0 -107 -46 -213 -152 -274l-8 10c61 52 100 158 100 265s-39 213 -100 265l8 10c106 -62 152 -168 152 -275z" />
    <glyph glyph-name="circumflex.sc" unicode="&#xf6f6;" 
d="M300 531l-9 -5c-32 28 -64 53 -91 82c-27 -28 -60 -55 -90 -82l-11 5c35 46 68 94 96 141h12c28 -48 59 -95 93 -141z" />
    <glyph glyph-name="hyphen.superior" unicode="&#xf6e6;" horiz-adv-x="256" 
d="M216 524h-175v44h175v-44z" />
    <glyph glyph-name="grave.sc" unicode="&#xf760;" horiz-adv-x="401" 
d="M238 527l-14 -4c-55 51 -122 111 -136 124l2 5c8 3 49 12 60 10z" />
    <glyph glyph-name="a.sc" unicode="&#xf761;" horiz-adv-x="522" 
d="M501 0h-192v12l16 2c33 5 40 14 28 45l-44 114h-144c-10 -22 -25 -69 -34 -101c-11 -42 -5 -51 31 -56l23 -4v-12h-165v12c44 6 60 11 90 89l144 361l16 6l153 -390c22 -55 35 -63 78 -66v-12zM299 198l-61 166h-2l-62 -166h125z" />
    <glyph glyph-name="b.sc" unicode="&#xf762;" horiz-adv-x="461" 
d="M290 251v-2c76 -10 130 -48 130 -115c0 -106 -107 -134 -215 -134h-174v12c63 7 69 10 69 80v261c0 79 -6 82 -65 89v11h207c90 0 148 -28 148 -102c0 -63 -58 -91 -100 -100zM172 252h41c51 0 98 22 98 89s-46 95 -93 95c-37 0 -46 -8 -46 -45v-139zM172 234v-141
c0 -65 23 -75 64 -75c53 0 100 35 100 110c0 77 -53 106 -123 106h-41z" />
    <glyph glyph-name="c.sc" unicode="&#xf763;" horiz-adv-x="496" 
d="M454 124l12 -4c-8 -30 -23 -87 -36 -114c-21 -5 -87 -18 -136 -18c-172 0 -256 110 -256 233c0 147 121 244 271 244c58 0 105 -11 132 -17c5 -40 8 -77 13 -113l-12 -3c-21 83 -77 115 -148 115c-109 0 -172 -99 -172 -214c0 -128 73 -227 175 -227c72 0 124 46 157 118
z" />
    <glyph glyph-name="d.sc" unicode="&#xf764;" horiz-adv-x="538" 
d="M36 453h203c84 0 155 -17 202 -61c34 -32 59 -84 59 -148c0 -170 -131 -244 -288 -244h-182v12c63 5 70 12 70 78v272c0 70 -6 74 -64 79v12zM174 381v-279c0 -69 9 -82 68 -82c114 0 174 79 174 209c0 146 -72 206 -185 206c-26 0 -44 -4 -49 -11s-8 -18 -8 -43z" />
    <glyph glyph-name="e.sc" unicode="&#xf765;" horiz-adv-x="433" 
d="M395 120l12 -3c-5 -28 -20 -97 -26 -117h-354v12c68 7 73 13 73 81v270c0 68 -5 74 -66 78v12h329c1 -19 4 -67 8 -108l-11 -2c-9 31 -20 50 -29 64c-16 23 -36 28 -92 28h-40c-23 0 -25 -1 -25 -29v-160h65c69 0 73 8 83 57h12v-138h-12c-12 50 -18 58 -83 58h-65v-137
c0 -33 5 -49 13 -58c10 -9 33 -10 73 -10c54 0 75 6 92 27c13 13 27 37 43 75z" />
    <glyph glyph-name="f.sc" unicode="&#xf766;" horiz-adv-x="412" 
d="M374 340l-12 -2c-11 35 -20 55 -30 70c-11 18 -30 27 -89 27h-46c-21 -1 -23 -1 -23 -28v-170h74c66 0 72 7 84 56h12v-140h-12c-12 54 -17 61 -84 61h-74v-123c0 -68 7 -73 78 -79v-12h-218v12c61 6 66 12 66 78v274c0 68 -5 73 -66 78v11h332c1 -18 4 -67 8 -113z" />
    <glyph glyph-name="g.sc" unicode="&#xf767;" horiz-adv-x="520" 
d="M501 216v-12c-45 -9 -48 -13 -48 -60v-65c0 -25 3 -49 6 -63c-46 -12 -109 -28 -155 -28c-157 0 -266 91 -266 233c0 162 134 244 271 244c57 0 110 -13 135 -19c3 -24 6 -65 12 -117l-13 -2c-16 85 -81 119 -153 119c-93 0 -168 -78 -168 -211c0 -111 57 -229 186 -229
c34 0 71 7 71 51v83c0 50 -3 55 -76 64v12h198z" />
    <glyph glyph-name="h.sc" unicode="&#xf768;" horiz-adv-x="575" 
d="M543 0h-208v12c60 7 66 11 66 80v137h-227v-137c0 -71 6 -74 64 -80v-12h-207v12c63 7 69 9 69 80v270c0 69 -6 73 -71 79v12h208v-12c-57 -6 -63 -8 -63 -79v-109h227v109c0 69 -6 74 -62 79v12h204v-11c-62 -7 -68 -11 -68 -80v-270c0 -69 6 -73 68 -80v-12z" />
    <glyph glyph-name="i.sc" unicode="&#xf769;" horiz-adv-x="275" 
d="M242 0h-210v12c62 6 68 10 68 78v273c0 68 -6 73 -68 78v12h210v-12c-62 -6 -68 -10 -68 -78v-273c0 -68 6 -72 68 -78v-12z" />
    <glyph glyph-name="j.sc" unicode="&#xf76a;" horiz-adv-x="267" 
d="M246 453v-12c-60 -5 -66 -11 -66 -81v-238c0 -91 -10 -155 -75 -209c-24 -19 -47 -31 -64 -37l-7 12c35 20 53 44 61 83c9 38 11 97 11 173v216c0 70 -6 76 -70 81v12h210z" />
    <glyph glyph-name="k.sc" unicode="&#xf76b;" horiz-adv-x="521" 
d="M503 0h-126c-27 29 -124 147 -165 203c-16 21 -26 21 -40 14v-125c0 -70 7 -74 69 -80v-12h-205v12c59 5 64 10 64 80v269c0 69 -5 76 -67 80v12h204v-12c-58 -6 -65 -9 -65 -80v-126c12 3 30 14 46 28c47 43 107 106 127 130s23 38 -7 43l-29 5v12h182v-12
c-47 -5 -69 -15 -114 -54c-32 -28 -81 -74 -125 -118c60 -78 131 -163 164 -197c42 -43 55 -55 87 -60v-12z" />
    <glyph glyph-name="l.sc" unicode="&#xf76c;" horiz-adv-x="416" 
d="M390 124l12 -2c-6 -32 -21 -101 -26 -122h-349v12c68 6 73 10 73 83v267c0 71 -6 73 -68 79v12h212v-12c-64 -6 -70 -8 -70 -79v-279c0 -37 4 -52 16 -58c14 -6 39 -7 70 -7c51 1 73 7 89 28c15 17 26 39 41 78z" />
    <glyph glyph-name="m.sc" unicode="&#xf76d;" horiz-adv-x="653" 
d="M622 453v-12c-70 -6 -75 -11 -73 -88l6 -255c2 -74 3 -80 72 -86v-12h-211v12c62 6 67 11 67 86l-1 282h-3l-171 -372h-13l-150 361h-2l-12 -171c-6 -71 -6 -113 -5 -140c2 -34 13 -41 68 -46v-12h-170v12c43 5 62 12 65 45c5 25 12 66 19 147l14 145c7 79 1 85 -69 92
v12h128l149 -337l161 337h131z" />
    <glyph glyph-name="n.sc" unicode="&#xf76e;" horiz-adv-x="533" 
d="M521 453v-12c-52 -5 -65 -10 -68 -47c-2 -30 -4 -66 -4 -134v-265h-19l-306 361h-1v-164c0 -67 2 -108 5 -133c4 -36 17 -42 75 -47v-12h-175v12c48 6 62 11 66 46c2 26 5 67 5 134v138c0 92 -15 106 -82 111v12h121l285 -327h2v134c0 68 -1 104 -3 130
c-3 41 -13 46 -75 51v12h174z" />
    <glyph glyph-name="o.sc" unicode="&#xf76f;" horiz-adv-x="550" 
d="M275 465h1c138 0 235 -100 235 -234c0 -159 -121 -243 -235 -243c-152 0 -240 115 -240 228c0 172 134 249 239 249zM266 446h-1c-79 0 -144 -73 -144 -205c0 -142 63 -234 165 -234c77 0 141 54 141 204c0 125 -60 235 -161 235z" />
    <glyph glyph-name="p.sc" unicode="&#xf770;" horiz-adv-x="436" 
d="M36 453h201c100 0 167 -39 167 -131c0 -84 -66 -130 -144 -141c-12 -1 -25 -2 -35 -2l-53 16v-110c0 -63 6 -66 77 -73v-12h-217v12c62 7 68 10 68 70v279c0 73 -6 76 -64 81v11zM172 392v-178c10 -4 28 -9 55 -9c32 0 95 16 95 117c0 79 -45 115 -107 115
c-41 0 -43 -9 -43 -45z" />
    <glyph glyph-name="q.sc" unicode="&#xf771;" horiz-adv-x="550" 
d="M542 -106l-3 -9c-47 -9 -89 -3 -114 6c-50 16 -110 58 -167 100c-145 11 -220 118 -220 224c0 175 134 250 238 250c139 0 236 -101 236 -235c0 -126 -78 -201 -156 -228c58 -38 128 -81 186 -108zM257 8l60 23c8 -5 15 -10 22 -16c45 20 89 74 89 191
c0 129 -60 241 -161 241c-76 0 -145 -70 -145 -209c0 -122 53 -209 135 -230z" />
    <glyph glyph-name="r.sc" unicode="&#xf772;" horiz-adv-x="490" 
d="M481 4l-2 -10h-25c-72 0 -102 17 -134 64c-19 30 -47 78 -62 105c-18 30 -26 39 -64 39h-22v-110c0 -68 6 -74 69 -80v-12h-210v12c63 6 69 11 69 80v270c0 72 -6 75 -66 79v12h202c50 0 88 -6 115 -24c28 -17 48 -49 48 -92c0 -64 -48 -100 -91 -117
c12 -19 40 -70 62 -102c23 -35 42 -60 60 -79c19 -22 30 -30 51 -35zM172 220h37c25 0 51 3 71 15c24 16 39 51 39 91c0 74 -48 110 -104 110c-40 0 -43 -11 -43 -43v-173z" />
    <glyph glyph-name="s.sc" unicode="&#xf773;" horiz-adv-x="362" 
d="M313 336l-13 -2c-22 60 -53 112 -111 112c-44 0 -73 -36 -73 -77c0 -57 37 -77 84 -99l20 -10c57 -26 114 -60 114 -136c0 -79 -70 -136 -159 -136c-59 0 -103 21 -120 31c-6 18 -15 76 -23 121l14 3c19 -59 66 -136 143 -136c43 0 76 28 76 83c1 56 -35 79 -77 100
l-23 12c-54 26 -113 61 -113 128c0 78 56 135 154 135c38 0 73 -12 89 -17c7 -30 11 -66 18 -112z" />
    <glyph glyph-name="t.sc" unicode="&#xf774;" horiz-adv-x="461" 
d="M438 336l-13 -2c-9 37 -18 59 -27 74c-13 21 -36 27 -88 27h-42v-342c0 -71 6 -75 76 -81v-12h-223v12c67 6 73 11 73 81v342h-31c-65 0 -85 -8 -99 -31c-10 -17 -17 -35 -23 -69h-13c3 50 8 100 9 135h9c11 -15 19 -17 40 -17h298c18 0 26 4 36 17h9c0 -30 4 -93 9 -134
z" />
    <glyph glyph-name="u.sc" unicode="&#xf775;" horiz-adv-x="527" 
d="M515 453v-12c-52 -6 -65 -12 -68 -55c-1 -22 -4 -63 -4 -124v-52c0 -70 -12 -130 -51 -169c-34 -36 -80 -53 -128 -53c-41 0 -83 9 -114 34c-40 33 -61 84 -61 165v173c0 69 -5 73 -65 81v12h203v-12c-60 -8 -64 -12 -64 -81v-153c0 -113 39 -181 124 -181
c100 0 132 82 132 191v45c0 61 -2 101 -4 124c-4 44 -15 51 -76 55v12h176z" />
    <glyph glyph-name="v.sc" unicode="&#xf776;" horiz-adv-x="527" 
d="M510 453v-12c-56 -11 -61 -17 -94 -86c-27 -58 -91 -219 -148 -366h-18c-50 130 -118 297 -152 380c-25 60 -34 66 -79 72v12h200v-12l-28 -6c-26 -6 -33 -12 -21 -47c15 -44 70 -176 117 -296c38 92 89 227 109 291c12 41 6 47 -31 54l-22 4v12h167z" />
    <glyph glyph-name="w.sc" unicode="&#xf777;" horiz-adv-x="709" 
d="M693 453v-12c-53 -9 -59 -17 -80 -71c-23 -59 -62 -187 -124 -381h-16l-126 329h-2l-120 -329h-17l-118 373c-20 66 -27 73 -72 79v12h188v-12l-22 -5c-32 -7 -37 -11 -24 -53l85 -277h2l114 335h15l129 -327h2c26 72 64 198 80 268c9 38 3 47 -35 55l-22 4v12h163z" />
    <glyph glyph-name="x.sc" unicode="&#xf778;" horiz-adv-x="514" 
d="M499 0h-211v12l28 5c27 5 30 14 15 38l-93 143c-37 -54 -66 -102 -87 -144c-12 -24 -9 -30 16 -35l32 -7v-12h-176v12c57 9 68 14 103 60c36 49 69 97 100 145l-111 173c-23 36 -35 43 -79 51v12h192v-12l-28 -8c-17 -5 -19 -14 -10 -28l82 -129c35 52 60 90 74 118
c17 31 9 36 -18 42l-23 5v12h168v-12c-50 -8 -66 -15 -94 -49c-29 -37 -63 -85 -95 -134l119 -181c33 -49 41 -56 96 -65v-12z" />
    <glyph glyph-name="y.sc" unicode="&#xf779;" horiz-adv-x="476" 
d="M459 453v-12c-52 -7 -60 -18 -90 -61c-23 -34 -48 -78 -86 -150c-9 -16 -11 -25 -11 -38v-102c0 -66 6 -71 78 -78v-12h-226v12c69 8 74 11 74 78v88c0 22 -2 25 -14 48c-21 37 -46 82 -89 154c-30 50 -34 55 -78 61v12h189v-12l-30 -7c-22 -5 -25 -12 -15 -29
c20 -38 71 -130 99 -174c33 60 70 128 86 167c12 28 5 34 -33 40l-19 3v12h165z" />
    <glyph glyph-name="z.sc" unicode="&#xf77a;" horiz-adv-x="460" 
d="M425 131l12 -4c-7 -33 -20 -104 -28 -127h-372l-4 9l290 426h-114c-80 0 -98 -8 -110 -34c-11 -21 -16 -40 -25 -72h-12c3 47 8 104 9 141h10c9 -15 19 -17 43 -17h288l5 -11l-286 -420c15 -3 48 -4 108 -4c93 0 125 5 142 28c16 21 27 40 44 85z" />
    <glyph glyph-name="R_p" unicode="&#xf6dd;" horiz-adv-x="884" 
d="M589 371l89 52c8 4 20 6 27 6c91 0 143 -94 143 -177c0 -147 -97 -239 -212 -264c-20 2 -37 7 -47 16v-152c0 -54 -1 -67 67 -75v-11h-195v11c54 8 58 21 58 75v141l-14 1c-77 4 -111 30 -144 86c-28 47 -58 115 -81 159c-18 33 -26 40 -57 40h-34v-143
c0 -102 7 -116 76 -124v-12h-223v12c70 8 76 22 76 124v350c0 103 -6 118 -73 126v11h206c56 0 103 -9 135 -32c35 -25 56 -67 56 -123c0 -78 -43 -134 -112 -167c13 -29 48 -95 72 -138c27 -48 50 -83 67 -105c18 -25 30 -40 50 -49v309c0 54 -2 61 -55 68v10
c39 8 84 24 125 42v-67zM189 297h47c32 0 62 6 84 26c36 32 44 74 44 129c0 107 -57 152 -124 152c-45 0 -51 -2 -51 -32v-275zM589 349v-286c17 -22 43 -36 79 -36c52 0 110 41 110 172c0 120 -48 180 -119 180c-23 0 -48 -11 -70 -30z" />
    <glyph glyph-name="tilde.sc" unicode="&#xf6fe;" horiz-adv-x="401" 
d="M157 629h1c14 0 25 -3 52 -15c19 -9 34 -15 52 -15s32 13 41 35l7 -5c-13 -59 -42 -71 -64 -71c-16 0 -35 8 -58 19c-16 8 -28 12 -46 12s-32 -14 -42 -36l-9 5c17 54 44 71 66 71z" />
    <glyph glyph-name="exclamdown.sc" unicode="&#xf7a1;" horiz-adv-x="222" 
d="M112 463h1c26 0 47 -20 47 -50c0 -28 -21 -50 -48 -50c-28 0 -49 22 -49 50c0 30 21 50 49 50zM106 301h15l39 -256c6 -39 -1 -58 -47 -58h-1c-47 0 -53 19 -47 58z" />
    <glyph glyph-name="cent.oldstyle" unicode="&#xf7a2;" horiz-adv-x="420" 
d="M380 129l10 -10c-36 -51 -89 -87 -136 -96v-90h-24v88c-118 6 -187 94 -187 188c0 72 35 134 89 174c32 24 65 38 98 44v78h24v-73h9c50 0 82 -12 102 -26c8 -7 12 -15 12 -24c0 -17 -14 -29 -27 -29c-4 0 -8 3 -11 7c-21 27 -50 44 -85 46v-330c46 -1 88 13 126 53z
M230 79v328c-47 -2 -117 -40 -117 -158c0 -107 64 -159 117 -170z" />
    <glyph glyph-name="lslash.sc" unicode="&#xf6f9;" horiz-adv-x="431" 
d="M404 124l12 -3c-6 -31 -20 -100 -26 -121h-349v12c68 6 73 10 73 86v74l-70 -50v28l70 52v162c0 67 -6 72 -68 77v12h211v-12c-63 -5 -69 -10 -69 -78v-109l94 72v-29l-94 -72v-133c0 -44 5 -61 17 -67c15 -6 37 -7 68 -7c54 1 74 8 90 28c15 17 26 39 41 78z" />
    <glyph glyph-name="scaron.sc" unicode="&#xf6fd;" horiz-adv-x="362" 
d="M313 336l-13 -2c-22 60 -53 112 -111 112c-44 0 -73 -36 -73 -77c0 -57 37 -77 84 -99l20 -10c57 -26 114 -60 114 -136c0 -79 -70 -136 -159 -136c-59 0 -103 21 -120 31c-6 18 -15 76 -23 121l14 3c19 -59 66 -136 143 -136c43 0 76 28 76 83c1 56 -35 79 -77 100
l-23 12c-54 26 -113 61 -113 128c0 78 56 135 154 135c38 0 73 -12 89 -17c7 -30 11 -66 18 -112zM276 666l10 -6c-35 -45 -68 -94 -95 -141h-13c-28 48 -59 96 -94 141l10 6c33 -27 63 -53 91 -82c26 27 60 55 91 82z" />
    <glyph glyph-name="zcaron.sc" unicode="&#xf6ff;" horiz-adv-x="460" 
d="M425 131l12 -4c-7 -33 -20 -104 -28 -127h-372l-4 9l290 426h-114c-80 0 -98 -8 -110 -34c-11 -21 -16 -40 -25 -72h-12c3 47 8 104 9 141h10c9 -15 19 -17 43 -17h288l5 -11l-286 -420c15 -3 48 -4 108 -4c93 0 125 5 142 28c16 21 27 40 44 85zM325 666l10 -6
c-35 -45 -68 -94 -95 -141h-13c-28 48 -59 96 -94 141l10 6c33 -27 63 -53 91 -82c26 27 60 55 91 82z" />
    <glyph glyph-name="dieresis.sc" unicode="&#xf7a8;" horiz-adv-x="401" 
d="M119 633h1c21 0 38 -17 38 -40c0 -22 -17 -40 -39 -40c-20 0 -38 18 -38 40c0 23 18 40 38 40zM280 633h1c21 0 38 -17 38 -40c0 -22 -17 -40 -39 -40c-20 0 -38 18 -38 40c0 23 18 40 38 40z" />
    <glyph glyph-name="breve.sc" unicode="&#xf6f4;" horiz-adv-x="401" 
d="M106 653h12c7 -46 39 -71 81 -71c45 0 77 25 85 71h12c0 -85 -44 -113 -96 -113h-1c-51 0 -93 28 -93 113z" />
    <glyph glyph-name="caron.sc" unicode="&#xf6f5;" horiz-adv-x="401" 
d="M292 674l10 -6c-35 -45 -68 -94 -95 -141h-13c-28 48 -59 96 -94 141l10 6c33 -27 63 -53 91 -82c26 27 60 55 91 82z" />
    <glyph glyph-name="dotaccent.sc" unicode="&#xf6f7;" 
d="M200 635h1c22 0 40 -18 40 -42c0 -23 -18 -42 -41 -42c-21 0 -40 19 -40 42c0 24 19 42 40 42z" />
    <glyph glyph-name="macron.sc" unicode="&#xf7af;" horiz-adv-x="401" 
d="M290 577h-178v38h178v-38z" />
    <glyph glyph-name="hyphen.inferior" unicode="&#xf6e5;" horiz-adv-x="256" 
d="M216 27h-175v44h175v-44z" />
    <glyph glyph-name="ogonek.sc" unicode="&#xf6fb;" horiz-adv-x="401" 
d="M294 -158l-46 -27c-10 -5 -19 -8 -29 -8c-46 0 -66 33 -66 65c0 44 27 84 52 131h19c-17 -42 -22 -78 -22 -104c0 -32 21 -54 49 -54c13 0 25 2 39 8z" />
    <glyph glyph-name="ring.sc" unicode="&#xf6fc;" horiz-adv-x="332" 
d="M166 662h1c35 0 70 -26 70 -68s-35 -69 -71 -69s-71 27 -71 69s35 68 71 68zM165 642h-1c-20 0 -36 -19 -36 -48c0 -28 16 -49 37 -49c23 0 39 21 39 50c0 28 -16 47 -39 47z" />
    <glyph glyph-name="cedilla.sc" unicode="&#xf7b8;" horiz-adv-x="361" 
d="M236 0l-14 -19c-15 -21 -12 -30 3 -45c24 -24 34 -43 34 -62c0 -37 -43 -73 -99 -91l-6 12c38 15 57 42 57 61c1 18 -11 30 -21 39c-22 21 -27 35 -10 58l33 47h23z" />
    <glyph glyph-name="questiondown.sc" unicode="&#xf7bf;" horiz-adv-x="317" 
d="M161 463h1c25 0 45 -19 45 -47c0 -26 -20 -47 -46 -47s-45 21 -45 47c0 28 19 47 45 47zM143 312l7 9c31 -16 81 -46 81 -94c0 -32 -21 -51 -64 -78c-49 -30 -82 -50 -82 -78c0 -29 20 -45 46 -45c46 0 82 61 100 61c15 0 35 -21 35 -35c0 -11 -4 -20 -17 -29
c-26 -24 -60 -35 -79 -35h-1c-56 0 -125 56 -125 117c0 29 10 52 63 84c45 26 62 39 62 66c0 21 -10 38 -26 57z" />
    <glyph glyph-name="zero.superior" unicode="&#x2070;" horiz-adv-x="311" 
d="M155 743h1c89 0 121 -91 121 -167s-32 -168 -122 -168s-121 92 -121 168s31 167 121 167zM156 727h-1c-46 0 -60 -81 -60 -151c0 -69 14 -152 61 -152c46 0 60 83 60 152c0 70 -14 151 -60 151z" />
    <glyph glyph-name="four.superior" unicode="&#x2074;" horiz-adv-x="311" 
d="M278 509h-52v-37c0 -36 10 -44 49 -47v-10h-160v10c49 4 59 11 59 47v37h-143v13c54 73 115 154 173 221h22v-206h52v-28zM174 537v141h-1c-34 -42 -69 -88 -104 -141h105z" />
    <glyph glyph-name="five.superior" unicode="&#x2075;" horiz-adv-x="311" 
d="M102 691l-17 -92c27 11 58 18 72 18c74 0 111 -44 111 -84c0 -33 -19 -62 -50 -87c-33 -25 -75 -38 -104 -38c-25 0 -52 12 -60 19s-9 15 -7 23c3 7 7 13 14 18c6 3 10 3 17 -3c13 -10 42 -29 72 -29c38 0 62 27 62 72c0 41 -31 74 -90 74c-29 0 -46 -5 -59 -9l24 162
h166l-10 -44h-141z" />
    <glyph glyph-name="six.superior" unicode="&#x2076;" horiz-adv-x="311" 
d="M102 599l30 15c15 7 26 11 37 11c68 0 107 -45 107 -102c0 -63 -52 -115 -120 -115c-65 0 -123 49 -123 133c0 106 82 165 147 185c33 10 56 13 78 17l3 -12c-19 -5 -40 -11 -62 -21c-31 -14 -82 -49 -97 -111zM146 595h-1c-20 0 -37 -7 -48 -12c-2 -10 -3 -23 -3 -43
c0 -67 27 -116 70 -116c40 0 57 36 57 83c0 50 -26 88 -75 88z" />
    <glyph glyph-name="seven.superior" unicode="&#x2077;" horiz-adv-x="311" 
d="M271 735l2 -5c-51 -106 -104 -212 -153 -318l-46 -4l-4 7c61 90 116 182 165 276h-136c-30 0 -35 -8 -48 -35l-12 -1c6 35 10 57 13 80h219z" />
    <glyph glyph-name="eight.superior" unicode="&#x2078;" horiz-adv-x="311" 
d="M161 743h1c51 0 95 -33 95 -76c0 -14 -5 -30 -16 -43c-5 -4 -17 -14 -45 -31c41 -21 75 -44 75 -91c0 -62 -64 -94 -117 -94c-59 0 -112 32 -112 88c0 25 15 41 26 51c9 7 31 21 47 30c-28 13 -61 40 -61 78c0 46 42 88 107 88zM154 727h-1c-29 0 -52 -20 -52 -50
c0 -41 35 -58 82 -78c14 11 30 32 30 62c0 47 -33 66 -59 66zM157 424h1c33 0 62 18 62 61c0 38 -30 59 -93 85c-26 -15 -37 -43 -37 -71c0 -49 33 -75 67 -75z" />
    <glyph glyph-name="nine.superior" unicode="&#x2079;" horiz-adv-x="311" 
d="M157 743h1c71 0 116 -59 116 -138c0 -84 -56 -148 -135 -181c-33 -13 -69 -16 -86 -16l-2 10c85 17 143 75 161 145l-39 -21c-12 -6 -22 -9 -33 -9c-61 0 -103 44 -103 95c0 54 46 115 120 115zM149 727h-1c-38 0 -54 -42 -54 -79c0 -43 26 -83 71 -83c19 0 40 6 49 12
c1 11 0 25 0 36c0 47 -12 114 -65 114z" />
    <glyph glyph-name="zero.inferior" unicode="&#x2080;" horiz-adv-x="311" 
d="M155 240h1c89 0 121 -91 121 -168c0 -76 -32 -167 -122 -167s-121 91 -121 167c0 77 31 168 121 168zM156 224h-1c-46 0 -60 -81 -60 -152c0 -68 14 -151 61 -151c46 0 60 83 60 151c0 71 -14 152 -60 152z" />
    <glyph glyph-name="one.inferior" unicode="&#x2081;" horiz-adv-x="311" 
d="M243 -87h-172v10c48 5 59 14 59 58v179c0 33 -3 40 -40 43l-23 2v9c38 5 75 13 118 26v-259c0 -44 9 -50 58 -58v-10z" />
    <glyph glyph-name="two.inferior" unicode="&#x2082;" horiz-adv-x="311" 
d="M266 -8l12 -4c-10 -28 -15 -51 -21 -75h-220v10c50 43 158 128 158 206c0 50 -26 72 -63 72c-38 0 -62 -25 -80 -49l-10 8l30 38c22 29 53 43 86 43c50 0 96 -33 96 -95c0 -46 -32 -79 -99 -140l-51 -47v-2h97c34 0 49 2 65 35z" />
    <glyph glyph-name="three.inferior" unicode="&#x2083;" horiz-adv-x="311" 
d="M181 105v-1c53 -9 85 -44 85 -78c0 -85 -118 -122 -151 -122c-24 0 -49 10 -61 20c-8 6 -9 15 -6 22c2 6 7 12 13 16c5 5 10 5 17 -1c17 -13 42 -29 71 -29c33 0 58 23 58 76c0 49 -36 68 -71 68c-15 0 -28 -3 -38 -7l-4 12c62 19 91 43 91 78c0 28 -20 47 -53 47
c-29 0 -54 -23 -67 -45l-8 7l26 42c16 16 44 30 74 30h1c50 0 85 -31 85 -68c0 -14 -6 -27 -16 -35c-9 -8 -26 -19 -46 -32z" />
    <glyph glyph-name="four.inferior" unicode="&#x2084;" horiz-adv-x="311" 
d="M278 6h-52v-37c0 -35 10 -43 49 -46v-10h-160v10c49 4 59 11 59 46v37h-143v13c54 73 115 154 173 221h22v-206h52v-28zM174 34v141h-1c-34 -42 -69 -89 -104 -141h105z" />
    <glyph glyph-name="five.inferior" unicode="&#x2085;" horiz-adv-x="311" 
d="M102 188l-17 -93c27 12 58 19 72 19c74 0 111 -44 111 -84c0 -34 -18 -63 -50 -88c-33 -25 -75 -38 -104 -38c-25 0 -52 12 -60 20c-8 6 -9 14 -7 22c3 7 7 14 14 19c6 3 10 2 17 -3c13 -11 42 -30 72 -30c38 0 62 27 62 72c0 42 -31 75 -90 75c-29 0 -46 -5 -59 -9
l24 162h166l-10 -44h-141z" />
    <glyph glyph-name="six.inferior" unicode="&#x2086;" horiz-adv-x="311" 
d="M102 95l30 15c15 7 26 11 37 11c68 0 107 -44 107 -102c0 -63 -52 -114 -120 -114c-65 0 -123 49 -123 132c0 107 82 166 147 186c33 10 56 13 78 17l3 -12c-19 -4 -40 -11 -62 -21c-31 -14 -82 -48 -97 -112zM146 91h-1c-20 0 -37 -6 -48 -12c-2 -10 -3 -23 -3 -42
c0 -68 27 -116 70 -116c40 0 57 36 57 82c0 50 -26 88 -75 88z" />
    <glyph glyph-name="seven.inferior" unicode="&#x2087;" horiz-adv-x="311" 
d="M271 232l2 -5c-51 -106 -104 -212 -153 -318l-46 -4l-4 7c61 90 116 182 165 276h-136c-30 0 -35 -7 -48 -35l-12 -1c6 36 10 57 13 80h219z" />
    <glyph glyph-name="eight.inferior" unicode="&#x2088;" horiz-adv-x="311" 
d="M161 240h1c51 0 95 -32 95 -76c0 -15 -5 -30 -16 -43c-5 -4 -17 -13 -45 -31c41 -21 75 -44 75 -92c0 -61 -64 -93 -117 -93c-59 0 -112 32 -112 88c0 25 15 41 26 51c9 7 31 21 47 30c-28 14 -61 40 -61 79c0 46 42 87 107 87zM154 224h-1c-29 0 -52 -19 -52 -50
c0 -40 35 -57 82 -78c14 11 30 33 30 61c0 46 -33 67 -59 67zM157 -79h1c33 0 62 17 62 61c0 38 -30 59 -93 85c-26 -14 -37 -43 -37 -71c0 -48 33 -75 67 -75z" />
    <glyph glyph-name="nine.inferior" unicode="&#x2089;" horiz-adv-x="311" 
d="M157 240h1c71 0 116 -59 116 -137c0 -84 -56 -148 -135 -181c-33 -13 -69 -17 -86 -17l-2 11c85 16 143 74 161 144l-39 -20c-12 -6 -22 -9 -33 -9c-61 0 -103 43 -103 96s46 113 120 113zM149 224h-1c-38 0 -54 -41 -54 -78c0 -44 26 -84 71 -84c19 0 40 6 49 13
c1 10 0 24 0 36c0 47 -12 113 -65 113z" />
    <glyph glyph-name="cent.inferior" unicode="&#xf6df;" horiz-adv-x="312" 
d="M276 12l6 -8c-28 -39 -67 -60 -98 -64v-59h-22v58c-78 2 -131 60 -131 125c0 50 26 90 59 113c25 19 51 29 72 33v51h22v-49c4 1 7 1 13 1c27 0 54 -8 67 -17c5 -5 6 -12 6 -18c0 -12 -11 -23 -23 -23c-3 0 -5 1 -11 6c-17 17 -36 28 -52 29v-216c29 0 59 9 92 38z
M162 -23v215c-32 -1 -80 -25 -80 -102c0 -73 50 -105 80 -113z" />
    <glyph glyph-name="dollar.inferior" unicode="&#xf6e3;" horiz-adv-x="311" 
d="M171 108l13 -5c59 -17 100 -38 100 -93c0 -56 -51 -94 -113 -100v-52h-22v50c-51 1 -87 18 -100 27c-3 11 -11 43 -19 83l12 3c14 -35 54 -89 107 -94v129l-16 5c-54 14 -89 41 -89 89c0 46 38 87 105 92v46h22v-44c17 0 38 -3 81 -14c5 -19 9 -39 15 -75l-11 -4
c-14 33 -41 71 -85 76v-119zM149 113v114c-37 -3 -60 -25 -60 -56c0 -29 20 -47 60 -58zM171 50v-123c39 3 61 22 61 57c0 31 -11 51 -61 66z" />
    <glyph glyph-name="period.inferior" unicode="&#xf6e7;" horiz-adv-x="171" 
d="M85 -95h-1c-22 0 -41 17 -41 44c0 26 18 44 42 44s42 -19 42 -44c0 -26 -18 -44 -42 -44z" />
    <glyph glyph-name="comma.inferior" unicode="&#xf6e1;" horiz-adv-x="171" 
d="M71 13h1c28 0 66 -30 66 -75c0 -56 -47 -83 -97 -97l-4 12c33 14 57 35 57 64c0 27 -23 44 -44 49c-7 1 -14 8 -14 19c0 18 19 28 35 28z" />
    <glyph glyph-name="agrave.sc" unicode="&#xf7e0;" horiz-adv-x="522" 
d="M501 0h-192v12l16 2c33 5 40 14 28 45l-44 114h-144c-10 -22 -25 -69 -34 -101c-11 -42 -5 -51 31 -56l23 -4v-12h-165v12c44 6 60 11 90 89l144 361l16 6l153 -390c22 -55 35 -63 78 -66v-12zM299 198l-61 166h-2l-62 -166h125zM295 519l-14 -4
c-55 51 -122 111 -136 124l2 5c8 3 49 12 60 10z" />
    <glyph glyph-name="aacute.sc" unicode="&#xf7e1;" horiz-adv-x="522" 
d="M501 0h-192v12l16 2c33 5 40 14 28 45l-44 114h-144c-10 -22 -25 -69 -34 -101c-11 -42 -5 -51 31 -56l23 -4v-12h-165v12c44 6 60 11 90 89l144 361l16 6l153 -390c22 -55 35 -63 78 -66v-12zM299 198l-61 166h-2l-62 -166h125zM388 649l-149 -134l-15 4
c26 35 79 111 89 126c11 5 60 10 72 9z" />
    <glyph glyph-name="acircumflex.sc" unicode="&#xf7e2;" horiz-adv-x="522" 
d="M501 0h-192v12l16 2c33 5 40 14 28 45l-44 114h-144c-10 -22 -25 -69 -34 -101c-11 -42 -5 -51 31 -56l23 -4v-12h-165v12c44 6 60 11 90 89l144 361l16 6l153 -390c22 -55 35 -63 78 -66v-12zM299 198l-61 166h-2l-62 -166h125zM361 523l-9 -5c-32 28 -64 53 -91 82
c-27 -28 -60 -55 -90 -82l-11 5c35 46 68 94 96 141h12c28 -48 59 -95 93 -141z" />
    <glyph glyph-name="atilde.sc" unicode="&#xf7e3;" horiz-adv-x="522" 
d="M501 0h-192v12l16 2c33 5 40 14 28 45l-44 114h-144c-10 -22 -25 -69 -34 -101c-11 -42 -5 -51 31 -56l23 -4v-12h-165v12c44 6 60 11 90 89l144 361l16 6l153 -390c22 -55 35 -63 78 -66v-12zM299 198l-61 166h-2l-62 -166h125zM218 621h1c14 0 25 -3 52 -15
c19 -9 34 -15 52 -15s32 13 41 35l7 -5c-13 -59 -42 -71 -64 -71c-16 0 -35 8 -58 19c-16 8 -28 12 -46 12s-32 -14 -42 -36l-9 5c17 54 44 71 66 71z" />
    <glyph glyph-name="adieresis.sc" unicode="&#xf7e4;" horiz-adv-x="522" 
d="M501 0h-192v12l16 2c33 5 40 14 28 45l-44 114h-144c-10 -22 -25 -69 -34 -101c-11 -42 -5 -51 31 -56l23 -4v-12h-165v12c44 6 60 11 90 89l144 361l16 6l153 -390c22 -55 35 -63 78 -66v-12zM299 198l-61 166h-2l-62 -166h125zM180 625h1c21 0 38 -17 38 -40
c0 -22 -17 -40 -39 -40c-20 0 -38 18 -38 40c0 23 18 40 38 40zM341 625h1c21 0 38 -17 38 -40c0 -22 -17 -40 -39 -40c-20 0 -38 18 -38 40c0 23 18 40 38 40z" />
    <glyph glyph-name="aring.sc" unicode="&#xf7e5;" horiz-adv-x="522" 
d="M501 0h-192v12l16 2c33 5 40 14 28 45l-44 114h-144c-10 -22 -25 -69 -34 -101c-11 -42 -5 -51 31 -56l23 -4v-12h-165v12c44 6 60 11 90 89l144 361l16 6l153 -390c22 -55 35 -63 78 -66v-12zM299 198l-61 166h-2l-62 -166h125zM261 654h1c35 0 70 -26 70 -68
s-35 -69 -71 -69s-71 27 -71 69s35 68 71 68zM260 634h-1c-20 0 -36 -19 -36 -48c0 -28 16 -49 37 -49c23 0 39 21 39 50c0 28 -16 47 -39 47z" />
    <glyph glyph-name="ae.sc" unicode="&#xf7e6;" horiz-adv-x="675" 
d="M629 119l12 -3c-5 -27 -20 -96 -26 -116h-361v12c68 7 73 14 73 81v112h-132c-23 -41 -50 -92 -70 -141c-12 -31 -10 -42 32 -48l23 -4v-12h-171v12c35 4 58 14 83 58c16 28 59 104 115 205l72 133c10 21 9 21 -30 27l-43 6v12h391c1 -19 4 -67 8 -108l-11 -2
c-10 31 -20 51 -30 66c-14 20 -38 26 -91 26h-48c-27 0 -28 -2 -28 -29v-177h76c69 0 73 8 83 57h12v-139h-12c-12 51 -17 58 -83 58h-76v-110c0 -38 5 -56 15 -66s37 -11 81 -11c54 0 78 6 95 27c12 13 25 37 41 74zM327 229v205c-5 0 -12 -3 -27 -30
c-21 -39 -67 -124 -92 -175h119z" />
    <glyph glyph-name="ccedilla.sc" unicode="&#xf7e7;" horiz-adv-x="489" 
d="M448 125l12 -4c-10 -37 -26 -94 -37 -114c-19 -5 -76 -16 -123 -18l-6 -8c-16 -21 -12 -31 4 -47c24 -25 34 -43 34 -64c0 -37 -43 -73 -101 -92l-6 12c39 16 58 43 58 63c1 17 -11 30 -21 40c-22 21 -27 35 -10 59l25 37c-163 6 -239 117 -239 232
c0 145 117 244 263 244c59 0 106 -12 130 -19c5 -40 9 -76 14 -111l-12 -3c-28 92 -75 115 -145 115c-106 0 -165 -94 -165 -212c0 -131 69 -228 170 -228c72 0 123 44 155 118z" />
    <glyph glyph-name="egrave.sc" unicode="&#xf7e8;" horiz-adv-x="433" 
d="M395 120l12 -3c-5 -28 -20 -97 -26 -117h-354v12c68 7 73 13 73 81v270c0 68 -5 74 -66 78v12h329c1 -19 4 -67 8 -108l-11 -2c-9 31 -20 50 -29 64c-16 23 -36 28 -92 28h-40c-23 0 -25 -1 -25 -29v-160h65c69 0 73 8 83 57h12v-138h-12c-12 50 -18 58 -83 58h-65v-137
c0 -33 5 -49 13 -58c10 -9 33 -10 73 -10c54 0 75 6 92 27c13 13 27 37 43 75zM254 519l-14 -4c-55 51 -122 111 -136 124l2 5c8 3 49 12 60 10z" />
    <glyph glyph-name="eacute.sc" unicode="&#xf7e9;" horiz-adv-x="433" 
d="M395 120l12 -3c-5 -28 -20 -97 -26 -117h-354v12c68 7 73 13 73 81v270c0 68 -5 74 -66 78v12h329c1 -19 4 -67 8 -108l-11 -2c-9 31 -20 50 -29 64c-16 23 -36 28 -92 28h-40c-23 0 -25 -1 -25 -29v-160h65c69 0 73 8 83 57h12v-138h-12c-12 50 -18 58 -83 58h-65v-137
c0 -33 5 -49 13 -58c10 -9 33 -10 73 -10c54 0 75 6 92 27c13 13 27 37 43 75zM343 649l-149 -134l-15 4c26 35 79 111 89 126c11 5 60 10 72 9z" />
    <glyph glyph-name="ecircumflex.sc" unicode="&#xf7ea;" horiz-adv-x="433" 
d="M395 120l12 -3c-5 -28 -20 -97 -26 -117h-354v12c68 7 73 13 73 81v270c0 68 -5 74 -66 78v12h329c1 -19 4 -67 8 -108l-11 -2c-9 31 -20 50 -29 64c-16 23 -36 28 -92 28h-40c-23 0 -25 -1 -25 -29v-160h65c69 0 73 8 83 57h12v-138h-12c-12 50 -18 58 -83 58h-65v-137
c0 -33 5 -49 13 -58c10 -9 33 -10 73 -10c54 0 75 6 92 27c13 13 27 37 43 75zM319 524l-9 -5c-32 28 -64 53 -91 82c-27 -28 -60 -55 -90 -82l-11 5c35 46 68 94 96 141h12c28 -48 59 -95 93 -141z" />
    <glyph glyph-name="edieresis.sc" unicode="&#xf7eb;" horiz-adv-x="433" 
d="M395 120l12 -3c-5 -28 -20 -97 -26 -117h-354v12c68 7 73 13 73 81v270c0 68 -5 74 -66 78v12h329c1 -19 4 -67 8 -108l-11 -2c-9 31 -20 50 -29 64c-16 23 -36 28 -92 28h-40c-23 0 -25 -1 -25 -29v-160h65c69 0 73 8 83 57h12v-138h-12c-12 50 -18 58 -83 58h-65v-137
c0 -33 5 -49 13 -58c10 -9 33 -10 73 -10c54 0 75 6 92 27c13 13 27 37 43 75zM136 625h1c21 0 38 -17 38 -40c0 -22 -17 -40 -39 -40c-20 0 -38 18 -38 40c0 23 18 40 38 40zM297 625h1c21 0 38 -17 38 -40c0 -22 -17 -40 -39 -40c-20 0 -38 18 -38 40c0 23 18 40 38 40z
" />
    <glyph glyph-name="igrave.sc" unicode="&#xf7ec;" horiz-adv-x="275" 
d="M242 0h-210v12c62 6 68 10 68 78v273c0 68 -6 73 -68 78v12h210v-12c-62 -6 -68 -10 -68 -78v-273c0 -68 6 -72 68 -78v-12zM172 519l-14 -4c-55 51 -122 111 -136 124l2 5c8 3 49 12 60 10z" />
    <glyph glyph-name="iacute.sc" unicode="&#xf7ed;" horiz-adv-x="275" 
d="M242 0h-210v12c62 6 68 10 68 78v273c0 68 -6 73 -68 78v12h210v-12c-62 -6 -68 -10 -68 -78v-273c0 -68 6 -72 68 -78v-12zM264 649l-149 -134l-15 4c26 35 79 111 89 126c11 5 60 10 72 9z" />
    <glyph glyph-name="icircumflex.sc" unicode="&#xf7ee;" horiz-adv-x="275" 
d="M242 0h-210v12c62 6 68 10 68 78v273c0 68 -6 73 -68 78v12h210v-12c-62 -6 -68 -10 -68 -78v-273c0 -68 6 -72 68 -78v-12zM238 523l-9 -5c-32 28 -64 53 -91 82c-27 -28 -60 -55 -90 -82l-11 5c35 46 68 94 96 141h12c28 -48 59 -95 93 -141z" />
    <glyph glyph-name="idieresis.sc" unicode="&#xf7ef;" horiz-adv-x="275" 
d="M242 0h-210v12c62 6 68 10 68 78v273c0 68 -6 73 -68 78v12h210v-12c-62 -6 -68 -10 -68 -78v-273c0 -68 6 -72 68 -78v-12zM56 625h1c21 0 38 -17 38 -40c0 -22 -17 -40 -39 -40c-20 0 -38 18 -38 40c0 23 18 40 38 40zM217 625h1c21 0 38 -17 38 -40
c0 -22 -17 -40 -39 -40c-20 0 -38 18 -38 40c0 23 18 40 38 40z" />
    <glyph glyph-name="eth.sc" unicode="&#xf7f0;" horiz-adv-x="570" 
d="M63 453h204c84 0 154 -16 202 -61c34 -31 59 -84 59 -148c0 -170 -132 -244 -288 -244h-183v12c64 9 70 16 70 92v119h-70v25h70v102c0 76 -6 79 -64 91v12zM202 223v-120c0 -68 8 -83 68 -83c115 0 171 79 171 205c0 151 -70 210 -183 210c-26 0 -45 -4 -49 -9
c-5 -4 -7 -14 -7 -32v-146h117v-25h-117z" />
    <glyph glyph-name="ntilde.sc" unicode="&#xf7f1;" horiz-adv-x="533" 
d="M521 453v-12c-52 -5 -65 -10 -68 -47c-2 -30 -4 -66 -4 -134v-265h-19l-306 361h-1v-164c0 -67 2 -108 5 -133c4 -36 17 -42 75 -47v-12h-175v12c48 6 62 11 66 46c2 26 5 67 5 134v138c0 92 -15 106 -82 111v12h121l285 -327h2v134c0 68 -1 104 -3 130
c-3 41 -13 46 -75 51v12h174zM232 621h1c14 0 25 -3 52 -15c19 -9 34 -15 52 -15s32 13 41 35l7 -5c-13 -59 -42 -71 -64 -71c-16 0 -35 8 -58 19c-16 8 -28 12 -46 12s-32 -14 -42 -36l-9 5c17 54 44 71 66 71z" />
    <glyph glyph-name="ograve.sc" unicode="&#xf7f2;" horiz-adv-x="550" 
d="M275 465h1c138 0 235 -100 235 -234c0 -159 -121 -243 -235 -243c-152 0 -240 115 -240 228c0 172 134 249 239 249zM266 446h-1c-79 0 -144 -73 -144 -205c0 -142 63 -234 165 -234c77 0 141 54 141 204c0 125 -60 235 -161 235zM312 519l-14 -4
c-55 51 -122 111 -136 124l2 5c8 3 49 12 60 10z" />
    <glyph glyph-name="oacute.sc" unicode="&#xf7f3;" horiz-adv-x="550" 
d="M275 465h1c138 0 235 -100 235 -234c0 -159 -121 -243 -235 -243c-152 0 -240 115 -240 228c0 172 134 249 239 249zM266 446h-1c-79 0 -144 -73 -144 -205c0 -142 63 -234 165 -234c77 0 141 54 141 204c0 125 -60 235 -161 235zM402 649l-149 -134l-15 4
c26 35 79 111 89 126c11 5 60 10 72 9z" />
    <glyph glyph-name="ocircumflex.sc" unicode="&#xf7f4;" horiz-adv-x="550" 
d="M275 465h1c138 0 235 -100 235 -234c0 -159 -121 -243 -235 -243c-152 0 -240 115 -240 228c0 172 134 249 239 249zM266 446h-1c-79 0 -144 -73 -144 -205c0 -142 63 -234 165 -234c77 0 141 54 141 204c0 125 -60 235 -161 235zM375 523l-9 -5c-32 28 -64 53 -91 82
c-27 -28 -60 -55 -90 -82l-11 5c35 46 68 94 96 141h12c28 -48 59 -95 93 -141z" />
    <glyph glyph-name="otilde.sc" unicode="&#xf7f5;" horiz-adv-x="550" 
d="M275 465h1c138 0 235 -100 235 -234c0 -159 -121 -243 -235 -243c-152 0 -240 115 -240 228c0 172 134 249 239 249zM266 446h-1c-79 0 -144 -73 -144 -205c0 -142 63 -234 165 -234c77 0 141 54 141 204c0 125 -60 235 -161 235zM232 621h1c14 0 25 -3 52 -15
c19 -9 34 -15 52 -15s32 13 41 35l7 -5c-13 -59 -42 -71 -64 -71c-16 0 -35 8 -58 19c-16 8 -28 12 -46 12s-32 -14 -42 -36l-9 5c17 54 44 71 66 71z" />
    <glyph glyph-name="odieresis.sc" unicode="&#xf7f6;" horiz-adv-x="550" 
d="M275 465h1c138 0 235 -100 235 -234c0 -159 -121 -243 -235 -243c-152 0 -240 115 -240 228c0 172 134 249 239 249zM266 446h-1c-79 0 -144 -73 -144 -205c0 -142 63 -234 165 -234c77 0 141 54 141 204c0 125 -60 235 -161 235zM194 625h1c21 0 38 -17 38 -40
c0 -22 -17 -40 -39 -40c-20 0 -38 18 -38 40c0 23 18 40 38 40zM355 625h1c21 0 38 -17 38 -40c0 -22 -17 -40 -39 -40c-20 0 -38 18 -38 40c0 23 18 40 38 40z" />
    <glyph glyph-name="oe.sc" unicode="&#xf6fa;" horiz-adv-x="718" 
d="M675 120l12 -3c-5 -28 -20 -97 -26 -117h-242c-28 0 -55 -1 -79 -2s-44 -2 -57 -2c-162 0 -245 104 -245 220c0 165 131 241 262 241c47 0 81 -4 114 -4h229c1 -19 4 -67 8 -108l-11 -2c-9 31 -19 50 -29 66c-14 20 -35 26 -92 26h-48c-27 0 -29 -1 -29 -29v-160h76
c69 0 74 8 84 57h12v-138h-12c-12 50 -18 58 -84 58h-76v-139c0 -31 5 -47 13 -56c10 -9 41 -10 85 -10c54 0 77 6 94 27c13 13 25 37 41 75zM368 94v289c0 22 -2 38 -11 42c-13 6 -37 14 -72 14c-100 0 -163 -69 -163 -208c0 -135 61 -217 170 -217c31 0 48 5 60 11
c15 10 16 36 16 69z" />
    <glyph glyph-name="oslash.sc" unicode="&#xf7f8;" horiz-adv-x="540" 
d="M448 477l-38 -59c59 -42 92 -110 92 -188c0 -157 -117 -242 -231 -242c-43 0 -84 12 -117 31l-41 -60l-17 15l38 58c-65 45 -96 116 -96 183c0 170 133 249 233 249c43 0 84 -12 119 -33l40 60zM164 79l199 309c-28 37 -58 56 -102 56c-72 0 -137 -72 -137 -205
c0 -64 15 -121 40 -160zM376 365l-197 -305c23 -35 59 -52 102 -52c72 0 135 51 135 203c0 58 -12 114 -40 154z" />
    <glyph glyph-name="ugrave.sc" unicode="&#xf7f9;" horiz-adv-x="527" 
d="M515 453v-12c-52 -6 -65 -12 -68 -55c-1 -22 -4 -63 -4 -124v-52c0 -70 -12 -130 -51 -169c-34 -36 -80 -53 -128 -53c-41 0 -83 9 -114 34c-40 33 -61 84 -61 165v173c0 69 -5 73 -65 81v12h203v-12c-60 -8 -64 -12 -64 -81v-153c0 -113 39 -181 124 -181
c100 0 132 82 132 191v45c0 61 -2 101 -4 124c-4 44 -15 51 -76 55v12h176zM311 519l-14 -4c-55 51 -122 111 -136 124l2 5c8 3 49 12 60 10z" />
    <glyph glyph-name="uacute.sc" unicode="&#xf7fa;" horiz-adv-x="527" 
d="M515 453v-12c-52 -6 -65 -12 -68 -55c-1 -22 -4 -63 -4 -124v-52c0 -70 -12 -130 -51 -169c-34 -36 -80 -53 -128 -53c-41 0 -83 9 -114 34c-40 33 -61 84 -61 165v173c0 69 -5 73 -65 81v12h203v-12c-60 -8 -64 -12 -64 -81v-153c0 -113 39 -181 124 -181
c100 0 132 82 132 191v45c0 61 -2 101 -4 124c-4 44 -15 51 -76 55v12h176zM396 649l-149 -134l-15 4c26 35 79 111 89 126c11 5 60 10 72 9z" />
    <glyph glyph-name="ucircumflex.sc" unicode="&#xf7fb;" horiz-adv-x="527" 
d="M515 453v-12c-52 -6 -65 -12 -68 -55c-1 -22 -4 -63 -4 -124v-52c0 -70 -12 -130 -51 -169c-34 -36 -80 -53 -128 -53c-41 0 -83 9 -114 34c-40 33 -61 84 -61 165v173c0 69 -5 73 -65 81v12h203v-12c-60 -8 -64 -12 -64 -81v-153c0 -113 39 -181 124 -181
c100 0 132 82 132 191v45c0 61 -2 101 -4 124c-4 44 -15 51 -76 55v12h176zM373 523l-9 -5c-32 28 -64 53 -91 82c-27 -28 -60 -55 -90 -82l-11 5c35 46 68 94 96 141h12c28 -48 59 -95 93 -141z" />
    <glyph glyph-name="udieresis.sc" unicode="&#xf7fc;" horiz-adv-x="527" 
d="M515 453v-12c-52 -6 -65 -12 -68 -55c-1 -22 -4 -63 -4 -124v-52c0 -70 -12 -130 -51 -169c-34 -36 -80 -53 -128 -53c-41 0 -83 9 -114 34c-40 33 -61 84 -61 165v173c0 69 -5 73 -65 81v12h203v-12c-60 -8 -64 -12 -64 -81v-153c0 -113 39 -181 124 -181
c100 0 132 82 132 191v45c0 61 -2 101 -4 124c-4 44 -15 51 -76 55v12h176zM191 625h1c21 0 38 -17 38 -40c0 -22 -17 -40 -39 -40c-20 0 -38 18 -38 40c0 23 18 40 38 40zM352 625h1c21 0 38 -17 38 -40c0 -22 -17 -40 -39 -40c-20 0 -38 18 -38 40c0 23 18 40 38 40z" />
    <glyph glyph-name="yacute.sc" unicode="&#xf7fd;" horiz-adv-x="476" 
d="M459 453v-12c-52 -7 -60 -18 -90 -61c-23 -34 -48 -78 -86 -150c-9 -16 -11 -25 -11 -38v-102c0 -66 6 -71 78 -78v-12h-226v12c69 8 74 11 74 78v88c0 22 -2 25 -14 48c-21 37 -46 82 -89 154c-30 50 -34 55 -78 61v12h189v-12l-30 -7c-22 -5 -25 -12 -15 -29
c20 -38 71 -130 99 -174c33 60 70 128 86 167c12 28 5 34 -33 40l-19 3v12h165zM382 649l-149 -134l-15 4c26 35 79 111 89 126c11 5 60 10 72 9z" />
    <glyph glyph-name="thorn.sc" unicode="&#xf7fe;" horiz-adv-x="444" 
d="M248 453v-12c-64 -7 -68 -12 -68 -80c23 1 46 1 69 1c98 0 163 -34 163 -121c0 -85 -68 -128 -150 -131c-13 0 -24 1 -34 3l-49 13v-33c0 -68 5 -73 72 -81v-12h-212v12c64 8 68 13 68 80v269c0 70 -4 73 -68 80v12h209zM179 299v-154c13 -5 38 -10 60 -10
c30 0 91 15 91 103c0 75 -40 105 -106 105c-43 0 -45 -3 -45 -44z" />
    <glyph glyph-name="ydieresis.sc" unicode="&#xf7ff;" horiz-adv-x="476" 
d="M459 453v-12c-52 -7 -60 -18 -90 -61c-23 -34 -48 -78 -86 -150c-9 -16 -11 -25 -11 -38v-102c0 -66 6 -71 78 -78v-12h-226v12c69 8 74 11 74 78v88c0 22 -2 25 -14 48c-21 37 -46 82 -89 154c-30 50 -34 55 -78 61v12h189v-12l-30 -7c-22 -5 -25 -12 -15 -29
c20 -38 71 -130 99 -174c33 60 70 128 86 167c12 28 5 34 -33 40l-19 3v12h165zM167 625h1c21 0 38 -17 38 -40c0 -22 -17 -40 -39 -40c-20 0 -38 18 -38 40c0 23 18 40 38 40zM328 625h1c21 0 38 -17 38 -40c0 -22 -17 -40 -39 -40c-20 0 -38 18 -38 40c0 23 18 40 38 40z
" />
    <glyph glyph-name="commaaccent" unicode="&#xf6c3;" horiz-adv-x="332" 
d="M162 -34h1c23 0 54 -20 54 -60c0 -49 -44 -74 -83 -85l-5 14c31 12 49 30 49 51c0 20 -17 31 -38 34c-6 1 -11 7 -11 17c0 18 15 29 33 29z" />
    <glyph glyph-name="Abreve" unicode="&#x102;" horiz-adv-x="654" 
d="M646 0h-234v12c56 8 71 16 58 58c-12 42 -35 104 -64 185h-205c-22 -62 -38 -112 -53 -158c-22 -67 -13 -78 63 -85v-12h-199v12c59 6 73 18 107 106l211 538l16 6c63 -180 127 -362 194 -546c32 -88 46 -98 106 -104v-12zM398 282l-88 258h-2c-34 -86 -67 -177 -97 -258
h187zM422 790h12c-3 -59 -36 -97 -97 -97c-62 0 -95 38 -97 97h12c9 -31 35 -55 85 -55c49 0 75 23 85 55z" />
    <glyph glyph-name="Amacron" unicode="&#x100;" horiz-adv-x="654" 
d="M646 0h-234v12c56 8 71 16 58 58c-12 42 -35 104 -64 185h-205c-22 -62 -38 -112 -53 -158c-22 -67 -13 -78 63 -85v-12h-199v12c59 6 73 18 107 106l211 538l16 6c63 -180 127 -362 194 -546c32 -88 46 -98 106 -104v-12zM398 282l-88 258h-2c-34 -86 -67 -177 -97 -258
h187zM434 712h-190v38h190v-38z" />
    <glyph glyph-name="Aogonek" unicode="&#x104;" horiz-adv-x="654" 
d="M644 0h-167c-27 -30 -56 -91 -56 -122c0 -34 22 -52 55 -52c13 0 32 6 44 11l5 -11l-50 -37c-9 -6 -24 -11 -33 -11c-52 0 -75 33 -75 71c0 54 54 121 104 171c8 8 10 15 6 27c-13 41 -43 127 -71 208h-205c-21 -62 -38 -112 -53 -158c-22 -67 -13 -78 63 -85v-12h-199
v12c59 6 74 18 107 106c71 179 141 358 211 538c6 2 11 4 16 6c62 -180 126 -361 193 -546c32 -88 45 -98 105 -104v-12zM397 282l-87 258h-2c-33 -86 -67 -177 -97 -258h186z" />
    <glyph glyph-name="AEacute" unicode="&#x1fc;" horiz-adv-x="817" 
d="M788 153l14 -3c-8 -31 -25 -115 -35 -150h-446v12c79 5 87 16 87 103v191h-172c-39 -75 -75 -144 -108 -220c-23 -53 -20 -64 58 -74v-12h-207v12c61 9 72 15 115 91c81 143 184 338 261 482c17 32 11 38 -38 45l-41 6l-1 12h471c-1 -32 4 -97 8 -131l-14 -3
c-10 40 -19 63 -32 82c-15 21 -34 30 -114 30h-80c-27 0 -30 -2 -30 -30v-266h96c92 0 98 14 110 77h13v-182h-13c-12 71 -20 80 -110 80h-96v-190c0 -50 6 -69 21 -80c20 -12 55 -13 104 -13c75 0 109 7 131 37c16 21 33 51 48 94zM408 330v290c-4 0 -9 -4 -28 -39
c-30 -55 -78 -143 -131 -251h159zM629 746v-6l-160 -60l-7 11c45 30 99 68 131 91c13 -1 33 -24 36 -36z" />
    <glyph glyph-name="Cacute" unicode="&#x106;" horiz-adv-x="643" 
d="M608 160l12 -4c-12 -39 -36 -108 -55 -144c-26 -6 -105 -26 -172 -26c-249 0 -356 171 -356 332c0 208 154 344 377 344c80 0 147 -21 172 -25c8 -55 12 -95 18 -137l-13 -4c-25 105 -96 145 -200 145c-173 0 -260 -147 -260 -304c0 -190 100 -330 265 -330
c109 0 169 68 212 153zM479 761v-6l-160 -60l-7 11c45 30 99 68 131 91c13 -1 33 -24 36 -36z" />
    <glyph glyph-name="Ccaron" unicode="&#x10c;" horiz-adv-x="643" 
d="M608 160l12 -4c-12 -39 -36 -108 -55 -144c-26 -6 -105 -26 -172 -26c-249 0 -356 171 -356 332c0 208 154 344 377 344c80 0 147 -21 172 -25c8 -55 12 -95 18 -137l-13 -4c-25 105 -96 145 -200 145c-173 0 -260 -147 -260 -304c0 -190 100 -330 265 -330
c109 0 169 68 212 153zM498 811l7 -9c-38 -27 -75 -64 -111 -102h-13c-36 38 -76 74 -113 102l8 9c37 -15 75 -32 110 -55c36 23 75 40 112 55z" />
    <glyph glyph-name="Ccircumflex" unicode="&#x108;" horiz-adv-x="643" 
d="M608 160l12 -4c-12 -39 -36 -108 -55 -144c-26 -6 -105 -26 -172 -26c-249 0 -356 171 -356 332c0 208 154 344 377 344c80 0 147 -21 172 -25c8 -55 12 -95 18 -137l-13 -4c-25 105 -96 145 -200 145c-173 0 -260 -147 -260 -304c0 -190 100 -330 265 -330
c109 0 169 68 212 153zM506 707l-8 -8c-36 14 -75 36 -110 56c-35 -20 -74 -42 -110 -56l-7 8c37 28 77 64 111 101h12c35 -38 75 -73 112 -101z" />
    <glyph glyph-name="Cdotaccent" unicode="&#x10a;" horiz-adv-x="643" 
d="M608 160l12 -4c-12 -39 -36 -108 -55 -144c-26 -6 -105 -26 -172 -26c-249 0 -356 171 -356 332c0 208 154 344 377 344c80 0 147 -21 172 -25c8 -55 12 -95 18 -137l-13 -4c-25 105 -96 145 -200 145c-173 0 -260 -147 -260 -304c0 -190 100 -330 265 -330
c109 0 169 68 212 153zM388 794h1c22 0 40 -18 40 -42c0 -23 -18 -42 -41 -42c-21 0 -40 19 -40 42c0 24 19 42 40 42z" />
    <glyph glyph-name="Dcaron" unicode="&#x10e;" horiz-adv-x="707" 
d="M38 648h271c126 0 218 -27 276 -84c52 -50 84 -122 84 -215c0 -119 -46 -208 -119 -265c-74 -58 -179 -84 -295 -84h-225v12c82 6 90 15 90 101v422c0 90 -8 96 -82 102v11zM199 557v-438c0 -83 41 -96 101 -96c192 0 277 148 277 311c0 115 -41 210 -129 259
c-45 26 -103 36 -166 36c-31 0 -54 -3 -68 -8c-10 -5 -15 -14 -15 -64zM441 796l7 -9c-38 -27 -75 -64 -111 -102h-13c-36 38 -76 74 -113 102l8 9c37 -15 75 -32 110 -55c36 23 75 40 112 55z" />
    <glyph glyph-name="Dcroat" unicode="&#x110;" horiz-adv-x="712" 
d="M48 648h277c114 0 203 -24 266 -87c48 -48 81 -119 81 -211c0 -120 -45 -208 -118 -266c-74 -58 -176 -84 -292 -84h-222v12c83 6 91 16 91 100v213h-98v27h98v183c0 88 -8 95 -83 101v12zM209 325v-204c0 -71 14 -98 102 -98c189 0 269 148 269 311
c0 114 -40 208 -116 256c-43 27 -96 39 -160 39c-46 0 -70 -6 -81 -12s-14 -19 -14 -53v-212h149v-27h-149z" />
    <glyph glyph-name="Ebreve" unicode="&#x114;" horiz-adv-x="530" 
d="M501 150l14 -3c-6 -33 -24 -111 -34 -147h-456v12c87 7 95 15 95 101v416c0 95 -8 99 -80 107v12h421c0 -33 4 -97 7 -131l-14 -3c-9 40 -19 64 -32 81c-19 26 -46 32 -127 32h-67c-28 0 -30 -4 -30 -31v-249h99c92 0 97 13 108 76h12v-181h-12c-11 68 -18 80 -106 80
h-101v-207c0 -47 6 -67 22 -79c19 -15 53 -15 102 -15c93 0 112 11 134 38c17 23 33 59 45 91zM369 791h12c-3 -59 -36 -97 -97 -97c-62 0 -95 38 -97 97h12c9 -31 35 -55 85 -55c49 0 75 23 85 55z" />
    <glyph glyph-name="Ecaron" unicode="&#x11a;" horiz-adv-x="530" 
d="M501 150l14 -3c-6 -33 -24 -111 -34 -147h-456v12c87 7 95 15 95 101v416c0 95 -8 99 -80 107v12h421c0 -33 4 -97 7 -131l-14 -3c-9 40 -19 64 -32 81c-19 26 -46 32 -127 32h-67c-28 0 -30 -4 -30 -31v-249h99c92 0 97 13 108 76h12v-181h-12c-11 68 -18 80 -106 80
h-101v-207c0 -47 6 -67 22 -79c19 -15 53 -15 102 -15c93 0 112 11 134 38c17 23 33 59 45 91zM387 796l7 -9c-38 -27 -75 -64 -111 -102h-13c-36 38 -76 74 -113 102l8 9c37 -15 75 -32 110 -55c36 23 75 40 112 55z" />
    <glyph glyph-name="Edotaccent" unicode="&#x116;" horiz-adv-x="530" 
d="M501 150l14 -3c-6 -33 -24 -111 -34 -147h-456v12c87 7 95 15 95 101v416c0 95 -8 99 -80 107v12h421c0 -33 4 -97 7 -131l-14 -3c-9 40 -19 64 -32 81c-19 26 -46 32 -127 32h-67c-28 0 -30 -4 -30 -31v-249h99c92 0 97 13 108 76h12v-181h-12c-11 68 -18 80 -106 80
h-101v-207c0 -47 6 -67 22 -79c19 -15 53 -15 102 -15c93 0 112 11 134 38c17 23 33 59 45 91zM283 787h1c22 0 40 -18 40 -42c0 -23 -18 -42 -41 -42c-21 0 -40 19 -40 42c0 24 19 42 40 42z" />
    <glyph glyph-name="Emacron" unicode="&#x112;" horiz-adv-x="530" 
d="M501 150l14 -3c-6 -33 -24 -111 -34 -147h-456v12c87 7 95 15 95 101v416c0 95 -8 99 -80 107v12h421c0 -33 4 -97 7 -131l-14 -3c-9 40 -19 64 -32 81c-19 26 -46 32 -127 32h-67c-28 0 -30 -4 -30 -31v-249h99c92 0 97 13 108 76h12v-181h-12c-11 68 -18 80 -106 80
h-101v-207c0 -47 6 -67 22 -79c19 -15 53 -15 102 -15c93 0 112 11 134 38c17 23 33 59 45 91zM377 712h-190v38h190v-38z" />
    <glyph glyph-name="Eng" unicode="&#x14a;" horiz-adv-x="708" 
d="M682 648v-12c-55 -5 -74 -16 -78 -68c-2 -31 -4 -73 -4 -161v-330c0 -108 -7 -169 -28 -213c-24 -47 -53 -59 -79 -59c-19 0 -35 18 -35 39c0 7 2 14 9 14c8 0 17 -8 35 -8c34 0 70 27 70 157l-422 522h-2v-273c0 -96 3 -144 6 -171c5 -57 24 -67 90 -73v-12h-211v12
c58 5 79 16 84 73c2 27 6 75 6 171v230c0 77 -3 87 -21 109c-23 27 -34 36 -86 41v12h136l421 -511h2v270c0 88 -2 131 -5 160c-5 52 -24 64 -93 69v12h205z" />
    <glyph glyph-name="Eogonek" unicode="&#x118;" horiz-adv-x="530" 
d="M501 151l14 -4c-6 -33 -24 -111 -34 -147h-35c-44 -41 -74 -92 -74 -130c0 -34 23 -43 46 -44c13 0 34 3 52 13l4 -12l-48 -35c-10 -6 -29 -13 -38 -13c-51 0 -71 29 -71 64c0 44 42 103 107 157h-399v12c87 7 95 15 95 101v416c0 95 -8 99 -80 107v12h418
c1 -33 6 -97 10 -131l-14 -3c-9 40 -20 64 -37 85c-17 22 -41 28 -122 28h-66c-28 0 -31 -4 -31 -31v-244h99c92 0 97 7 108 70h12v-169h-12c-11 68 -18 74 -106 74h-101v-213c0 -47 6 -66 22 -79c19 -14 53 -14 102 -14c89 0 112 11 134 38c17 23 33 59 45 92z" />
    <glyph glyph-name="Gbreve" unicode="&#x11e;" horiz-adv-x="686" 
d="M668 292v-12c-56 -7 -61 -16 -61 -75v-89c0 -36 1 -69 9 -95c-60 -13 -135 -35 -215 -35c-215 0 -363 132 -363 332c0 227 179 344 379 344c81 0 149 -21 180 -26c3 -34 8 -85 15 -145l-14 -4c-18 112 -95 153 -200 153c-156 0 -267 -123 -267 -309
c0 -147 81 -324 278 -324c37 0 68 7 89 16c20 10 31 25 31 65v107c0 71 -6 78 -96 85v12h235zM467 799h12c-3 -59 -36 -97 -97 -97c-62 0 -95 38 -97 97h12c9 -31 35 -55 85 -55c49 0 75 23 85 55z" />
    <glyph glyph-name="Gcircumflex" unicode="&#x11c;" horiz-adv-x="686" 
d="M668 292v-12c-56 -7 -61 -16 -61 -75v-89c0 -36 1 -69 9 -95c-60 -13 -135 -35 -215 -35c-215 0 -363 132 -363 332c0 227 179 344 379 344c81 0 149 -21 180 -26c3 -34 8 -85 15 -145l-14 -4c-18 112 -95 153 -200 153c-156 0 -267 -123 -267 -309
c0 -147 81 -324 278 -324c37 0 68 7 89 16c20 10 31 25 31 65v107c0 71 -6 78 -96 85v12h235zM508 702l-8 -8c-36 14 -75 36 -110 56c-35 -20 -74 -42 -110 -56l-7 8c37 28 77 64 111 101h12c35 -38 75 -73 112 -101z" />
    <glyph glyph-name="Gcommaaccent" unicode="&#x122;" horiz-adv-x="686" 
d="M668 292v-12c-56 -7 -61 -16 -61 -75v-89c0 -36 1 -69 9 -95c-60 -13 -135 -35 -215 -35c-215 0 -363 132 -363 332c0 227 179 344 379 344c81 0 149 -21 180 -26c3 -34 8 -85 15 -145l-14 -4c-18 112 -95 153 -200 153c-156 0 -267 -123 -267 -309
c0 -147 81 -324 278 -324c37 0 68 7 89 16c20 10 31 25 31 65v107c0 71 -6 78 -96 85v12h235zM380 -45h1c23 0 54 -20 54 -60c0 -49 -44 -74 -83 -85l-5 14c31 12 49 30 49 51c0 20 -17 31 -38 34c-6 1 -11 7 -11 17c0 18 15 29 33 29z" />
    <glyph glyph-name="Gdotaccent" unicode="&#x120;" horiz-adv-x="686" 
d="M668 292v-12c-56 -7 -61 -16 -61 -75v-89c0 -36 1 -69 9 -95c-60 -13 -135 -35 -215 -35c-215 0 -363 132 -363 332c0 227 179 344 379 344c81 0 149 -21 180 -26c3 -34 8 -85 15 -145l-14 -4c-18 112 -95 153 -200 153c-156 0 -267 -123 -267 -309
c0 -147 81 -324 278 -324c37 0 68 7 89 16c20 10 31 25 31 65v107c0 71 -6 78 -96 85v12h235zM386 794h1c22 0 40 -18 40 -42c0 -23 -18 -42 -41 -42c-21 0 -40 19 -40 42c0 24 19 42 40 42z" />
    <glyph glyph-name="Hbar" unicode="&#x126;" horiz-adv-x="738" 
d="M699 482h-81v-369c0 -86 8 -94 85 -101v-12h-250v12c78 7 87 15 87 101v209h-342v-209c0 -86 8 -94 85 -101v-12h-244v12c73 7 81 15 81 101v369h-80v24h80v30c0 85 -8 93 -81 100v12h236v-12c-69 -7 -77 -15 -77 -100v-30h342v29c0 86 -9 94 -80 101v12h241v-12
c-76 -7 -83 -15 -83 -100v-30h81v-24zM540 349v133h-342v-133h342z" />
    <glyph glyph-name="Hcircumflex" unicode="&#x124;" horiz-adv-x="738" 
d="M701 648v-12c-76 -7 -83 -15 -83 -101v-422c0 -86 8 -94 85 -101v-12h-250v12c78 7 87 15 87 101v216h-342v-216c0 -86 8 -94 85 -101v-12h-244v12c73 7 81 15 81 101v422c0 86 -8 94 -81 101v12h236v-12c-69 -7 -77 -15 -77 -101v-179h342v179c0 86 -9 94 -80 101v12
h241zM487 689l-8 -8c-36 14 -75 36 -110 56c-35 -20 -74 -42 -110 -56l-7 8c37 28 77 64 111 101h12c35 -38 75 -73 112 -101z" />
    <glyph glyph-name="Ibreve" unicode="&#x12c;" horiz-adv-x="318" 
d="M285 0h-251v12c78 6 86 15 86 101v422c0 86 -8 95 -86 101v12h251v-12c-79 -6 -87 -15 -87 -101v-422c0 -86 8 -95 87 -101v-12zM244 790h12c-3 -59 -36 -97 -97 -97c-62 0 -95 38 -97 97h12c9 -31 35 -55 85 -55c49 0 75 23 85 55z" />
    <glyph glyph-name="IJ" unicode="&#x132;" horiz-adv-x="619" 
d="M285 0h-251v12c78 6 86 15 86 101v422c0 86 -8 95 -86 101v12h251v-12c-79 -6 -87 -15 -87 -101v-422c0 -86 8 -95 87 -101v-12zM601 648v-12c-74 -6 -82 -15 -82 -101v-395c0 -109 -14 -172 -80 -239c-34 -34 -70 -57 -87 -64l-7 12c51 29 76 74 86 126
c9 48 10 110 10 200v360c0 86 -8 95 -83 101v12h243z" />
    <glyph glyph-name="Imacron" unicode="&#x12a;" horiz-adv-x="318" 
d="M285 0h-251v12c78 6 86 15 86 101v422c0 86 -8 95 -86 101v12h251v-12c-79 -6 -87 -15 -87 -101v-422c0 -86 8 -95 87 -101v-12zM254 712h-190v38h190v-38z" />
    <glyph glyph-name="Iogonek" unicode="&#x12e;" horiz-adv-x="318" 
d="M285 0h-115c-21 -46 -33 -86 -33 -119c0 -38 27 -57 61 -57c13 0 33 6 47 13l5 -11l-47 -34c-9 -6 -31 -13 -41 -13c-55 0 -77 34 -77 70c0 52 33 99 65 151h-116v12c78 6 86 15 86 101v422c0 86 -8 95 -86 101v12h251v-12c-79 -6 -87 -15 -87 -101v-422
c0 -86 8 -95 87 -101v-12z" />
    <glyph glyph-name="Itilde" unicode="&#x128;" horiz-adv-x="318" 
d="M285 0h-251v12c78 6 86 15 86 101v422c0 86 -8 95 -86 101v12h251v-12c-79 -6 -87 -15 -87 -101v-422c0 -86 8 -95 87 -101v-12zM116 765h1c14 0 25 -4 51 -15c18 -8 34 -14 51 -14c18 0 32 12 41 33l9 -5c-14 -56 -41 -68 -64 -68c-18 0 -36 7 -59 18
c-14 6 -26 11 -44 11s-31 -13 -42 -34l-10 6c16 51 44 68 66 68z" />
    <glyph glyph-name="Jcircumflex" unicode="&#x134;" horiz-adv-x="301" 
d="M283 648v-12c-74 -6 -82 -15 -82 -101v-395c0 -109 -14 -172 -80 -239c-34 -34 -70 -57 -87 -64l-7 12c51 29 76 74 86 126c9 48 10 110 10 200v360c0 86 -8 95 -83 101v12h243zM278 689l-8 -8c-36 14 -75 36 -110 56c-35 -20 -74 -42 -110 -56l-7 8c37 28 77 64 111 101
h12c35 -38 75 -73 112 -101z" />
    <glyph glyph-name="Kcommaaccent" unicode="&#x136;" horiz-adv-x="637" 
d="M639 0h-145c-86 98 -177 201 -255 292c-20 24 -29 30 -41 30v-201c0 -93 8 -103 84 -109v-12h-241v12c70 6 79 16 79 109v406c0 96 -9 103 -79 109v12h237v-12c-72 -6 -80 -13 -80 -109v-191c16 6 37 22 59 44c53 52 142 140 184 191c38 45 34 56 -18 63l-19 2v12h216
v-12c-70 -7 -86 -16 -157 -83c-38 -36 -113 -108 -188 -184c79 -95 193 -220 241 -273c61 -65 72 -77 123 -84v-12zM344 -23h1c23 0 54 -20 54 -60c0 -49 -44 -74 -83 -85l-5 14c31 12 49 30 49 51c0 20 -17 31 -38 34c-6 1 -11 7 -11 17c0 18 15 29 33 29z" />
    <glyph glyph-name="Lacute" unicode="&#x139;" horiz-adv-x="509" 
d="M485 151l14 -3c-7 -25 -25 -113 -35 -148h-430v12c78 6 86 15 86 103v421c0 89 -5 94 -80 100v12h237v-12c-71 -6 -79 -11 -79 -100v-413c0 -57 4 -78 21 -89c19 -11 51 -13 97 -13c65 0 98 6 120 32c18 22 35 53 49 98zM275 746v-6l-160 -60l-7 11c45 30 99 68 131 91
c13 -1 33 -24 36 -36z" />
    <glyph glyph-name="Lcaron" unicode="&#x13d;" horiz-adv-x="509" 
d="M485 151l14 -3c-7 -25 -25 -113 -35 -148h-430v12c78 6 86 15 86 103v421c0 89 -5 94 -80 100v12h237v-12c-71 -6 -79 -11 -79 -100v-413c0 -57 4 -78 21 -89c19 -11 51 -13 97 -13c65 0 98 6 120 32c18 22 35 53 49 98zM353 653h1c23 0 46 -22 46 -62
c0 -46 -37 -72 -69 -83l-6 14c26 12 40 30 40 51c0 20 -13 31 -29 34c-5 1 -10 7 -10 17c0 18 13 29 27 29z" />
    <glyph glyph-name="Lcommaaccent" unicode="&#x13b;" horiz-adv-x="509" 
d="M485 151l14 -3c-7 -25 -25 -113 -35 -148h-430v12c78 6 86 15 86 103v421c0 89 -5 94 -80 100v12h237v-12c-71 -6 -79 -11 -79 -100v-413c0 -57 4 -78 21 -89c19 -11 51 -13 97 -13c65 0 98 6 120 32c18 22 35 53 49 98zM286 -33h1c23 0 54 -20 54 -60
c0 -49 -44 -74 -83 -85l-5 14c31 12 49 30 49 51c0 20 -17 31 -38 34c-6 1 -11 7 -11 17c0 18 15 29 33 29z" />
    <glyph glyph-name="Ldot" unicode="&#x13f;" horiz-adv-x="509" 
d="M485 151l14 -3c-7 -25 -25 -113 -35 -148h-430v12c78 6 86 15 86 103v421c0 89 -5 94 -80 100v12h237v-12c-71 -6 -79 -11 -79 -100v-413c0 -57 4 -78 21 -89c19 -11 51 -13 97 -13c65 0 98 6 120 32c18 22 35 53 49 98zM340 396h1c22 0 40 -18 40 -42
c0 -23 -18 -42 -41 -42c-21 0 -40 19 -40 42c0 24 19 42 40 42z" />
    <glyph glyph-name="Nacute" unicode="&#x143;" horiz-adv-x="711" 
d="M685 648v-12c-55 -5 -74 -16 -78 -68c-2 -31 -4 -73 -4 -162v-418h-16l-437 541h-2v-273c0 -96 3 -144 6 -171c5 -57 24 -67 90 -73v-12h-211v12c58 5 79 16 84 73c2 27 6 75 6 171v230c0 77 -3 87 -21 109c-23 27 -34 36 -86 41v12h136l424 -514h2v273
c0 88 -2 131 -5 160c-5 52 -24 64 -93 69v12h205zM468 746v-6l-160 -60l-7 11c45 30 99 68 131 91c13 -1 33 -24 36 -36z" />
    <glyph glyph-name="Ncaron" unicode="&#x147;" horiz-adv-x="711" 
d="M685 648v-12c-55 -5 -74 -16 -78 -68c-2 -31 -4 -73 -4 -162v-418h-16l-437 541h-2v-273c0 -96 3 -144 6 -171c5 -57 24 -67 90 -73v-12h-211v12c58 5 79 16 84 73c2 27 6 75 6 171v230c0 77 -3 87 -21 109c-23 27 -34 36 -86 41v12h136l424 -514h2v273
c0 88 -2 131 -5 160c-5 52 -24 64 -93 69v12h205zM471 781l7 -9c-38 -27 -75 -64 -111 -102h-13c-36 38 -76 74 -113 102l8 9c37 -15 75 -32 110 -55c36 23 75 40 112 55z" />
    <glyph glyph-name="Ncommaaccent" unicode="&#x145;" horiz-adv-x="711" 
d="M685 648v-12c-55 -5 -74 -16 -78 -68c-2 -31 -4 -73 -4 -162v-418h-16l-437 541h-2v-273c0 -96 3 -144 6 -171c5 -57 24 -67 90 -73v-12h-211v12c58 5 79 16 84 73c2 27 6 75 6 171v230c0 77 -3 87 -21 109c-23 27 -34 36 -86 41v12h136l424 -514h2v273
c0 88 -2 131 -5 160c-5 52 -24 64 -93 69v12h205zM364 -15h1c23 0 54 -20 54 -60c0 -49 -44 -74 -83 -85l-5 14c31 12 49 30 49 51c0 20 -17 31 -38 34c-6 1 -11 7 -11 17c0 18 15 29 33 29z" />
    <glyph glyph-name="Obreve" unicode="&#x14e;" horiz-adv-x="718" 
d="M364 662h1c168 0 316 -134 316 -329c0 -209 -147 -347 -328 -347c-180 0 -316 144 -316 330c0 178 122 346 327 346zM345 640h-1c-113 0 -214 -104 -214 -296c0 -195 99 -336 245 -336c116 0 213 103 213 295c0 215 -101 337 -243 337zM440 797h12
c-3 -59 -36 -97 -97 -97c-62 0 -95 38 -97 97h12c9 -31 35 -55 85 -55c49 0 75 23 85 55z" />
    <glyph glyph-name="Ohungarumlaut" unicode="&#x150;" horiz-adv-x="718" 
d="M364 662h1c168 0 316 -134 316 -329c0 -209 -147 -347 -328 -347c-180 0 -316 144 -316 330c0 178 122 346 327 346zM345 640h-1c-113 0 -214 -104 -214 -296c0 -195 99 -336 245 -336c116 0 213 103 213 295c0 215 -101 337 -243 337zM497 793l-85 -112l-11 6
c15 39 30 85 39 111c15 4 43 5 55 2zM382 793l-85 -112l-11 6c16 42 32 87 40 111c13 4 43 4 54 2z" />
    <glyph glyph-name="Omacron" unicode="&#x14c;" horiz-adv-x="718" 
d="M364 662h1c168 0 316 -134 316 -329c0 -209 -147 -347 -328 -347c-180 0 -316 144 -316 330c0 178 122 346 327 346zM345 640h-1c-113 0 -214 -104 -214 -296c0 -195 99 -336 245 -336c116 0 213 103 213 295c0 215 -101 337 -243 337zM458 714h-190v38h190v-38z" />
    <glyph glyph-name="Oslashacute" unicode="&#x1fe;" horiz-adv-x="719" 
d="M615 679l-50 -76c77 -61 129 -155 129 -269c0 -208 -147 -348 -328 -348c-60 0 -122 19 -170 52l-53 -80l-20 17l50 77c-76 60 -123 155 -123 266c0 165 117 344 332 344c58 0 115 -15 161 -45l50 76zM211 110l304 459c-41 48 -94 71 -157 71c-114 0 -216 -104 -216 -296
c0 -90 24 -172 69 -234zM530 546l-304 -458c39 -53 96 -80 161 -80c116 0 215 99 215 289c0 105 -27 188 -72 249zM467 754v-6l-160 -60l-7 11c45 30 99 68 131 91c13 -1 33 -24 36 -36z" />
    <glyph glyph-name="Racute" unicode="&#x154;" horiz-adv-x="586" 
d="M605 4l-2 -11c-8 0 -17 0 -25 1c-86 4 -125 30 -166 89c-36 52 -72 115 -104 165c-19 31 -35 45 -85 45h-25v-180c0 -86 8 -95 84 -101v-12h-247v12c77 6 85 15 85 101v426c0 85 -8 90 -81 97v12h234c74 0 121 -9 158 -35c36 -25 61 -68 61 -127
c0 -85 -57 -138 -131 -170c18 -36 61 -104 91 -148c35 -51 62 -86 85 -113c29 -35 45 -45 68 -51zM198 311h43c50 0 82 6 109 27c37 30 55 72 55 132c0 110 -64 159 -141 159c-26 0 -48 -3 -55 -7c-8 -5 -11 -14 -11 -47v-264zM404 746v-6l-160 -60l-7 11
c45 30 99 68 131 91c13 -1 33 -24 36 -36z" />
    <glyph glyph-name="Rcaron" unicode="&#x158;" horiz-adv-x="586" 
d="M605 4l-2 -11c-8 0 -17 0 -25 1c-86 4 -125 30 -166 89c-36 52 -72 115 -104 165c-19 31 -35 45 -85 45h-25v-180c0 -86 8 -95 84 -101v-12h-247v12c77 6 85 15 85 101v426c0 85 -8 90 -81 97v12h234c74 0 121 -9 158 -35c36 -25 61 -68 61 -127
c0 -85 -57 -138 -131 -170c18 -36 61 -104 91 -148c35 -51 62 -86 85 -113c29 -35 45 -45 68 -51zM198 311h43c50 0 82 6 109 27c37 30 55 72 55 132c0 110 -64 159 -141 159c-26 0 -48 -3 -55 -7c-8 -5 -11 -14 -11 -47v-264zM380 796l7 -9c-38 -27 -75 -64 -111 -102h-13
c-36 38 -76 74 -113 102l8 9c37 -15 75 -32 110 -55c36 23 75 40 112 55z" />
    <glyph glyph-name="Rcommaaccent" unicode="&#x156;" horiz-adv-x="586" 
d="M605 4l-2 -11c-8 0 -17 0 -25 1c-86 4 -125 30 -166 89c-36 52 -72 115 -104 165c-19 31 -35 45 -85 45h-25v-180c0 -86 8 -95 84 -101v-12h-247v12c77 6 85 15 85 101v426c0 85 -8 90 -81 97v12h234c74 0 121 -9 158 -35c36 -25 61 -68 61 -127
c0 -85 -57 -138 -131 -170c18 -36 61 -104 91 -148c35 -51 62 -86 85 -113c29 -35 45 -45 68 -51zM198 311h43c50 0 82 6 109 27c37 30 55 72 55 132c0 110 -64 159 -141 159c-26 0 -48 -3 -55 -7c-8 -5 -11 -14 -11 -47v-264zM338 -23h1c23 0 54 -20 54 -60
c0 -49 -44 -74 -83 -85l-5 14c31 12 49 30 49 51c0 20 -17 31 -38 34c-6 1 -11 7 -11 17c0 18 15 29 33 29z" />
    <glyph glyph-name="Sacute" unicode="&#x15a;" horiz-adv-x="443" 
d="M386 512l-13 -3c-19 67 -55 133 -139 133c-76 0 -114 -54 -114 -118c0 -77 50 -112 129 -156c78 -43 166 -88 166 -199c0 -96 -84 -183 -213 -183c-41 0 -71 9 -93 15c-27 9 -42 15 -52 20c-7 16 -22 121 -24 150l13 5c14 -65 64 -167 171 -167c78 0 123 53 123 128
s-55 111 -128 154c-56 33 -162 84 -162 197c0 93 74 174 198 174c57 0 94 -14 121 -21c3 -36 9 -75 17 -129zM346 754v-6l-160 -60l-7 11c45 30 99 68 131 91c13 -1 33 -24 36 -36z" />
    <glyph glyph-name="uni015E" unicode="&#x15e;" horiz-adv-x="445" 
d="M388 512l-13 -3c-19 67 -54 133 -139 133c-74 0 -111 -54 -111 -116c0 -75 52 -112 127 -152c77 -41 165 -85 165 -202c0 -88 -66 -164 -170 -182l-8 -11c-14 -20 -12 -28 3 -44c25 -24 35 -42 35 -62c0 -38 -43 -73 -98 -92l-7 13c38 16 56 42 57 62c0 17 -11 28 -21 38
c-21 22 -29 35 -12 58l26 36c-5 -2 -11 -2 -17 -2c-41 2 -74 8 -97 15c-27 9 -42 16 -52 21c-7 15 -23 120 -25 150l14 4c14 -65 64 -167 174 -167c78 0 123 53 123 132c0 80 -55 113 -127 155c-55 31 -161 79 -161 194c0 91 74 172 198 172c55 0 92 -14 119 -21
c4 -36 9 -75 17 -129z" />
    <glyph glyph-name="Scircumflex" unicode="&#x15c;" horiz-adv-x="443" 
d="M386 512l-13 -3c-19 67 -55 133 -139 133c-76 0 -114 -54 -114 -118c0 -77 50 -112 129 -156c78 -43 166 -88 166 -199c0 -96 -84 -183 -213 -183c-41 0 -71 9 -93 15c-27 9 -42 15 -52 20c-7 16 -22 121 -24 150l13 5c14 -65 64 -167 171 -167c78 0 123 53 123 128
s-55 111 -128 154c-56 33 -162 84 -162 197c0 93 74 174 198 174c57 0 94 -14 121 -21c3 -36 9 -75 17 -129zM353 698l-8 -8c-36 14 -75 36 -110 56c-35 -20 -74 -42 -110 -56l-7 8c37 28 77 64 111 101h12c35 -38 75 -73 112 -101z" />
    <glyph glyph-name="uni0218" unicode="&#x218;" horiz-adv-x="443" 
d="M386 512l-13 -3c-19 67 -55 133 -139 133c-76 0 -114 -54 -114 -118c0 -77 50 -112 129 -156c78 -43 166 -88 166 -199c0 -96 -84 -183 -213 -183c-41 0 -71 9 -93 15c-27 9 -42 15 -52 20c-7 16 -22 121 -24 150l13 5c14 -65 64 -167 171 -167c78 0 123 53 123 128
s-55 111 -128 154c-56 33 -162 84 -162 197c0 93 74 174 198 174c57 0 94 -14 121 -21c3 -36 9 -75 17 -129zM219 -51h1c23 0 54 -20 54 -60c0 -49 -44 -74 -83 -85l-5 14c31 12 49 30 49 51c0 20 -17 31 -38 34c-6 1 -11 7 -11 17c0 18 15 29 33 29z" />
    <glyph glyph-name="Tbar" unicode="&#x166;" horiz-adv-x="585" 
d="M565 505l-14 -2c-10 44 -20 69 -29 87c-15 27 -36 37 -122 37h-68v-277h148v-24h-148v-215c0 -78 7 -94 95 -99v-12h-265v12c84 5 92 21 92 99v215h-149v24h149v277h-52c-100 0 -122 -10 -136 -38c-10 -19 -19 -45 -29 -87h-14c6 56 10 120 12 171h10
c12 -23 28 -25 54 -25h395c25 0 35 6 50 25h11c0 -42 4 -112 10 -168z" />
    <glyph glyph-name="Tcaron" unicode="&#x164;" horiz-adv-x="585" 
d="M565 505l-14 -2c-10 44 -20 69 -29 87c-15 27 -35 37 -122 37h-68v-516c0 -78 7 -94 95 -99v-12h-265v12c84 5 92 21 92 99v516h-53c-99 0 -121 -10 -135 -38c-10 -19 -19 -45 -29 -87h-14c6 56 10 120 12 171h10c12 -23 28 -25 54 -25h395c25 0 35 6 50 25h11
c0 -42 4 -112 10 -168zM405 796l7 -9c-38 -27 -75 -64 -111 -102h-13c-36 38 -76 74 -113 102l8 9c37 -15 75 -32 110 -55c36 23 75 40 112 55z" />
    <glyph glyph-name="Tcommaaccent" unicode="&#x162;" horiz-adv-x="585" 
d="M565 505l-14 -2c-10 44 -20 69 -29 87c-15 27 -35 37 -122 37h-68v-516c0 -78 7 -94 95 -99v-12h-265v12c84 5 92 21 92 99v516h-53c-99 0 -121 -10 -135 -38c-10 -19 -19 -45 -29 -87h-14c6 56 10 120 12 171h10c12 -23 28 -25 54 -25h395c25 0 35 6 50 25h11
c0 -42 4 -112 10 -168zM286 -42h1c23 0 54 -20 54 -60c0 -49 -44 -74 -83 -85l-5 14c31 12 49 30 49 51c0 20 -17 31 -38 34c-6 1 -11 7 -11 17c0 18 15 29 33 29z" />
    <glyph glyph-name="Ubreve" unicode="&#x16c;" horiz-adv-x="702" 
d="M680 648v-12c-60 -7 -78 -19 -82 -67c-2 -25 -5 -70 -5 -159v-100c0 -112 -16 -195 -71 -255c-43 -46 -106 -67 -173 -67c-55 0 -111 14 -150 45c-62 48 -87 123 -87 233v261c0 98 -8 101 -80 109v12h239v-12c-73 -4 -81 -13 -81 -109v-236c0 -132 38 -262 190 -262
c166 0 188 160 188 299v83c0 88 -2 133 -7 164c-5 43 -19 54 -88 61v12h207zM456 781h12c-3 -59 -36 -97 -97 -97c-62 0 -95 38 -97 97h12c9 -31 35 -55 85 -55c49 0 75 23 85 55z" />
    <glyph glyph-name="Uhungarumlaut" unicode="&#x170;" horiz-adv-x="702" 
d="M680 648v-12c-60 -7 -78 -19 -82 -67c-2 -25 -5 -70 -5 -159v-100c0 -112 -16 -195 -71 -255c-43 -46 -106 -67 -173 -67c-55 0 -111 14 -150 45c-62 48 -87 123 -87 233v261c0 98 -8 101 -80 109v12h239v-12c-73 -4 -81 -13 -81 -109v-236c0 -132 38 -262 190 -262
c166 0 188 160 188 299v83c0 88 -2 133 -7 164c-5 43 -19 54 -88 61v12h207zM492 792l-85 -112l-11 6c15 39 30 85 39 111c15 4 43 5 55 2zM377 792l-85 -112l-11 6c16 42 32 87 40 111c13 4 43 4 54 2z" />
    <glyph glyph-name="Umacron" unicode="&#x16a;" horiz-adv-x="702" 
d="M680 648v-12c-60 -7 -78 -19 -82 -67c-2 -25 -5 -70 -5 -159v-100c0 -112 -16 -195 -71 -255c-43 -46 -106 -67 -173 -67c-55 0 -111 14 -150 45c-62 48 -87 123 -87 233v261c0 98 -8 101 -80 109v12h239v-12c-73 -4 -81 -13 -81 -109v-236c0 -132 38 -262 190 -262
c166 0 188 160 188 299v83c0 88 -2 133 -7 164c-5 43 -19 54 -88 61v12h207zM461 714h-190v38h190v-38z" />
    <glyph glyph-name="Uogonek" unicode="&#x172;" horiz-adv-x="702" 
d="M680 648v-12c-60 -7 -77 -19 -82 -67c-2 -25 -5 -70 -5 -159v-100c0 -112 -17 -194 -71 -255c-40 -43 -89 -57 -112 -61c-31 -32 -51 -88 -51 -119c0 -36 25 -50 54 -50c12 0 32 6 46 12l4 -11l-50 -36c-9 -7 -25 -11 -35 -11c-50 0 -73 30 -73 68c0 57 59 122 82 143
c-93 -8 -150 13 -188 43c-62 48 -87 122 -87 233v261c0 98 -8 101 -80 109v12h240v-12c-73 -4 -82 -13 -82 -109v-236c0 -132 38 -262 190 -262c166 0 188 160 188 299v83c0 88 -2 133 -7 164c-5 43 -19 54 -88 61v12h207z" />
    <glyph glyph-name="Uring" unicode="&#x16e;" horiz-adv-x="702" 
d="M680 648v-12c-60 -7 -78 -19 -82 -67c-2 -25 -5 -70 -5 -159v-100c0 -112 -16 -195 -71 -255c-43 -46 -106 -67 -173 -67c-55 0 -111 14 -150 45c-62 48 -87 123 -87 233v261c0 98 -8 101 -80 109v12h239v-12c-73 -4 -81 -13 -81 -109v-236c0 -132 38 -262 190 -262
c166 0 188 160 188 299v83c0 88 -2 133 -7 164c-5 43 -19 54 -88 61v12h207zM372 810h1c36 0 73 -27 73 -71s-37 -72 -74 -72s-74 28 -74 72s37 71 74 71zM372 789h-1c-21 0 -38 -21 -38 -50s17 -51 39 -51c23 0 39 22 39 51s-16 50 -39 50z" />
    <glyph glyph-name="Utilde" unicode="&#x168;" horiz-adv-x="702" 
d="M680 648v-12c-60 -7 -78 -19 -82 -67c-2 -25 -5 -70 -5 -159v-100c0 -112 -16 -195 -71 -255c-43 -46 -106 -67 -173 -67c-55 0 -111 14 -150 45c-62 48 -87 123 -87 233v261c0 98 -8 101 -80 109v12h239v-12c-73 -4 -81 -13 -81 -109v-236c0 -132 38 -262 190 -262
c166 0 188 160 188 299v83c0 88 -2 133 -7 164c-5 43 -19 54 -88 61v12h207zM332 765h1c14 0 25 -4 51 -15c18 -8 34 -14 51 -14c18 0 32 12 41 33l9 -5c-14 -56 -41 -68 -64 -68c-18 0 -36 7 -59 18c-14 6 -26 11 -44 11s-31 -13 -42 -34l-10 6c16 51 44 68 66 68z" />
    <glyph glyph-name="Wacute" unicode="&#x1e82;" horiz-adv-x="920" 
d="M916 648v-12c-68 -11 -77 -17 -108 -111c-25 -76 -82 -257 -164 -540h-16c-54 164 -138 397 -179 511h-2c-57 -179 -112 -346 -163 -511h-16c-53 183 -109 366 -165 546c-27 88 -39 96 -99 105v12h231v-12c-72 -10 -73 -20 -56 -81c38 -138 80 -278 125 -422h2
c52 165 111 340 161 506h15c57 -170 117 -340 179 -507h2c44 136 99 337 116 415c15 66 14 79 -73 89v12h210zM593 745v-6l-160 -60l-7 11c45 30 99 68 131 91c13 -1 33 -24 36 -36z" />
    <glyph glyph-name="Wcircumflex" unicode="&#x174;" horiz-adv-x="920" 
d="M916 648v-12c-68 -11 -77 -17 -108 -111c-25 -76 -82 -257 -164 -540h-16c-54 164 -138 397 -179 511h-2c-57 -179 -112 -346 -163 -511h-16c-53 183 -109 366 -165 546c-27 88 -39 96 -99 105v12h231v-12c-72 -10 -73 -20 -56 -81c38 -138 80 -278 125 -422h2
c52 165 111 340 161 506h15c57 -170 117 -340 179 -507h2c44 136 99 337 116 415c15 66 14 79 -73 89v12h210zM595 686l-8 -8c-36 14 -75 36 -110 56c-35 -20 -74 -42 -110 -56l-7 8c37 28 77 64 111 101h12c35 -38 75 -73 112 -101z" />
    <glyph glyph-name="Wdieresis" unicode="&#x1e84;" horiz-adv-x="920" 
d="M916 648v-12c-68 -11 -77 -17 -108 -111c-25 -76 -82 -257 -164 -540h-16c-54 164 -138 397 -179 511h-2c-57 -179 -112 -346 -163 -511h-16c-53 183 -109 366 -165 546c-27 88 -39 96 -99 105v12h231v-12c-72 -10 -73 -20 -56 -81c38 -138 80 -278 125 -422h2
c52 165 111 340 161 506h15c57 -170 117 -340 179 -507h2c44 136 99 337 116 415c15 66 14 79 -73 89v12h210zM559 773h1c21 0 38 -17 38 -40c0 -22 -17 -40 -39 -40c-20 0 -38 18 -38 40c0 23 18 40 38 40zM388 773h1c21 0 38 -17 38 -40c0 -22 -17 -40 -39 -40
c-20 0 -38 18 -38 40c0 23 18 40 38 40z" />
    <glyph glyph-name="Wgrave" unicode="&#x1e80;" horiz-adv-x="920" 
d="M916 648v-12c-68 -11 -77 -17 -108 -111c-25 -76 -82 -257 -164 -540h-16c-54 164 -138 397 -179 511h-2c-57 -179 -112 -346 -163 -511h-16c-53 183 -109 366 -165 546c-27 88 -39 96 -99 105v12h231v-12c-72 -10 -73 -20 -56 -81c38 -138 80 -278 125 -422h2
c52 165 111 340 161 506h15c57 -170 117 -340 179 -507h2c44 136 99 337 116 415c15 66 14 79 -73 89v12h210zM512 690l-7 -11l-163 59v6c4 13 23 36 36 41c46 -33 93 -65 134 -95z" />
    <glyph glyph-name="Ycircumflex" unicode="&#x176;" horiz-adv-x="585" 
d="M587 648v-12c-68 -9 -73 -20 -102 -64c-56 -87 -91 -150 -138 -240c-17 -32 -18 -44 -18 -72v-146c0 -87 8 -96 93 -102v-12h-260v12c81 6 89 15 89 102v145c0 20 -3 31 -19 62c-24 48 -61 119 -121 226c-43 77 -48 86 -106 89v12h223v-12c-66 -10 -67 -21 -52 -50
c46 -92 98 -187 140 -265c36 66 99 183 128 246c24 53 16 61 -58 69v12h201zM416 689l-8 -8c-36 14 -75 36 -110 56c-35 -20 -74 -42 -110 -56l-7 8c37 28 77 64 111 101h12c35 -38 75 -73 112 -101z" />
    <glyph glyph-name="Ygrave" unicode="&#x1ef2;" horiz-adv-x="585" 
d="M587 648v-12c-68 -9 -73 -20 -102 -64c-56 -87 -91 -150 -138 -240c-17 -32 -18 -44 -18 -72v-146c0 -87 8 -96 93 -102v-12h-260v12c81 6 89 15 89 102v145c0 20 -3 31 -19 62c-24 48 -61 119 -121 226c-43 77 -48 86 -106 89v12h223v-12c-66 -10 -67 -21 -52 -50
c46 -92 98 -187 140 -265c36 66 99 183 128 246c24 53 16 61 -58 69v12h201zM349 691l-7 -11l-163 59v6c4 13 23 36 36 41c46 -33 93 -65 134 -95z" />
    <glyph glyph-name="Zacute" unicode="&#x179;" horiz-adv-x="568" 
d="M547 165l13 -3c-6 -33 -24 -115 -34 -162h-496l-4 10c137 203 277 408 412 616h-182c-121 0 -134 -10 -151 -45c-10 -20 -17 -42 -28 -81l-12 1c4 47 10 134 11 172h12c11 -23 24 -25 51 -25h395l4 -9c-137 -202 -273 -403 -405 -611c25 -4 81 -6 159 -6
c146 0 179 8 206 42c17 23 33 57 49 101zM431 746v-6l-160 -60l-7 11c45 30 99 68 131 91c13 -1 33 -24 36 -36z" />
    <glyph glyph-name="Zdotaccent" unicode="&#x17b;" horiz-adv-x="568" 
d="M547 165l13 -3c-6 -33 -24 -115 -34 -162h-496l-4 10c137 203 277 408 412 616h-182c-121 0 -134 -10 -151 -45c-10 -20 -17 -42 -28 -81l-12 1c4 47 10 134 11 172h12c11 -23 24 -25 51 -25h395l4 -9c-137 -202 -273 -403 -405 -611c25 -4 81 -6 159 -6
c146 0 179 8 206 42c17 23 33 57 49 101zM300 789h1c22 0 40 -18 40 -42c0 -23 -18 -42 -41 -42c-21 0 -40 19 -40 42c0 24 19 42 40 42z" />
    <glyph glyph-name="Idotaccent" unicode="&#x130;" horiz-adv-x="318" 
d="M285 0h-251v12c78 6 86 15 86 101v422c0 86 -8 95 -86 101v12h251v-12c-79 -6 -87 -15 -87 -101v-422c0 -86 8 -95 87 -101v-12zM159 787h1c22 0 40 -18 40 -42c0 -23 -18 -42 -41 -42c-21 0 -40 19 -40 42c0 24 19 42 40 42z" />
    <glyph glyph-name="abreve" unicode="&#x103;" horiz-adv-x="407" 
d="M403 39l-74 -51c-17 0 -38 8 -49 20c-11 11 -17 27 -22 45c-35 -25 -89 -65 -111 -65c-70 0 -115 60 -115 114c0 47 24 74 75 92c55 19 124 44 150 64v25c0 80 -32 121 -84 121c-18 0 -33 -7 -43 -19c-12 -13 -21 -34 -30 -66c-4 -16 -11 -22 -24 -22
c-16 0 -38 17 -38 38c0 12 10 22 28 35c29 21 95 58 144 69c27 0 54 -9 74 -25c34 -30 44 -70 44 -124v-191c0 -41 17 -57 36 -57c13 0 24 4 33 11zM257 73v165c-19 -11 -66 -32 -88 -43c-37 -18 -59 -37 -59 -75c0 -53 39 -81 73 -81c22 0 54 13 74 34zM269 615h11
c0 -87 -41 -116 -91 -116h-1c-49 0 -89 29 -89 116h11c7 -48 38 -73 79 -73c42 0 73 25 80 73z" />
    <glyph glyph-name="amacron" unicode="&#x101;" horiz-adv-x="407" 
d="M403 39l-74 -51c-17 0 -38 8 -49 20c-11 11 -17 27 -22 45c-35 -25 -89 -65 -111 -65c-70 0 -115 60 -115 114c0 47 24 74 75 92c55 19 124 44 150 64v25c0 80 -32 121 -84 121c-18 0 -33 -7 -43 -19c-12 -13 -21 -34 -30 -66c-4 -16 -11 -22 -24 -22
c-16 0 -38 17 -38 38c0 12 10 22 28 35c29 21 95 58 144 69c27 0 54 -9 74 -25c34 -30 44 -70 44 -124v-191c0 -41 17 -57 36 -57c13 0 24 4 33 11zM257 73v165c-19 -11 -66 -32 -88 -43c-37 -18 -59 -37 -59 -75c0 -53 39 -81 73 -81c22 0 54 13 74 34zM283 530h-188v43
h188v-43z" />
    <glyph glyph-name="aogonek" unicode="&#x105;" horiz-adv-x="404" 
d="M395 53l7 -13c-4 -3 -41 -28 -46 -31c-45 -32 -96 -92 -96 -139c0 -32 22 -43 47 -43c12 0 29 5 41 12l6 -13l-41 -30c-14 -9 -29 -15 -40 -15c-42 0 -67 23 -67 66c0 44 46 98 103 146c-15 3 -46 23 -53 60c-36 -25 -89 -65 -112 -65c-69 0 -113 60 -113 114
c0 47 24 75 75 93c55 19 123 43 149 63v27c0 80 -29 119 -80 119c-19 0 -35 -7 -45 -19c-12 -12 -22 -34 -31 -66c-4 -16 -10 -22 -24 -22c-15 0 -38 17 -38 38c0 11 10 22 28 35c30 21 98 58 146 69c26 0 52 -9 72 -25c35 -30 43 -67 43 -120v-195c0 -41 17 -57 36 -57
c13 0 24 4 33 11zM255 73v166c-19 -12 -64 -33 -87 -44c-37 -18 -59 -37 -59 -75c0 -53 37 -81 71 -81c23 0 54 13 75 34z" />
    <glyph glyph-name="aeacute" unicode="&#x1fd;" horiz-adv-x="618" 
d="M260 259v31c0 75 -38 112 -85 112c-19 0 -31 -9 -40 -19c-11 -12 -22 -32 -29 -66c-3 -16 -10 -24 -24 -24s-40 19 -40 38c0 13 11 26 29 38c30 22 94 58 141 70c29 0 54 -9 72 -24c14 -14 24 -30 33 -52c36 44 90 75 140 75c82 0 142 -71 142 -138c0 -19 -4 -24 -20 -27
c-14 -3 -133 -12 -252 -16c-4 -158 84 -209 155 -209c31 0 67 14 102 49l10 -10c-54 -79 -125 -99 -150 -99c-69 0 -124 36 -154 92l-30 -25c-33 -27 -88 -67 -114 -67c-68 0 -113 60 -113 116c0 44 22 75 72 91c57 18 125 44 155 64zM432 412h-1c-45 0 -90 -42 -100 -127
c57 0 112 0 168 2c14 0 21 5 21 25c1 48 -28 100 -88 100zM181 43h1c29 0 68 15 98 58c-17 31 -21 86 -21 137c-19 -12 -71 -33 -92 -43c-40 -18 -57 -35 -57 -74c0 -56 38 -78 71 -78zM421 647l-116 -160l-13 5c21 44 59 137 66 150c9 4 50 12 61 11z" />
    <glyph glyph-name="cacute" unicode="&#x107;" horiz-adv-x="394" 
d="M376 102l8 -11c-43 -57 -104 -103 -161 -103c-119 0 -191 99 -191 201c0 75 30 141 99 195c48 38 106 55 141 55h1c35 0 67 -13 83 -27c11 -10 15 -18 15 -28c0 -19 -18 -35 -27 -35c-6 0 -9 2 -20 12c-26 25 -59 39 -98 39c-66 0 -124 -47 -124 -161
c0 -145 99 -192 153 -192c44 0 76 10 121 55zM327 647l-116 -160l-13 5c21 44 59 137 66 150c9 4 50 12 61 11z" />
    <glyph glyph-name="ccaron" unicode="&#x10d;" horiz-adv-x="394" 
d="M376 102l8 -11c-43 -57 -104 -103 -161 -103c-119 0 -191 99 -191 201c0 75 30 141 99 195c48 38 106 55 141 55h1c35 0 67 -13 83 -27c11 -10 15 -18 15 -28c0 -19 -18 -35 -27 -35c-6 0 -9 2 -20 12c-26 25 -59 39 -98 39c-66 0 -124 -47 -124 -161
c0 -145 99 -192 153 -192c44 0 76 10 121 55zM318 648l10 -6c-34 -50 -61 -103 -88 -156h-14c-26 53 -53 106 -86 156l10 6c30 -29 59 -62 83 -95c25 33 54 66 85 95z" />
    <glyph glyph-name="ccircumflex" unicode="&#x109;" horiz-adv-x="394" 
d="M376 102l8 -11c-43 -57 -104 -103 -161 -103c-119 0 -191 99 -191 201c0 75 30 141 99 195c48 38 106 55 141 55h1c35 0 67 -13 83 -27c11 -10 15 -18 15 -28c0 -19 -18 -35 -27 -35c-6 0 -9 2 -20 12c-26 25 -59 39 -98 39c-66 0 -124 -47 -124 -161
c0 -145 99 -192 153 -192c44 0 76 10 121 55zM324 492l-10 -6c-30 30 -59 62 -83 95c-25 -33 -54 -65 -85 -95l-10 6c33 50 62 103 88 156h14c26 -53 53 -106 86 -156z" />
    <glyph glyph-name="cdotaccent" unicode="&#x10b;" horiz-adv-x="394" 
d="M376 102l8 -11c-43 -57 -104 -103 -161 -103c-119 0 -191 99 -191 201c0 75 30 141 99 195c48 38 106 55 141 55h1c35 0 67 -13 83 -27c11 -10 15 -18 15 -28c0 -19 -18 -35 -27 -35c-6 0 -9 2 -20 12c-26 25 -59 39 -98 39c-66 0 -124 -47 -124 -161
c0 -145 99 -192 153 -192c44 0 76 10 121 55zM228 606h1c22 0 40 -18 40 -43c0 -23 -18 -42 -41 -42c-21 0 -40 19 -40 43s19 42 40 42z" />
    <glyph glyph-name="dcaron" unicode="&#x10f;" horiz-adv-x="499" 
d="M490 35v-10c-23 -4 -91 -16 -143 -37v67l-59 -36c-42 -25 -65 -31 -79 -31c-76 0 -177 72 -177 208c0 134 115 243 247 243c17 0 43 -1 68 -10v172c0 64 -5 71 -73 76v9c47 6 109 22 145 35v-618c0 -51 4 -59 41 -64zM347 75v285c-23 38 -63 54 -102 54
c-53 0 -131 -46 -131 -191c0 -120 71 -183 139 -183c35 0 72 17 94 35zM497 714h1c23 0 46 -22 46 -62c0 -46 -37 -72 -69 -83l-6 14c26 12 40 30 40 51c0 20 -13 31 -29 34c-5 1 -10 7 -10 17c0 18 13 29 27 29z" />
    <glyph glyph-name="dcroat" unicode="&#x111;" horiz-adv-x="497" 
d="M491 36v-11c-22 -4 -91 -16 -143 -37v68l-61 -36c-42 -25 -64 -32 -77 -32c-77 0 -180 72 -180 208c0 132 122 243 250 243c17 0 43 -2 68 -11v118h-123v24h123v31c0 64 -5 71 -73 76v9c47 6 109 22 145 35v-151h70v-24h-70v-441c0 -53 4 -61 41 -65zM348 76v284
c-23 37 -64 54 -103 54c-49 0 -133 -41 -133 -192c0 -119 74 -182 141 -182c36 0 73 18 95 36z" />
    <glyph glyph-name="ebreve" unicode="&#x115;" horiz-adv-x="396" 
d="M366 98l8 -10c-57 -80 -127 -100 -153 -100c-121 0 -189 98 -189 209c0 67 23 125 64 170c40 43 93 72 141 72h1c80 0 139 -72 139 -138c0 -16 -5 -21 -21 -25c-15 -3 -133 -12 -254 -16c-2 -156 83 -212 155 -212c34 0 71 14 109 50zM210 413h-1
c-44 0 -90 -45 -102 -125c58 0 114 0 173 2c13 0 19 6 19 17c1 52 -27 106 -89 106zM298 615h11c0 -87 -41 -116 -91 -116h-1c-49 0 -89 29 -89 116h11c7 -48 38 -73 79 -73c42 0 73 25 80 73z" />
    <glyph glyph-name="ecaron" unicode="&#x11b;" horiz-adv-x="396" 
d="M366 98l8 -10c-57 -80 -127 -100 -153 -100c-121 0 -189 98 -189 209c0 67 23 125 64 170c40 43 93 72 141 72h1c80 0 139 -72 139 -138c0 -16 -5 -21 -21 -25c-15 -3 -133 -12 -254 -16c-2 -156 83 -212 155 -212c34 0 71 14 109 50zM210 413h-1
c-44 0 -90 -45 -102 -125c58 0 114 0 173 2c13 0 19 6 19 17c1 52 -27 106 -89 106zM302 648l10 -6c-34 -50 -61 -103 -88 -156h-14c-26 53 -53 106 -86 156l10 6c30 -29 59 -62 83 -95c25 33 54 66 85 95z" />
    <glyph glyph-name="edotaccent" unicode="&#x117;" horiz-adv-x="396" 
d="M366 98l8 -10c-57 -80 -127 -100 -153 -100c-121 0 -189 98 -189 209c0 67 23 125 64 170c40 43 93 72 141 72h1c80 0 139 -72 139 -138c0 -16 -5 -21 -21 -25c-15 -3 -133 -12 -254 -16c-2 -156 83 -212 155 -212c34 0 71 14 109 50zM210 413h-1
c-44 0 -90 -45 -102 -125c58 0 114 0 173 2c13 0 19 6 19 17c1 52 -27 106 -89 106zM217 606h1c22 0 40 -18 40 -43c0 -23 -18 -42 -41 -42c-21 0 -40 19 -40 43s19 42 40 42z" />
    <glyph glyph-name="emacron" unicode="&#x113;" horiz-adv-x="396" 
d="M366 98l8 -10c-57 -80 -127 -100 -153 -100c-121 0 -189 98 -189 209c0 67 23 125 64 170c40 43 93 72 141 72h1c80 0 139 -72 139 -138c0 -16 -5 -21 -21 -25c-15 -3 -133 -12 -254 -16c-2 -156 83 -212 155 -212c34 0 71 14 109 50zM210 413h-1
c-44 0 -90 -45 -102 -125c58 0 114 0 173 2c13 0 19 6 19 17c1 52 -27 106 -89 106zM312 529h-188v43h188v-43z" />
    <glyph glyph-name="eng" unicode="&#x14b;" horiz-adv-x="509" 
d="M165 442v-81c20 15 44 33 69 49c30 18 49 29 77 29c78 0 123 -53 123 -145v-174c0 -52 -4 -99 -17 -140c-11 -36 -30 -69 -53 -97c-29 -35 -53 -55 -77 -55c-17 0 -34 17 -34 39c0 6 2 12 9 12c8 0 23 -10 39 -10c17 0 31 4 42 23c14 27 19 65 19 145v236
c0 65 -21 117 -92 117c-36 0 -78 -26 -105 -50v-245c0 -70 7 -77 64 -83v-12h-209v12c66 6 73 13 73 83v216c0 63 -5 67 -57 80v10c40 8 84 20 129 41z" />
    <glyph glyph-name="eogonek" unicode="&#x119;" horiz-adv-x="393" 
d="M251 -6v2c-8 -3 -22 -8 -32 -8c-120 0 -189 98 -189 209c0 67 23 125 64 170c40 43 94 72 141 72h1c79 0 139 -72 139 -138c0 -16 -5 -21 -21 -25c-15 -3 -133 -12 -254 -16c-2 -156 82 -212 154 -212c35 0 72 14 110 50l8 -10c-16 -22 -51 -55 -64 -65
c-57 -44 -102 -106 -102 -152c0 -30 19 -45 48 -45c10 0 33 5 47 14l5 -12l-49 -36c-8 -6 -27 -13 -37 -13c-42 0 -69 28 -69 65c0 48 49 105 100 150zM208 413h-1c-44 0 -90 -45 -102 -125c58 0 114 0 173 2c13 0 19 6 19 17c1 52 -27 106 -89 106z" />
    <glyph glyph-name="gbreve" unicode="&#x11f;" horiz-adv-x="432" 
d="M432 427l4 -6c-9 -16 -27 -37 -43 -46l-58 2c22 -22 33 -57 33 -92c0 -111 -91 -162 -164 -162c-20 0 -36 2 -52 6c-11 -7 -28 -29 -28 -43c0 -23 21 -41 64 -41c30 0 67 1 102 1c54 0 132 -19 132 -115c0 -97 -106 -201 -237 -201c-106 0 -162 63 -165 119
c-1 22 8 38 21 51c19 20 63 58 91 81c-38 10 -66 36 -78 59c-8 13 -11 30 -10 40c40 13 76 36 90 55c-51 21 -92 72 -92 137c0 115 96 167 169 167h1c31 0 61 -10 90 -28c51 3 105 10 130 16zM200 421h-1c-41 0 -79 -43 -79 -128c0 -89 36 -150 94 -150c40 3 79 35 79 126
c0 87 -34 152 -93 152zM220 -18h-1c-42 0 -64 -5 -81 -21c-26 -22 -50 -51 -50 -86c0 -57 59 -104 131 -104c100 0 144 51 144 118c0 38 -17 67 -47 79c-24 10 -54 14 -96 14zM283 615h11c0 -87 -41 -116 -91 -116h-1c-49 0 -89 29 -89 116h11c7 -48 38 -73 79 -73
c42 0 73 25 80 73z" />
    <glyph glyph-name="gcircumflex" unicode="&#x11d;" horiz-adv-x="432" 
d="M432 427l4 -6c-9 -16 -27 -37 -43 -46l-58 2c22 -22 33 -57 33 -92c0 -111 -91 -162 -164 -162c-20 0 -36 2 -52 6c-11 -7 -28 -29 -28 -43c0 -23 21 -41 64 -41c30 0 67 1 102 1c54 0 132 -19 132 -115c0 -97 -106 -201 -237 -201c-106 0 -162 63 -165 119
c-1 22 8 38 21 51c19 20 63 58 91 81c-38 10 -66 36 -78 59c-8 13 -11 30 -10 40c40 13 76 36 90 55c-51 21 -92 72 -92 137c0 115 96 167 169 167h1c31 0 61 -10 90 -28c51 3 105 10 130 16zM200 421h-1c-41 0 -79 -43 -79 -128c0 -89 36 -150 94 -150c40 3 79 35 79 126
c0 87 -34 152 -93 152zM220 -18h-1c-42 0 -64 -5 -81 -21c-26 -22 -50 -51 -50 -86c0 -57 59 -104 131 -104c100 0 144 51 144 118c0 38 -17 67 -47 79c-24 10 -54 14 -96 14zM295 508l-10 -6c-30 30 -59 62 -83 95c-25 -33 -54 -65 -85 -95l-10 6c33 50 62 103 88 156h14
c26 -53 53 -106 86 -156z" />
    <glyph glyph-name="gcommaaccent" unicode="&#x123;" horiz-adv-x="432" 
d="M432 427l4 -6c-9 -16 -27 -37 -43 -46l-58 2c22 -22 33 -57 33 -92c0 -111 -91 -162 -164 -162c-20 0 -36 2 -52 6c-11 -7 -28 -29 -28 -43c0 -23 21 -41 64 -41c30 0 67 1 102 1c54 0 132 -19 132 -115c0 -97 -106 -201 -237 -201c-106 0 -162 63 -165 119
c-1 22 8 38 21 51c19 20 63 58 91 81c-38 10 -66 36 -78 59c-8 13 -11 30 -10 40c40 13 76 36 90 55c-51 21 -92 72 -92 137c0 115 96 167 169 167h1c31 0 61 -10 90 -28c51 3 105 10 130 16zM200 421h-1c-41 0 -79 -43 -79 -128c0 -89 36 -150 94 -150c40 3 79 35 79 126
c0 87 -34 152 -93 152zM220 -18h-1c-42 0 -64 -5 -81 -21c-26 -22 -50 -51 -50 -86c0 -57 59 -104 131 -104c100 0 144 51 144 118c0 38 -17 67 -47 79c-24 10 -54 14 -96 14zM217 538h-1c-24 0 -56 21 -56 62c0 48 46 74 88 86l3 -15c-32 -13 -51 -31 -51 -51
c0 -19 18 -30 40 -35c7 0 11 -6 11 -16c0 -19 -15 -31 -34 -31z" />
    <glyph glyph-name="gdotaccent" unicode="&#x121;" horiz-adv-x="432" 
d="M432 427l4 -6c-9 -16 -27 -37 -43 -46l-58 2c22 -22 33 -57 33 -92c0 -111 -91 -162 -164 -162c-20 0 -36 2 -52 6c-11 -7 -28 -29 -28 -43c0 -23 21 -41 64 -41c30 0 67 1 102 1c54 0 132 -19 132 -115c0 -97 -106 -201 -237 -201c-106 0 -162 63 -165 119
c-1 22 8 38 21 51c19 20 63 58 91 81c-38 10 -66 36 -78 59c-8 13 -11 30 -10 40c40 13 76 36 90 55c-51 21 -92 72 -92 137c0 115 96 167 169 167h1c31 0 61 -10 90 -28c51 3 105 10 130 16zM200 421h-1c-41 0 -79 -43 -79 -128c0 -89 36 -150 94 -150c40 3 79 35 79 126
c0 87 -34 152 -93 152zM220 -18h-1c-42 0 -64 -5 -81 -21c-26 -22 -50 -51 -50 -86c0 -57 59 -104 131 -104c100 0 144 51 144 118c0 38 -17 67 -47 79c-24 10 -54 14 -96 14zM206 606h1c22 0 40 -18 40 -43c0 -23 -18 -42 -41 -42c-21 0 -40 19 -40 43s19 42 40 42z" />
    <glyph glyph-name="hbar" unicode="&#x127;" horiz-adv-x="500" 
d="M483 0h-198v12c57 5 65 16 65 82v172c0 83 -28 126 -95 125c-37 -1 -78 -19 -105 -51v-246c0 -68 7 -77 61 -82v-12h-196v12c55 5 63 15 63 83v455h-65v24h65v68c0 40 -2 46 -36 53v9c32 4 75 13 108 24v-154h138v-25h-138v-186c32 36 85 75 144 76
c77 2 128 -49 128 -159v-186c0 -68 8 -77 61 -82v-12z" />
    <glyph glyph-name="hcircumflex" unicode="&#x125;" horiz-adv-x="502" 
d="M484 0h-198v12c57 5 65 14 65 81v172c0 84 -30 127 -97 127c-36 0 -74 -19 -103 -50v-249c0 -67 7 -76 62 -81v-12h-197v12c56 5 63 13 63 81v507c0 66 -2 71 -64 77v9c45 7 104 23 136 35v-358c35 35 86 76 143 76c74 0 129 -46 129 -170v-176c0 -69 8 -76 61 -81v-12z
M228 735l-8 -8c-36 14 -75 36 -110 56c-35 -20 -74 -42 -110 -56l-7 8c37 28 77 64 111 101h12c35 -38 75 -73 112 -101z" />
    <glyph glyph-name="ibreve" unicode="&#x12d;" horiz-adv-x="246" 
d="M234 0h-206v12c59 6 67 14 67 85v215c0 61 -5 68 -58 79v11c40 7 86 19 130 39v-344c0 -71 7 -79 67 -85v-12zM199 615h11c0 -87 -41 -116 -91 -116h-1c-49 0 -89 29 -89 116h11c7 -48 38 -73 79 -73c42 0 73 25 80 73z" />
    <glyph glyph-name="ij" unicode="&#x133;" horiz-adv-x="476" 
d="M125 641h1c22 0 40 -18 40 -42c0 -23 -18 -42 -41 -42c-21 0 -40 19 -40 41c0 25 19 43 40 43zM234 0h-207v12c59 6 67 13 67 82v219c0 62 -5 67 -58 78v11c40 7 86 19 130 39v-347c0 -69 7 -76 68 -82v-12zM353 641h1c22 0 40 -18 40 -42c0 -23 -18 -42 -41 -42
c-22 0 -40 19 -40 42c0 24 18 42 40 42zM262 392v10c46 7 95 21 133 39v-348c0 -54 -4 -100 -20 -148c-35 -104 -96 -178 -122 -202c-9 -9 -18 -13 -24 -13c-11 0 -29 15 -29 35c0 8 5 14 16 17c40 10 66 22 81 46c9 17 16 49 20 87c4 43 6 107 6 194v202c0 64 -5 71 -61 81
z" />
    <glyph glyph-name="imacron" unicode="&#x12b;" horiz-adv-x="246" 
d="M234 0h-206v12c59 6 67 14 67 85v215c0 61 -5 68 -58 79v11c40 7 86 19 130 39v-344c0 -71 7 -79 67 -85v-12zM212 529h-188v43h188v-43z" />
    <glyph glyph-name="iogonek" unicode="&#x12f;" horiz-adv-x="246" 
d="M125 641h1c22 0 40 -18 40 -42c0 -23 -18 -42 -41 -42c-21 0 -40 19 -40 41c0 25 19 43 40 43zM235 0h-94c-20 -44 -32 -82 -32 -118c0 -38 25 -57 59 -57c13 0 29 5 44 11l5 -11l-43 -31c-8 -6 -27 -14 -37 -14c-52 0 -77 32 -77 73c0 47 35 106 62 147h-94v12
c59 6 67 13 67 83v217c0 61 -5 68 -58 79v11c40 7 86 19 130 39v-346c0 -70 7 -77 68 -83v-12z" />
    <glyph glyph-name="itilde" unicode="&#x129;" horiz-adv-x="246" 
d="M234 0h-206v12c59 6 67 14 67 85v215c0 61 -5 68 -58 79v11c40 7 86 19 130 39v-344c0 -71 7 -79 67 -85v-12zM80 592h1c13 0 26 -4 51 -16c19 -9 35 -17 52 -17s28 14 37 38l11 -4c-13 -64 -40 -78 -62 -78c-16 0 -37 7 -59 21c-16 8 -28 13 -44 13
c-18 0 -32 -15 -41 -40l-12 6c16 59 44 77 66 77z" />
    <glyph glyph-name="jcircumflex" unicode="&#x135;" horiz-adv-x="232" 
d="M209 523l-10 -6c-30 29 -58 61 -82 94c-24 -33 -53 -65 -84 -94l-10 6c33 48 61 101 87 153h14c25 -52 53 -105 85 -153zM30 392v9c46 8 95 22 133 40v-348c0 -54 -4 -100 -20 -148c-35 -104 -96 -178 -122 -202c-9 -9 -18 -13 -24 -13c-11 0 -29 15 -29 35
c0 8 5 14 16 17c40 10 66 22 81 46c9 17 16 49 20 87c4 43 6 107 6 194v202c0 64 -5 71 -61 81z" />
    <glyph glyph-name="kcommaaccent" unicode="&#x137;" horiz-adv-x="461" 
d="M476 0l-121 -3c-33 38 -105 127 -156 195c-14 18 -21 26 -32 26c-4 0 -10 0 -16 -2v-122c0 -69 7 -77 67 -82v-12h-206v12c60 5 67 13 67 82v503c0 66 -5 75 -61 80v9c43 5 96 21 133 35v-490c29 6 46 18 63 36c21 22 50 58 74 93c28 39 20 46 -34 52v12l188 9v-12
c-68 -12 -78 -17 -119 -59c-27 -29 -48 -52 -89 -100c28 -38 117 -152 154 -191c45 -47 57 -56 88 -59v-12zM245 -34h1c23 0 54 -20 54 -60c0 -49 -44 -74 -83 -85l-5 14c31 12 49 30 49 51c0 20 -17 31 -38 34c-6 1 -11 7 -11 17c0 18 15 29 33 29z" />
    <glyph glyph-name="lacute" unicode="&#x13a;" horiz-adv-x="230" 
d="M218 0h-206v12c60 6 67 13 67 82v503c0 70 -4 74 -65 80v9c44 7 107 22 137 35v-627c0 -69 7 -76 67 -82v-12zM214 796v-6l-160 -60l-7 11c45 30 99 68 131 91c13 -1 33 -24 36 -36z" />
    <glyph glyph-name="lcaron" unicode="&#x13e;" horiz-adv-x="230" 
d="M218 0h-206v12c60 6 67 13 67 82v503c0 70 -4 74 -65 80v9c44 7 107 22 137 35v-627c0 -69 7 -76 67 -82v-12zM223 714h1c23 0 46 -22 46 -62c0 -46 -37 -72 -69 -83l-6 14c26 12 40 30 40 51c0 20 -13 31 -29 34c-5 1 -10 7 -10 17c0 18 13 29 27 29z" />
    <glyph glyph-name="lcommaaccent" unicode="&#x13c;" horiz-adv-x="230" 
d="M218 0h-206v12c60 6 67 13 67 82v503c0 70 -4 74 -65 80v9c44 7 107 22 137 35v-627c0 -69 7 -76 67 -82v-12zM104 -32h1c23 0 54 -20 54 -60c0 -49 -44 -74 -83 -85l-5 14c31 12 49 30 49 51c0 20 -17 31 -38 34c-6 1 -11 7 -11 17c0 18 15 29 33 29z" />
    <glyph glyph-name="ldot" unicode="&#x140;" horiz-adv-x="247" 
d="M238 414h1c22 0 40 -17 40 -41c0 -23 -17 -42 -41 -42c-21 0 -40 19 -40 42c0 24 19 41 40 41zM218 0h-206v12c60 6 67 13 67 83v502c0 70 -5 74 -65 80v9c44 7 107 22 137 35v-626c0 -71 8 -77 67 -83v-12z" />
    <glyph glyph-name="nacute" unicode="&#x144;" horiz-adv-x="515" 
d="M494 0h-200v12c61 6 70 13 70 93v168c0 65 -20 117 -91 117c-38 0 -80 -26 -107 -50v-246c0 -69 7 -76 63 -82v-12h-208v12c65 6 73 13 73 83v217c0 62 -5 66 -57 79v10c40 8 84 20 129 41v-81c20 15 45 33 70 49c29 18 49 29 77 29c78 0 123 -54 123 -146v-198
c0 -70 5 -77 58 -83v-12zM366 647l-116 -160l-13 5c21 44 59 137 66 150c9 4 50 12 61 11z" />
    <glyph glyph-name="ncaron" unicode="&#x148;" horiz-adv-x="515" 
d="M494 0h-200v12c61 6 70 13 70 93v168c0 65 -20 117 -91 117c-38 0 -80 -26 -107 -50v-246c0 -69 7 -76 63 -82v-12h-208v12c65 6 73 13 73 83v217c0 62 -5 66 -57 79v10c40 8 84 20 129 41v-81c20 15 45 33 70 49c29 18 49 29 77 29c78 0 123 -54 123 -146v-198
c0 -70 5 -77 58 -83v-12zM342 650l10 -6c-34 -50 -61 -103 -88 -156h-14c-26 53 -53 106 -86 156l10 6c30 -29 59 -62 83 -95c25 33 54 66 85 95z" />
    <glyph glyph-name="ncommaaccent" unicode="&#x146;" horiz-adv-x="515" 
d="M494 0h-200v12c61 6 70 13 70 93v168c0 65 -20 117 -91 117c-38 0 -80 -26 -107 -50v-246c0 -69 7 -76 63 -82v-12h-208v12c65 6 73 13 73 83v217c0 62 -5 66 -57 79v10c40 8 84 20 129 41v-81c20 15 45 33 70 49c29 18 49 29 77 29c78 0 123 -54 123 -146v-198
c0 -70 5 -77 58 -83v-12zM265 -46h1c23 0 54 -20 54 -60c0 -49 -44 -74 -83 -85l-5 14c31 12 49 30 49 51c0 20 -17 31 -38 34c-6 1 -11 7 -11 17c0 18 15 29 33 29z" />
    <glyph glyph-name="obreve" unicode="&#x14f;" horiz-adv-x="484" 
d="M243 439h1c122 0 208 -99 208 -218c0 -155 -111 -233 -209 -233c-132 0 -211 107 -211 217c0 160 124 234 211 234zM233 419h-1c-67 0 -114 -70 -114 -181c0 -132 51 -230 136 -230c63 0 112 48 112 194c0 114 -44 217 -133 217zM314 615h11c0 -87 -41 -116 -91 -116h-1
c-49 0 -89 29 -89 116h11c7 -48 38 -73 79 -73c42 0 73 25 80 73z" />
    <glyph glyph-name="ohungarumlaut" unicode="&#x151;" horiz-adv-x="484" 
d="M243 439h1c122 0 208 -99 208 -218c0 -155 -111 -233 -209 -233c-132 0 -211 107 -211 217c0 160 124 234 211 234zM233 419h-1c-67 0 -114 -70 -114 -181c0 -132 51 -230 136 -230c63 0 112 48 112 194c0 114 -44 217 -133 217zM269 647l-93 -160l-12 5
c15 44 43 137 46 150c10 4 47 12 57 11zM383 647l-93 -160l-12 5c15 44 43 137 46 150c10 4 48 12 57 11z" />
    <glyph glyph-name="omacron" unicode="&#x14d;" horiz-adv-x="484" 
d="M243 439h1c122 0 208 -99 208 -218c0 -155 -111 -233 -209 -233c-132 0 -211 107 -211 217c0 160 124 234 211 234zM233 419h-1c-67 0 -114 -70 -114 -181c0 -132 51 -230 136 -230c63 0 112 48 112 194c0 114 -44 217 -133 217zM336 529h-188v43h188v-43z" />
    <glyph glyph-name="oslashacute" unicode="&#x1ff;" horiz-adv-x="484" 
d="M408 444l-37 -50c52 -42 81 -103 81 -172c0 -155 -111 -234 -207 -234c-44 0 -82 11 -115 32l-38 -54l-17 16l37 52c-50 41 -80 109 -80 171c0 160 124 234 211 234c42 0 77 -12 110 -32l36 50zM145 89l181 275c-23 36 -56 55 -95 55c-67 0 -116 -71 -116 -186
c0 -60 12 -111 30 -144zM338 340l-178 -272c24 -41 56 -60 97 -60c56 0 112 49 112 196c0 47 -9 95 -31 136zM341 647l-116 -160l-13 5c21 44 59 137 66 150c9 4 50 12 61 11z" />
    <glyph glyph-name="racute" unicode="&#x155;" horiz-adv-x="342" 
d="M167 333h2c23 42 69 106 116 106c31 0 52 -25 52 -46c0 -16 -12 -31 -29 -41c-11 -5 -19 -4 -24 1c-15 15 -26 22 -43 22c-23 0 -48 -23 -74 -78v-203c0 -69 5 -76 80 -82v-12h-217v12c57 6 65 13 65 82v219c0 66 -5 71 -60 79v9c44 7 84 19 132 41v-109zM303 647
l-116 -160l-13 5c21 44 59 137 66 150c9 4 50 12 61 11z" />
    <glyph glyph-name="rcaron" unicode="&#x159;" horiz-adv-x="342" 
d="M167 333h2c23 42 69 106 116 106c31 0 52 -25 52 -46c0 -16 -12 -31 -29 -41c-11 -5 -19 -4 -24 1c-15 15 -26 22 -43 22c-23 0 -48 -23 -74 -78v-203c0 -69 5 -76 80 -82v-12h-217v12c57 6 65 13 65 82v219c0 66 -5 71 -60 79v9c44 7 84 19 132 41v-109zM277 648l10 -6
c-34 -50 -61 -103 -88 -156h-14c-26 53 -53 106 -86 156l10 6c30 -29 59 -62 83 -95c25 33 54 66 85 95z" />
    <glyph glyph-name="rcommaaccent" unicode="&#x157;" horiz-adv-x="342" 
d="M167 333h2c23 42 69 106 116 106c31 0 52 -25 52 -46c0 -16 -12 -31 -29 -41c-11 -5 -19 -4 -24 1c-15 15 -26 22 -43 22c-23 0 -48 -23 -74 -78v-203c0 -69 5 -76 80 -82v-12h-217v12c57 6 65 13 65 82v219c0 66 -5 71 -60 79v9c44 7 84 19 132 41v-109zM122 -34h1
c23 0 54 -20 54 -60c0 -49 -44 -74 -83 -85l-5 14c31 12 49 30 49 51c0 20 -17 31 -38 34c-6 1 -11 7 -11 17c0 18 15 29 33 29z" />
    <glyph glyph-name="sacute" unicode="&#x15b;" horiz-adv-x="336" 
d="M295 323l-10 -3c-18 53 -55 98 -108 98c-40 0 -67 -30 -67 -71c0 -50 42 -76 83 -94c75 -32 119 -69 119 -131c0 -87 -79 -134 -155 -134c-50 0 -89 18 -105 29c-7 13 -16 80 -17 113l11 4c18 -65 67 -125 128 -125c39 0 72 26 72 74c0 46 -29 73 -81 97
c-54 26 -116 61 -116 133c0 69 58 126 144 126c39 0 65 -8 84 -16c7 -23 16 -78 18 -100zM278 647l-116 -160l-13 5c21 44 59 137 66 150c9 4 50 12 61 11z" />
    <glyph glyph-name="uni015F" unicode="&#x15f;" horiz-adv-x="336" 
d="M296 323l-10 -3c-18 53 -55 98 -108 98c-39 0 -66 -30 -66 -70c0 -48 42 -73 83 -93c75 -34 118 -71 118 -133c0 -71 -53 -115 -112 -128l-10 -14c-14 -21 -12 -30 3 -45c24 -24 34 -42 34 -61c0 -37 -42 -72 -93 -90l-6 13c35 17 53 42 54 59c1 18 -11 29 -21 39
c-22 21 -27 37 -13 57l27 37c-6 -1 -12 -1 -18 -1c-49 0 -93 19 -109 34c-5 19 -14 78 -15 112l11 2c18 -61 70 -127 132 -127c37 0 70 26 70 75c0 46 -29 72 -83 100c-51 25 -113 58 -113 129c0 68 58 126 145 126c37 0 63 -8 82 -16c7 -24 17 -78 18 -100z" />
    <glyph glyph-name="scircumflex" unicode="&#x15d;" horiz-adv-x="336" 
d="M295 323l-10 -3c-18 53 -55 98 -108 98c-40 0 -67 -30 -67 -71c0 -50 42 -76 83 -94c75 -32 119 -69 119 -131c0 -87 -79 -134 -155 -134c-50 0 -89 18 -105 29c-7 13 -16 80 -17 113l11 4c18 -65 67 -125 128 -125c39 0 72 26 72 74c0 46 -29 73 -81 97
c-54 26 -116 61 -116 133c0 69 58 126 144 126c39 0 65 -8 84 -16c7 -23 16 -78 18 -100zM267 492l-10 -6c-30 30 -59 62 -83 95c-25 -33 -54 -65 -85 -95l-10 6c33 50 62 103 88 156h14c26 -53 53 -106 86 -156z" />
    <glyph glyph-name="uni0219" unicode="&#x219;" horiz-adv-x="336" 
d="M295 323l-10 -3c-18 53 -55 98 -108 98c-40 0 -67 -30 -67 -71c0 -50 42 -76 83 -94c75 -32 119 -69 119 -131c0 -87 -79 -134 -155 -134c-50 0 -89 18 -105 29c-7 13 -16 80 -17 113l11 4c18 -65 67 -125 128 -125c39 0 72 26 72 74c0 46 -29 73 -81 97
c-54 26 -116 61 -116 133c0 69 58 126 144 126c39 0 65 -8 84 -16c7 -23 16 -78 18 -100zM173 -44h1c23 0 54 -20 54 -60c0 -49 -44 -74 -83 -85l-5 14c31 12 49 30 49 51c0 20 -17 31 -38 34c-6 1 -11 7 -11 17c0 18 15 29 33 29z" />
    <glyph glyph-name="tbar" unicode="&#x167;" horiz-adv-x="277" 
d="M277 36l-73 -38c-13 -7 -23 -10 -30 -10c-63 0 -94 40 -94 117v129h-67v24h67v141h-65l-2 7l25 21h42v80l62 62l10 -2v-140h110c8 -11 5 -22 -5 -28h-105v-141h105v-24h-105v-101c0 -83 34 -99 60 -99c25 0 45 8 59 15z" />
    </font>
</defs>
</svg>
